SplineFontDB: 3.2
FontName: RoystonRegular
FullName: Royston Regular
FamilyName: Royston
Weight: Regular
Copyright: Copyright (c) 2023, Bill Hails
UComments: "2023-1-27: Created with FontForge (http://fontforge.org)"
Version: 001.000
ItalicAngle: 0
UnderlinePosition: -204
UnderlineWidth: 102
Ascent: 1153
Descent: 895
InvalidEm: 0
LayerCount: 2
Layer: 0 0 "Back" 1
Layer: 1 0 "Fore" 0
XUID: [1021 524 1923241611 3393382]
FSType: 0
OS2Version: 0
OS2_WeightWidthSlopeOnly: 0
OS2_UseTypoMetrics: 1
CreationTime: 1674819720
ModificationTime: 1676295943
PfmFamily: 17
TTFWeight: 400
TTFWidth: 5
LineGap: 184
VLineGap: 0
OS2TypoAscent: 0
OS2TypoAOffset: 1
OS2TypoDescent: 0
OS2TypoDOffset: 1
OS2TypoLinegap: 184
OS2WinAscent: 0
OS2WinAOffset: 1
OS2WinDescent: 0
OS2WinDOffset: 1
HheadAscent: 0
HheadAOffset: 1
HheadDescent: 0
HheadDOffset: 1
OS2Vendor: 'PfEd'
OS2CodePages: 00000001.00000000
OS2UnicodeRanges: 00000001.00000000.00000000.00000000
Lookup: 258 0 0 "kerning" { "kerning-1" [100,0,4] } []
Lookup: 260 0 0 "accents" { "accents-1"  } []
MarkAttachClasses: 1
DEI: 91125
KernClass2: 24 16 "kerning-1"
 1 A
 7 D N O W
 5 J T Y
 9 K Q R U X
 1 P
 1 f
 11 b c e o p s
 5 t v w
 7 g q y z
 9 a i k l u
 9 C E G H I
 1 r
 1 B
 1 L
 1 S
 1 V
 1 Z
 1 F
 1 M
 1 d
 5 h m n
 1 j
 1 x
 1 A
 7 C G O Q
 31 B D E F H J K L M N P R S b h k
 15 a c d e g o q s
 5 U V W
 7 i m n r
 1 l
 1 f
 1 j
 7 I X Y Z
 1 T
 1 p
 1 t
 5 u v w
 5 x y z

StartChar: A
Encoding: 65 65 0
Width: 733
VWidth: 1748
Flags: W
HStem: 779 74<253.352 405.758>
VStem: 99 74<230.323 611.465> 572 74<-15.686 377.537>
AnchorPoint: "bottom" 599.289 2 basechar 0
AnchorPoint: "top" 333.289 958 basechar 0
LayerCount: 2
Fore
SplineSet
620 390 m 1
 621 387 646 61 646 36 c 0
 646 12 610 -25 585 -25 c 0
 578 -25 572 -20 572 -12 c 0
 569 53 551 289 543 382 c 1
 285 362 173 219 122 22 c 0
 114 -11 76 -35 56 -35 c 0
 49 -35 44 -31 44 -23 c 0
 44 -18 46 -11 52 -1 c 1
 92 142 99 341 99 344 c 0
 113 833 315 853 347 853 c 0
 566 853 606 565 615 459 c 1
 632 460 647 460 652 460 c 0
 660 460 664 455 664 448 c 0
 664 430 643 403 620 390 c 1
537 451 m 1
 518 591 461 779 300 779 c 0
 186 779 174 415 173 390 c 0
 172 346 167 285 160 225 c 1
 274 380 423 434 537 451 c 1
EndSplineSet
Validated: 1
EndChar

StartChar: at
Encoding: 64 64 1
Width: 662
Flags: W
HStem: -35 58<238.096 436.82> 72 59<282.899 344.228 428.283 452.637> 304 56<363.125 386.298> 405 58<236.179 428.48>
VStem: 80 58<123.735 306.553> 176 61<175.186 287.22> 408 60<187.475 292.093> 527 58<113.574 304.859>
LayerCount: 2
Fore
SplineSet
284 348 m 0
 303 348 320 322 365 247 c 0
 377 226 390 206 402 187 c 1
 406 200 408 213 408 226 c 0
 408 252 400 276 387 289 c 0
 372 304 359 300 355 304 c 0
 354 305 353 307 353 310 c 0
 353 325 380 360 410 360 c 0
 441 360 468 323 468 270 c 0
 468 232 455 188 428 151 c 1
 434 144 443 134 452 131 c 0
 453 131 l 0
 459 131 462 128 462 123 c 0
 462 107 434 72 410 72 c 0
 396 72 384 83 371 98 c 1
 345 82 319 76 294 76 c 0
 213 76 176 175 176 218 c 0
 176 275 238 348 284 348 c 0
345 135 m 1
 333 154 320 175 308 195 c 0
 278 246 256 280 243 288 c 1
 239 280 237 270 237 259 c 0
 237 208 278 135 338 135 c 2
 345 135 l 1
318 -35 m 0
 162 -35 80 73 80 190 c 0
 80 322 187 463 359 463 c 0
 505 463 585 353 585 235 c 0
 585 102 482 -35 318 -35 c 0
527 195 m 0
 527 303 456 405 321 405 c 0
 187 405 138 320 138 231 c 0
 138 132 204 23 356 23 c 0
 510 23 527 142 527 195 c 0
EndSplineSet
Validated: 1
EndChar

StartChar: question
Encoding: 63 63 2
Width: 487
Flags: W
HStem: -43 126<157.43 248.733> 161 89<256.562 285.057> 413 71<210.958 309.331> 778 75<126.944 318.939>
VStem: 37 75<678.546 753.308> 134 75<238.815 412.228> 143 120<-30.3352 69.7894> 368 75<544.173 731.052>
LayerCount: 2
Fore
SplineSet
217 484 m 2xfd
 263 484 312 499 334 521 c 0
 366 553 368 624 368 638 c 0
 368 736 283 778 206 778 c 0
 156 778 123 760 117 754 c 1
 112 739 112 739 112 731 c 0
 112 707 74 669 50 669 c 0
 42 669 37 673 37 682 c 0
 37 763 132 853 258 853 c 0
 354 853 443 799 443 688 c 0
 443 516 321 430 213 413 c 1
 212 397 209 351 209 313 c 0
 209 277 209 239 256 236 c 1
 268 246 279 250 287 250 c 0
 295 250 300 245 300 237 c 0
 300 214 257 161 208 161 c 0
 183 161 163 174 152 185 c 0
 140 197 134 203 134 267 c 0
 134 332 142 420 142 424 c 0
 144 449 180 484 203 484 c 2
 217 484 l 2xfd
184 -43 m 0
 162 -43 143 -27 143 -2 c 0
 143 33 186 83 223 83 c 0
 244 83 263 67 263 42 c 0xfb
 263 7 221 -43 184 -43 c 0
EndSplineSet
Validated: 1
EndChar

StartChar: greater
Encoding: 62 62 3
Width: 502
Flags: W
HStem: 73 77<93.1939 193.023>
VStem: 81 356
LayerCount: 2
Fore
SplineSet
81 348 m 0
 81 371 123 413 146 413 c 0
 149 413 301 337 430 294 c 0
 435 292 437 289 437 284 c 0
 437 269 420 242 396 227 c 0
 348 197 148 73 94 73 c 0
 86 73 82 78 82 85 c 0
 82 110 123 150 147 150 c 0
 172 150 311 231 320 237 c 1
 88 326 81 336 81 348 c 0
EndSplineSet
Validated: 1
EndChar

StartChar: equal
Encoding: 61 61 4
Width: 501
VWidth: 1988
Flags: W
HStem: 140 77<109.23 348.235> 276 77<109.23 348.235>
VStem: 86 329<140.875 196.116 276.875 332.085>
LayerCount: 2
Fore
SplineSet
249 140 m 0
 164 140 119 128 99 128 c 0
 90 128 86 130 86 138 c 0
 86 158 119 196 146 203 c 0
 171 209 242 217 304 217 c 0
 414 217 415 193 415 184 c 0
 415 157 371 118 349 118 c 0
 332 118 360 140 249 140 c 0
249 276 m 0
 164 276 119 264 99 264 c 0
 90 264 86 266 86 274 c 0
 86 294 119 332 146 339 c 0
 171 345 242 353 304 353 c 0
 414 353 415 330 415 320 c 0
 415 293 371 254 349 254 c 0
 332 254 360 276 249 276 c 0
EndSplineSet
Validated: 1
EndChar

StartChar: less
Encoding: 60 60 5
Width: 492
Flags: W
HStem: 337 76<312.404 409.806>
VStem: 66 356
LayerCount: 2
Fore
SplineSet
422 138 m 0
 422 115 379 73 357 73 c 0
 354 73 202 149 73 192 c 0
 68 194 66 198 66 203 c 0
 66 218 83 244 107 259 c 0
 169 298 357 413 409 413 c 0
 417 413 421 408 421 401 c 0
 421 376 380 337 356 337 c 0
 331 337 192 255 183 249 c 1
 414 160 422 150 422 138 c 0
EndSplineSet
Validated: 1
EndChar

StartChar: semicolon
Encoding: 59 59 6
Width: 293
Flags: W
HStem: 278 125<111.092 202.614>
VStem: 97 120<290.497 390.503> 116 83<-132.983 24.2305>
LayerCount: 2
Fore
SplineSet
51 -213 m 0xa0
 51 -200 66 -176 88 -158 c 1
 103 -122 115 -65 116 -32 c 0
 117 -8 166 41 190 41 c 0
 195 41 199 39 199 33 c 0
 199 10 187 -75 158 -133 c 0
 129 -192 80 -222 60 -222 c 0
 53 -222 51 -218 51 -213 c 0xa0
97 319 m 0xc0
 97 354 139 403 176 403 c 0
 197 403 217 387 217 362 c 0
 217 327 174 278 137 278 c 0
 115 278 97 294 97 319 c 0xc0
EndSplineSet
Validated: 1
EndChar

StartChar: colon
Encoding: 58 58 7
Width: 285
Flags: W
HStem: -63 126<97.0915 187.908> 278 125<98.0915 189.862>
VStem: 83 119<-50.5366 50.4252 289.307 389.399>
LayerCount: 2
Fore
SplineSet
124 278 m 0
 102 278 84 295 84 319 c 0
 84 354 126 403 163 403 c 0
 185 403 204 387 204 362 c 0
 204 327 162 278 124 278 c 0
162 63 m 0
 186 63 202 45 202 22 c 0
 202 -14 160 -63 123 -63 c 0
 101 -63 83 -46 83 -22 c 0
 83 14 125 63 162 63 c 0
EndSplineSet
Validated: 1
EndChar

StartChar: nine
Encoding: 57 57 8
Width: 509
Flags: W
HStem: 243 76<120.008 273.993> 498 75<240.258 370.367>
VStem: 67 75<280 410.455> 305 75<-33.7569 323.423>
LayerCount: 2
Fore
SplineSet
371 449 m 0
 372 457 374 475 370 481 c 0
 366 487 340 498 309 498 c 0
 251 498 142 440 142 349 c 0
 142 329 164 319 194 319 c 0
 211 319 229 322 248 328 c 0
 336 356 351 394 371 449 c 0
359 573 m 0
 448 573 448 533 448 518 c 0
 448 446 380 287 380 101 c 0
 380 61 385 25 385 22 c 0
 385 -2 346 -41 322 -41 c 0
 313 -41 305 -41 305 51 c 0
 305 155 325 251 343 327 c 1
 280 273 200 243 143 243 c 0
 98 243 67 261 67 299 c 0
 67 433 242 573 359 573 c 0
EndSplineSet
Validated: 1
EndChar

StartChar: eight
Encoding: 56 56 9
Width: 509
VWidth: 1468
Flags: W
HStem: -40 75<148.001 240.244>
VStem: 72 76<0.5 169.632> 319 77<110.834 283.51>
LayerCount: 2
Fore
SplineSet
283 420 m 1
 309 445 337 471 368 496 c 1
 284 486 226 472 204 466 c 1
 235 452 261 436 283 420 c 1
219 349 m 1
 184 375 137 399 75 418 c 0
 60 422 67 448 89 470 c 0
 150 532 342 565 439 573 c 0
 453 574 458 560 458 536 c 0
 458 477 411 438 387 438 c 0
 382 438 378 440 376 444 c 1
 354 426 334 409 317 391 c 1
 388 322 396 246 396 216 c 0
 396 141 294 -40 101 -40 c 0
 83 -40 72 -18 72 19 c 0
 72 91 113 219 219 349 c 1
153 35 m 1
 263 37 319 99 319 174 c 0
 319 221 297 274 252 319 c 1
 171 213 148 116 148 67 c 0
 148 51 150 41 153 35 c 1
EndSplineSet
Validated: 1
EndChar

StartChar: seven
Encoding: 55 55 10
Width: 492
Flags: W
HStem: 498 75<109.554 284.255>
VStem: 196 78<-18.4541 245>
LayerCount: 2
Fore
SplineSet
368 550 m 0
 368 528 320 469 291 322 c 1
 445 331 394 349 430 349 c 0
 438 349 443 344 443 336 c 0
 443 326 436 311 421 296 c 0
 385 260 322 253 279 249 c 1
 274 209 271 164 271 116 c 0
 271 71 274 37 274 34 c 0
 274 10 235 -28 211 -28 c 0
 200 -28 196 -27 196 66 c 0
 196 132 201 192 210 245 c 1
 171 243 135 239 113 229 c 1
 114 232 l 1
 100 218 85 210 75 210 c 0
 67 210 62 214 62 223 c 0
 62 225 69 302 224 317 c 1
 243 399 269 458 285 491 c 1
 267 496 246 498 226 498 c 0
 149 498 99 475 77 475 c 0
 69 475 65 478 65 487 c 0
 65 506 93 541 119 549 c 0
 184 568 236 573 274 573 c 0
 296 573 368 569 368 550 c 0
EndSplineSet
Validated: 1
EndChar

StartChar: six
Encoding: 54 54 11
Width: 512
Flags: W
HStem: -34 75<158.891 324.866> 227 76<203 333.185> 498 75<297.186 369.997>
VStem: 71 75<56.1303 216.073> 374 75<81.1682 185.922>
LayerCount: 2
Fore
SplineSet
374 126 m 0
 374 210 234 225 171 227 c 1
 156 188 146 158 146 128 c 0
 146 51 210 41 245 41 c 0
 303 41 374 71 374 126 c 0
195 -34 m 0
 87 -34 71 36 71 78 c 0
 71 190 254 573 366 573 c 0
 381 573 380 563 380 560 c 0
 380 538 344 499 318 498 c 1
 274 457 204 305 203 303 c 1
 304 302 449 281 449 176 c 0
 449 90 333 -34 195 -34 c 0
EndSplineSet
Validated: 1
EndChar

StartChar: five
Encoding: 53 53 12
Width: 506
VWidth: 1468
Flags: W
HStem: -54 74<148.106 289.662> 254 75<231.102 343.855> 498 75<245.507 420.249>
VStem: 61 75<33.2802 146.666> 155 75<310 484.349> 356 75<86.2487 244.649>
LayerCount: 2
Fore
SplineSet
430 560 m 0
 430 538 395 499 369 498 c 0
 317 497 276 494 244 487 c 1
 233 431 230 339 230 310 c 1
 254 319 290 329 325 329 c 0
 427 329 431 241 431 212 c 0
 431 68 293 -54 167 -54 c 0
 117 -54 61 -20 61 46 c 0
 61 103 106 177 144 177 c 0
 153 177 158 172 158 164 c 0
 158 146 136 129 136 95 c 0
 136 49 179 20 215 20 c 0
 277 20 356 57 356 163 c 0
 356 236 317 254 276 254 c 0
 224 254 184 228 166 228 c 0
 159 228 155 232 155 242 c 0
 155 249 155 303 160 362 c 0
 173 534 192 567 417 573 c 0
 430 573 430 563 430 560 c 0
EndSplineSet
Validated: 1
EndChar

StartChar: four
Encoding: 52 52 13
Width: 500
Flags: W
HStem: -35 79<302.419 352.617> 269 85<324.682 439.465> 553 20G<204 218 357.5 372>
VStem: 227 75<44.2705 233>
LayerCount: 2
Fore
SplineSet
271 -35 m 0
 227 -35 227 58 227 91 c 0
 227 145 234 198 239 233 c 1
 204 212 162 183 114 142 c 0
 101 131 89 125 80 125 c 0
 72 125 67 130 67 138 c 0
 67 139 67 140 67 141 c 0
 68 146 99 383 155 523 c 0
 164 547 194 573 214 573 c 0
 222 573 227 568 227 560 c 0
 227 557 184 456 148 227 c 1
 185 255 219 278 250 296 c 1
 263 361 282 436 308 519 c 0
 316 543 347 572 368 572 c 0
 376 572 381 568 381 560 c 0
 381 550 348 461 323 333 c 1
 359 348 387 354 408 354 c 0
 436 354 447 344 447 332 c 0
 447 307 406 269 385 269 c 0
 380 269 376 271 373 276 c 1
 370 279 366 280 360 280 c 0
 342 280 313 269 312 269 c 0
 305 217 302 175 302 141 c 0
 302 52 302 44 318 44 c 0
 320 44 322 44 324 44 c 1
 350 92 377 92 385 92 c 0
 393 92 398 88 398 80 c 0
 398 63 349 -35 271 -35 c 0
EndSplineSet
Validated: 1
EndChar

StartChar: three
Encoding: 51 51 14
Width: 496
Flags: W
HStem: -31 75<154.525 327.291> 498 75<128.984 284.452>
VStem: 60 371
LayerCount: 2
Fore
SplineSet
60 50 m 0
 60 73 99 111 121 111 c 0
 125 111 129 110 131 107 c 2
 131 107 141 94 152 83 c 0
 188 47 218 44 255 44 c 0
 329 44 358 83 361 127 c 1
 156 268 l 2
 152 271 151 274 151 278 c 0
 151 309 242 378 286 476 c 1
 263 490 232 498 202 498 c 0
 169 498 136 489 114 467 c 0
 82 435 60 440 60 456 c 0
 60 489 145 573 251 573 c 0
 305 573 364 550 364 530 c 0
 364 501 315 413 239 326 c 1
 431 194 l 2
 436 191 436 184 436 181 c 0
 436 87 335 -31 208 -31 c 0
 92 -31 60 48 60 50 c 0
EndSplineSet
Validated: 1
EndChar

StartChar: two
Encoding: 50 50 15
Width: 494
Flags: W
HStem: 24 75<165.012 393.833> 498 75<185.772 328.08>
VStem: 349 76<317.629 479.726>
LayerCount: 2
Fore
SplineSet
425 68 m 0
 425 46 389 6 364 6 c 0
 356 6 321 24 268 24 c 0
 172 24 85 -41 60 -41 c 0
 52 -41 47 -36 47 -28 c 0
 47 -18 54 -3 69 12 c 0
 75 18 106 44 158 96 c 0
 236 174 349 302 349 390 c 0
 349 465 304 498 253 498 c 0
 219 498 184 484 159 459 c 0
 149 449 148 445 140 437 c 0
 114 411 87 409 87 428 c 0
 87 465 194 573 302 573 c 0
 416 573 424 467 424 439 c 0
 424 304 242 118 201 77 c 1
 239 90 277 99 316 99 c 0
 342 99 425 90 425 68 c 0
EndSplineSet
Validated: 1
EndChar

StartChar: one
Encoding: 49 49 16
Width: 472
Flags: W
HStem: -9 74<278 381.259> 553 20G<264 278>
VStem: 210 75<65 448>
LayerCount: 2
Fore
SplineSet
111 372 m 0
 97 372 95 383 95 386 c 0
 95 405 123 438 149 446 c 1
 178 477 218 536 219 537 c 0
 234 559 257 573 271 573 c 0
 285 573 285 573 285 368 c 0
 285 259 284 131 278 65 c 1
 336 65 372 69 386 77 c 0
 406 90 422 88 422 73 c 0
 422 58 405 33 383 19 c 0
 346 -5 300 -8 253 -9 c 1
 238 -26 221 -34 210 -34 c 0
 202 -34 197 -30 197 -22 c 0
 197 -21 198 -21 200 -10 c 1
 129 -11 97 -20 82 -29 c 0
 62 -41 46 -39 46 -24 c 0
 46 -22 51 53 206 63 c 1
 209 122 210 212 210 319 c 2
 210 448 l 1
 183 416 142 372 111 372 c 0
EndSplineSet
Validated: 1
EndChar

StartChar: zero
Encoding: 48 48 17
Width: 534
VWidth: 1468
Flags: W
HStem: -31 75<208.211 335.531> 500 73<221.249 330>
VStem: 86 75<158.967 410.888> 380 75<103.057 383.211 537.125 563.332>
LayerCount: 2
Fore
SplineSet
80 -13 m 0
 80 -6 80 -6 116 55 c 1
 96 100 86 159 86 220 c 0
 86 443 209 573 324 573 c 0
 336 573 359 571 386 537 c 1
 386 537 410 568 433 568 c 0
 442 568 447 563 447 555 c 0
 447 548 447 548 414 489 c 1
 425 464 455 388 455 278 c 0
 455 64 330 -31 223 -31 c 0
 205 -31 173 -26 144 9 c 1
 143 8 119 -26 93 -26 c 0
 85 -26 80 -22 80 -13 c 0
357 386 m 1
 307 296 245 183 197 99 c 1
 212 72 236 44 272 44 c 0
 329 44 348 66 364 114 c 0
 375 148 380 188 380 228 c 0
 380 283 371 339 357 386 c 1
174 158 m 1
 186 179 186 179 333 444 c 1
 313 483 289 500 265 500 c 0
 212 500 161 410 161 272 c 0
 161 232 165 193 174 158 c 1
EndSplineSet
Validated: 1
EndChar

StartChar: slash
Encoding: 47 47 18
Width: 542
Flags: W
HStem: -33 606
LayerCount: 2
Fore
SplineSet
62 11 m 0
 96 54 376 478 440 546 c 0
 457 565 474 573 484 573 c 0
 492 573 497 568 497 561 c 0
 497 552 490 539 476 523 c 0
 431 474 151 54 109 1 c 0
 93 -19 71 -33 58 -33 c 0
 42 -33 44 -12 62 11 c 0
EndSplineSet
Validated: 1
EndChar

StartChar: period
Encoding: 46 46 19
Width: 272
Flags: W
HStem: -62 125<82.3861 172.908>
VStem: 68 119<-49.5027 50.4252>
LayerCount: 2
Fore
SplineSet
148 63 m 0
 171 63 187 45 187 22 c 0
 187 -13 145 -62 108 -62 c 0
 86 -62 68 -46 68 -21 c 0
 68 15 111 63 148 63 c 0
EndSplineSet
Validated: 1
EndChar

StartChar: hyphen
Encoding: 45 45 20
Width: 492
VWidth: 1928
Flags: W
HStem: 216 77<103.23 342.235>
VStem: 80 329<216.875 272.085>
LayerCount: 2
Fore
SplineSet
243 216 m 0
 158 216 113 204 93 204 c 0
 84 204 80 206 80 214 c 0
 80 234 113 272 140 279 c 0
 165 285 236 293 298 293 c 0
 408 293 409 270 409 260 c 0
 409 233 365 194 343 194 c 0
 326 194 354 216 243 216 c 0
EndSplineSet
Validated: 1
EndChar

StartChar: comma
Encoding: 44 44 21
Width: 285
Flags: W
HStem: -200 263
VStem: 114 83<-110.709 46.2305>
LayerCount: 2
Fore
SplineSet
49 -191 m 0
 49 -178 64 -155 86 -137 c 1
 101 -101 113 -43 114 -10 c 0
 115 14 164 63 188 63 c 0
 193 63 197 60 197 54 c 0
 197 31 185 -53 156 -111 c 0
 127 -170 78 -200 58 -200 c 0
 51 -200 49 -196 49 -191 c 0
EndSplineSet
Validated: 1
EndChar

StartChar: plus
Encoding: 43 43 22
Width: 458
Flags: W
HStem: 182 99<269.3 385.781> 191 76<75.8801 189>
VStem: 184 77<63.7617 202 281 396.599>
LayerCount: 2
Fore
SplineSet
189 203 m 1xa0
 142 201 96 195 81 191 c 0
 69 188 64 194 64 202 c 0
 64 222 97 260 124 267 c 0x60
 137 270 160 273 189 276 c 1
 189 296 190 315 190 330 c 0
 190 400 256 413 257 413 c 0
 268 413 268 409 268 386 c 0
 268 359 267 321 267 281 c 1
 272 281 277 281 282 281 c 0
 392 281 393 257 393 248 c 0
 393 221 349 182 327 182 c 0
 307 182 338 197 266 202 c 1
 265 147 264 123 261 113 c 0
 254 87 216 51 194 51 c 0
 187 51 184 55 184 62 c 0
 184 63 187 81 189 203 c 1xa0
EndSplineSet
Validated: 1
EndChar

StartChar: asterisk
Encoding: 42 42 23
Width: 507
Flags: W
HStem: 34 374
VStem: 222 78<344 400.002>
LayerCount: 2
Fore
SplineSet
405 122 m 0
 405 99 365 59 342 59 c 0
 339 59 335 61 333 63 c 0
 332 64 325 76 294 114 c 1
 288 88 249 51 226 51 c 0
 220 51 216 52 216 59 c 0
 216 61 219 88 219 96 c 2
 219 96 219 104 220 148 c 1
 160 81 149 64 141 57 c 0
 126 41 111 34 101 34 c 0
 92 34 87 39 87 47 c 0
 87 63 114 97 209 202 c 1
 167 200 127 195 113 191 c 0
 111 191 109 191 107 191 c 0
 99 191 96 196 96 202 c 0
 96 219 124 260 159 268 c 1
 105 326 91 335 91 336 c 0
 88 338 87 342 87 345 c 0
 87 368 127 408 150 408 c 0
 161 408 195 372 222 344 c 1
 222 345 l 2
 222 369 265 413 289 413 c 0
 300 413 300 409 300 386 c 0
 300 364 300 333 300 300 c 1
 380 385 405 407 425 407 c 0
 433 407 437 402 437 393 c 0
 437 383 430 369 415 353 c 0
 413 351 403 346 341 281 c 1
 420 277 425 260 425 248 c 0
 425 223 386 187 364 183 c 1
 387 154 405 132 405 122 c 0
EndSplineSet
Validated: 1
EndChar

StartChar: parenright
Encoding: 41 41 24
Width: 358
Flags: W
HStem: 833 20G<159 173>
VStem: 212 75<157.601 659.114>
LayerCount: 2
Fore
SplineSet
125 -31 m 0
 116 -31 110 -26 110 -17 c 0
 110 -9 115 3 127 17 c 0
 210 117 212 369 212 373 c 0
 212 645 140 755 113 782 c 0
 111 784 110 788 110 791 c 0
 110 813 147 853 171 853 c 0
 175 853 179 851 182 848 c 0
 196 834 287 732 287 421 c 0
 287 167 188 -31 125 -31 c 0
EndSplineSet
Validated: 1
EndChar

StartChar: parenleft
Encoding: 40 40 25
Width: 358
Flags: W
HStem: 833 20G<207.5 243.5>
VStem: 76 75<159.567 656.249>
LayerCount: 2
Fore
SplineSet
76 401 m 0
 76 655 176 853 239 853 c 0
 248 853 253 848 253 839 c 0
 253 831 248 819 236 805 c 0
 153 705 151 453 151 449 c 0
 151 177 222 67 249 40 c 0
 252 37 253 34 253 30 c 0
 253 8 216 -31 192 -31 c 0
 171 -31 76 84 76 401 c 0
EndSplineSet
Validated: 1
EndChar

StartChar: quotesingle
Encoding: 39 39 26
Width: 432
Flags: W
HStem: 644 84<112.481 228.419>
VStem: 95 240
LayerCount: 2
Fore
SplineSet
173 728 m 0
 198 728 220 733 233 740 c 1
 241 752 247 768 253 786 c 0
 262 813 306 853 327 853 c 0
 332 853 335 851 335 845 c 0
 335 821 261 644 109 644 c 0
 100 644 95 645 95 653 c 0
 95 674 141 728 173 728 c 0
EndSplineSet
Validated: 1
EndChar

StartChar: ampersand
Encoding: 38 38 27
Width: 733
Flags: W
HStem: -29 74<152.075 332.051> 779 74<156.431 267.12>
VStem: 71 74<51.8711 229.718 623.247 766.54> 277 75<576.327 771.17>
LayerCount: 2
Fore
SplineSet
680 380 m 0
 689 380 694 375 694 366 c 0
 694 349 607 225 513 135 c 1
 612 -33 614 -100 614 -102 c 0
 614 -125 578 -163 553 -163 c 0
 526 -163 564 -135 442 74 c 1
 338 -5 247 -29 174 -29 c 0
 136 -29 71 -21 71 72 c 0
 71 162 130 293 196 438 c 1
 81 599 68 625 68 647 c 0
 68 780 185 853 254 853 c 0
 352 853 352 759 352 726 c 0
 352 677 347 643 277 486 c 1
 365 363 430 271 490 174 c 1
 603 285 634 380 680 380 c 0
222 45 m 0
 280 45 346 62 418 113 c 1
 361 206 293 302 232 388 c 1
 183 277 145 181 145 119 c 0
 145 52 190 45 222 45 c 0
205 779 m 0
 155 779 142 737 142 695 c 0
 142 694 l 1
 146 678 157 656 240 538 c 1
 277 626 277 649 277 677 c 0
 277 736 265 779 205 779 c 0
EndSplineSet
Validated: 1
EndChar

StartChar: percent
Encoding: 37 37 28
Width: 599
Flags: W
HStem: 35 81<356.5 449.965> 178 81<389.265 448.575> 292 81<118.5 212.082> 435 81<152.265 210.608> 553 20G<499 508>
VStem: 69 81<374.476 434.209> 213 82<373.981 463> 306 82<117.172 177.209> 451 81<116.981 206>
LayerCount: 2
Fore
SplineSet
451 124 m 0
 449 175 394 178 388 178 c 1
 388 170 l 2
 388 142 406 116 441 116 c 0
 451 116 451 116 451 124 c 0
380 35 m 0
 333 35 306 67 306 108 c 0
 306 178 383 259 448 259 c 0
 500 259 532 228 532 184 c 0
 532 120 456 35 380 35 c 0
213 381 m 0
 211 432 157 435 151 435 c 1
 151 432 150 430 150 427 c 0
 150 399 169 373 204 373 c 0
 214 373 213 373 213 381 c 0
142 292 m 0
 95 292 69 324 69 365 c 0
 69 435 146 516 211 516 c 0
 263 516 295 485 295 441 c 0
 295 377 218 292 142 292 c 0
82 11 m 0
 116 54 396 478 460 546 c 0
 477 565 494 573 504 573 c 0
 512 573 517 568 517 561 c 0
 517 552 510 539 496 523 c 0
 451 474 171 54 129 1 c 0
 113 -19 91 -33 78 -33 c 0
 62 -33 64 -12 82 11 c 0
EndSplineSet
Validated: 1
EndChar

StartChar: dollar
Encoding: 36 36 29
Width: 688
Flags: W
HStem: 262 67<197.071 265.706> 440 63<209.146 324> 451 69<400 523> 553 20G<383 392.5>
VStem: 62 69<142.291 211.24> 101 69<357.77 414.238> 320 75<94 236 329 440 512 559.077> 492 103<409.854 449.831> 557 69<115.541 181.839>
LayerCount: 2
Fore
SplineSet
492 390 m 0xb7
 492 405 514 426 523 451 c 1
 477 451 435 450 398 447 c 1
 397 408 397 362 396 316 c 1
 529 289 626 249 626 175 c 0
 626 162 605 46 384 27 c 1
 378 3 344 -29 322 -29 c 0
 314 -29 310 -25 310 -17 c 2
 310 -17 312 -5 314 24 c 1
 137 24 62 85 62 164 c 0
 62 189 101 221 120 221 c 0
 127 221 131 218 131 209 c 0xba80
 131 115 268 97 317 94 c 1
 318 140 319 197 320 253 c 1
 299 257 280 260 265 262 c 0
 173 276 101 294 101 349 c 0
 101 377 120 407 139 426 c 0
 158 445 197 482 325 503 c 1xd6
 327 551 377 573 389 573 c 0
 396 573 401 569 401 561 c 2
 401 561 401 550 400 512 c 1
 450 517 511 520 583 520 c 0
 595 520 595 510 595 507 c 0
 595 467 538 377 506 377 c 0
 499 377 492 382 492 390 c 0xb7
324 440 m 1xd6
 246 430 195 415 170 399 c 1
 170 398 170 396 170 395 c 0
 170 353 270 337 322 329 c 1
 323 370 323 409 324 440 c 1xd6
391 93 m 1
 485 97 537 117 557 131 c 1x9280
 556 183 476 215 395 236 c 1
 394 182 393 132 391 93 c 1
EndSplineSet
Validated: 1
EndChar

StartChar: numbersign
Encoding: 35 35 30
Width: 571
Flags: W
HStem: 132 71<213 301.406> 141 74<214.457 303 384 483.314> 251 77<88.7667 146> 269 71<224 329> 283 78<413.356 490.482> 443 20G<215 230>
VStem: 131 75<39.6892 121> 164 74<344.395 453.787> 288 81<-41.8503 138.959>
LayerCount: 2
Fore
SplineSet
369 11 m 0x0d80
 369 -12 328 -51 306 -51 c 0
 297 -51 288 -47 288 -5 c 0
 288 42 299 119 303 141 c 1x4d80
 269 138 234 135 208 132 c 1
 207 114 206 99 206 92 c 0
 206 68 167 29 143 29 c 0
 135 29 131 33 131 41 c 0
 131 52 132 83 135 121 c 1
 123 119 113 117 102 115 c 0
 84 106 73 109 73 121 c 0
 73 138 99 177 140 189 c 1
 142 218 144 239 146 259 c 1
 130 256 116 254 102 251 c 0
 84 242 73 245 73 257 c 0
 73 258 80 311 152 328 c 1xa680
 156 363 160 392 164 408 c 0
 171 433 204 463 226 463 c 0
 234 463 238 459 238 451 c 0
 238 450 233 435 224 340 c 1x1580
 261 345 305 349 346 353 c 1
 352 379 372 458 422 458 c 0
 430 458 435 454 435 446 c 0
 435 445 422 401 412 358 c 1
 441 360 465 361 481 361 c 0
 494 361 502 362 502 350 c 0
 502 339 494 323 479 308 c 0
 457 286 457 286 396 283 c 1
 392 263 388 241 384 220 c 1
 425 223 460 225 481 225 c 0
 494 225 502 226 502 214 c 0
 502 189 461 148 437 148 c 0
 406 148 407 148 373 146 c 1
 366 95 363 64 363 45 c 0
 363 14 369 21 369 11 c 0x0d80
329 279 m 1
 273 275 228 270 218 269 c 1
 216 247 215 224 213 203 c 1x9480
 244 207 280 212 316 215 c 1
 320 237 325 259 329 279 c 1
EndSplineSet
Validated: 1
EndChar

StartChar: quotedbl
Encoding: 34 34 31
Width: 413
Flags: W
HStem: 576 277
VStem: 84 81<588.374 755.286> 241 89<582.666 833.816>
LayerCount: 2
Fore
SplineSet
330 643 m 0
 330 622 293 576 267 576 c 0
 252 576 241 590 241 633 c 0
 241 682 255 747 255 780 c 0
 255 823 307 853 322 853 c 0
 333 853 333 845 333 837 c 0
 333 801 319 730 319 686 c 0
 319 647 330 654 330 643 c 0
165 646 m 0
 165 624 126 579 102 579 c 0
 92 579 84 587 84 610 c 0
 84 624 87 639 91 655 c 0
 103 705 128 764 138 795 c 0
 146 820 182 853 203 853 c 0
 210 853 214 849 214 842 c 0
 214 825 162 714 162 665 c 0
 162 647 165 655 165 646 c 0
EndSplineSet
Validated: 1
EndChar

StartChar: exclam
Encoding: 33 33 32
Width: 272
Flags: W
HStem: -56 125<93.3861 184.614> 833 20G<155 170>
VStem: 79 120<-43.5027 56.4252> 92 75<156.138 833.375>
LayerCount: 2
Fore
SplineSet
167 618 m 0xd0
 167 448 176 246 176 215 c 0
 176 188 137 152 114 152 c 0
 101 152 101 162 101 166 c 0
 101 170 92 434 92 573 c 0
 92 674 95 751 104 795 c 0
 109 820 144 853 166 853 c 0
 174 853 179 849 179 841 c 0
 179 839 167 801 167 618 c 0xd0
159 69 m 0
 182 69 199 51 199 28 c 0
 199 -7 156 -56 119 -56 c 0
 97 -56 79 -40 79 -15 c 0xe0
 79 21 122 69 159 69 c 0
EndSplineSet
Validated: 1
EndChar

StartChar: B
Encoding: 66 66 35
Width: 614
VWidth: 1748
Flags: W
HStem: -38 74<277.48 435.816> 779 74<173.749 449.08>
VStem: 80 73<-30.1499 381.126> 96 73<179.917 710> 450 74<702.383 767.843> 467 74<65.7215 237.577>
LayerCount: 2
Fore
SplineSet
524 803 m 0xe8
 524 721 437 621 267 470 c 1
 471 348 541 307 541 179 c 0
 541 59 427 -38 325 -38 c 0
 276 -38 217 -14 178 39 c 0
 176 42 175 45 175 48 c 0
 175 71 214 109 236 109 c 0
 240 109 243 108 246 105 c 0
 246 105 254 94 264 84 c 0
 300 48 346 36 373 36 c 0
 457 36 467 101 467 132 c 0xc4
 467 244 382 295 244 375 c 0
 224 388 202 400 179 414 c 0
 175 416 173 421 173 426 c 0
 173 436 181 452 195 465 c 0
 202 472 284 542 351 609 c 0
 445 703 450 733 450 753 c 1
 421 777 316 779 314 779 c 0
 263 779 210 771 166 753 c 1
 168 711 169 655 169 594 c 0xd8
 169 356 154 28 153 20 c 0
 152 -4 117 -39 94 -39 c 0
 85 -39 80 -34 80 -25 c 0
 80 -24 l 0xe0
 80 -18 96 306 96 547 c 0xd0
 96 624 94 676 92 710 c 1
 85 707 79 705 75 705 c 0
 66 705 62 711 62 719 c 0
 62 730 70 746 86 761 c 1
 85 770 83 774 82 777 c 0
 80 779 80 782 80 785 c 0
 80 808 118 845 140 845 c 0
 145 845 149 843 151 839 c 0
 156 831 158 822 160 810 c 1
 230 844 302 853 359 853 c 0
 360 853 524 853 524 803 c 0xe8
EndSplineSet
Validated: 1
EndChar

StartChar: C
Encoding: 67 67 36
Width: 782
Flags: W
HStem: -35 73<256.081 531.457> 779 74<428 714.321>
VStem: 58 74<173.198 531.009>
AnchorPoint: "top" 357 959 basechar 0
AnchorPoint: "bottom" 345 -1 basechar 0
LayerCount: 2
Fore
SplineSet
58 309 m 0
 58 814 495 849 709 853 c 0
 722 853 723 842 723 839 c 0
 723 817 689 779 663 779 c 0
 520 777 325 756 226 657 c 0
 151 582 132 460 132 355 c 0
 132 195 199 38 389 38 c 0
 544 38 674 133 712 133 c 0
 719 133 723 129 723 121 c 0
 723 105 704 78 681 66 c 0
 544 -5 432 -35 343 -35 c 0
 81 -35 58 218 58 309 c 0
EndSplineSet
Validated: 1
EndChar

StartChar: D
Encoding: 68 68 37
Width: 780
VWidth: 1748
Flags: W
HStem: -37 74<257.588 456.966> 779 74<220.249 462.577>
VStem: 79 73<-33.1499 39.3481 140 378.126 546.197 547.51 592.434 741.335 783 832.717> 95 73<140 660> 642 74<245.666 576.672>
LayerCount: 2
Fore
SplineSet
324 -37 m 0xe8
 230 -37 177 12 154 40 c 1
 153 26 153 18 152 17 c 0
 151 -7 116 -42 93 -42 c 0
 84 -42 79 -38 79 -28 c 0
 79 -28 79 -28 79 -27 c 0xe8
 79 -21 95 303 95 544 c 0xd8
 95 591 94 629 93 660 c 1
 81 650 69 644 60 644 c 0
 56 644 52 645 50 647 c 0
 47 650 46 654 46 657 c 0
 46 676 75 707 90 721 c 1
 87 756 83 769 81 773 c 0
 79 776 79 779 79 782 c 0
 79 805 117 842 139 842 c 0
 144 842 148 840 151 835 c 0
 153 831 158 823 162 783 c 1
 230 830 303 853 372 853 c 0
 555 853 716 700 716 443 c 0
 716 99 451 -37 324 -37 c 0xe8
642 396 m 0
 642 642 483 779 324 779 c 0
 269 779 214 762 166 728 c 1
 168 689 168 642 168 590 c 0xd8
 168 442 162 258 158 140 c 1
 168 147 178 151 186 151 c 0
 190 151 193 150 196 148 c 0
 199 144 205 121 234 92 c 0
 283 44 343 37 371 37 c 0
 453 37 642 105 642 396 c 0
EndSplineSet
Validated: 1
EndChar

StartChar: E
Encoding: 69 69 38
Width: 728
VWidth: 1748
Flags: W
HStem: 55 77<307.351 597.372> 395 73<518.523 631.815> 411 75<301.569 607.429> 773 80<302.555 692.889>
VStem: 85 75<45 319.198 766.907 839.717> 101 74<136.481 349.843 384 722.529>
AnchorPoint: "bottom" 121 1 basechar 0
AnchorPoint: "top" 400 958 basechar 0
LayerCount: 2
Fore
SplineSet
173 708 m 1xb8
 174 675 175 638 175 597 c 0
 175 530 173 456 172 384 c 1
 280 461 416 486 516 486 c 0xb4
 570 486 613 479 635 468 c 0
 640 465 642 461 642 456 c 0
 642 434 605 395 581 395 c 0xd4
 579 395 576 395 574 397 c 0
 557 405 517 411 468 411 c 0
 291 411 190 340 170 325 c 1
 167 201 162 91 160 45 c 1xb8
 271 93 432 132 597 132 c 0
 605 132 609 128 609 121 c 0
 609 96 567 55 542 55 c 0
 374 55 208 10 115 -33 c 0
 109 -35 105 -37 101 -37 c 0xb4
 89 -37 85 -27 85 -21 c 0
 85 -20 l 0xb8
 85 -15 101 310 101 551 c 0xb4
 101 730 92 772 87 780 c 0
 86 783 85 786 85 789 c 0
 85 812 123 849 145 849 c 0
 150 849 154 847 157 842 c 0
 166 827 169 785 170 766 c 1
 333 839 477 853 581 853 c 0
 614 853 643 851 667 850 c 0
 700 848 702 848 702 837 c 0
 702 812 662 773 638 773 c 0
 638 773 638 773 637 773 c 0
 545 777 545 777 530 777 c 0
 403 777 287 755 173 708 c 1xb8
EndSplineSet
Validated: 1
EndChar

StartChar: F
Encoding: 70 70 39
Width: 747
VWidth: 1748
Flags: W
HStem: 399 73<528.523 642.068> 415 75<309.996 617.907> 773 80<321.329 711.889>
VStem: 86 74<-22.8739 314.659 757.421 842.948> 102 74<140.481 349.49 381 714.89>
LayerCount: 2
Fore
SplineSet
175 701 m 1x70
 175 670 176 637 176 601 c 0
 176 532 174 455 173 381 c 1
 282 463 424 490 526 490 c 0x68
 580 490 623 482 645 472 c 0
 650 469 652 465 652 460 c 0
 652 438 616 399 592 399 c 0xa8
 589 399 587 399 584 400 c 0
 567 409 528 415 478 415 c 0
 367 415 250 384 178 327 c 0
 176 325 173 324 171 322 c 0
 166 165 160 33 160 28 c 0
 159 4 124 -31 100 -31 c 0
 92 -31 86 -27 86 -18 c 0
 86 -17 86 -17 86 -16 c 0x70
 86 -11 102 314 102 555 c 0x68
 102 734 93 776 88 784 c 0
 87 787 86 790 86 793 c 0
 86 816 124 852 146 852 c 0
 151 852 155 851 158 846 c 0
 161 841 168 829 172 757 c 1
 175 759 178 760 181 762 c 0
 347 839 494 853 600 853 c 0
 633 853 662 851 686 850 c 0
 720 848 721 848 721 837 c 0
 721 812 681 773 657 773 c 0
 657 773 657 773 656 773 c 0
 564 777 564 777 549 777 c 0
 415 777 293 753 175 701 c 1x70
EndSplineSet
Validated: 1
EndChar

StartChar: G
Encoding: 71 71 40
Width: 763
Flags: W
HStem: -13 74<279.251 451.156> 388 91<590.636 717.707> 779 74<426.527 713.321>
VStem: 56 74<219.345 531.766> 525 74<144.361 401.88>
AnchorPoint: "bottom" 330 29 basechar 0
AnchorPoint: "top" 366 958 basechar 0
LayerCount: 2
Fore
SplineSet
723 449 m 0
 723 427 686 388 662 388 c 0
 653 388 645 399 588 403 c 1
 595 364 599 331 599 300 c 0
 599 84 435 -13 332 -13 c 0
 233 -13 56 111 56 310 c 0
 56 819 506 850 708 853 c 0
 721 853 722 842 722 839 c 0
 722 817 688 779 662 779 c 0
 518 777 323 756 224 657 c 0
 148 581 130 458 130 357 c 0
 130 180 293 61 378 61 c 0
 507 61 525 186 525 253 c 0
 525 331 503 395 503 403 c 1
 355 392 273 336 249 317 c 0
 226 299 204 299 204 317 c 0
 204 370 383 479 596 479 c 0
 600 479 723 479 723 449 c 0
EndSplineSet
Validated: 1
EndChar

StartChar: H
Encoding: 72 72 41
Width: 770
VWidth: 1448
Flags: W
HStem: -31 76<506.5 643.813> 383 69<551 682.847> 833 20G<133 146.5>
VStem: 84 72<182 393.445 564.291 589.164 611.618 843.103> 100 74<189.623 820.189> 471 77<49.9646 369> 507 76<461.311 834.78>
AnchorPoint: "bottom" 660 42 basechar 0
AnchorPoint: "top" 338 960 basechar 0
LayerCount: 2
Fore
SplineSet
594 45 m 0xe4
 608 45 626 45 635 48 c 1
 653 70 674 83 687 83 c 0
 695 83 699 78 699 71 c 0
 699 63 694 52 686 41 c 0
 631 -31 580 -31 542 -31 c 0
 471 -31 471 196 471 265 c 0
 471 299 472 334 473 369 c 1
 336 334 216 249 158 26 c 0
 150 -7 114 -31 95 -31 c 0
 88 -31 83 -28 83 -20 c 0
 83 -18 83 -15 84 -12 c 0xf4
 92 18 100 550 100 556 c 0xe8
 100 735 91 777 86 785 c 0
 85 788 84 791 84 794 c 0
 84 817 122 853 144 853 c 0
 149 853 153 852 156 847 c 0xf0
 162 837 174 810 174 602 c 0
 174 466 169 300 164 182 c 1
 258 338 389 405 476 433 c 1
 485 593 502 742 507 783 c 0
 510 808 547 845 571 845 c 0
 578 845 583 841 583 833 c 0xea
 583 828 559 651 551 452 c 1
 591 460 636 464 688 464 c 0
 696 464 700 459 700 452 c 0
 700 427 660 388 636 388 c 0
 605 388 576 386 548 383 c 1
 548 361 548 341 548 321 c 0
 548 67 586 45 594 45 c 0xe4
EndSplineSet
Validated: 1
EndChar

StartChar: I
Encoding: 73 73 42
Width: 609
VWidth: 1748
Flags: W
HStem: -46 21G<41 52> 46 77<308.52 543.554> 776 77<316.627 543.554>
VStem: 244 73<98 744.481>
AnchorPoint: "bottom" 256 -2 basechar 0
AnchorPoint: "top" 272 961 basechar 0
LayerCount: 2
Fore
SplineSet
489 776 m 0
 429 776 370 770 314 761 c 1
 316 718 317 662 317 601 c 0
 317 428 309 209 305 98 c 1
 380 113 461 123 544 123 c 0
 552 123 555 119 555 112 c 0
 555 87 513 46 489 46 c 0
 425 46 361 39 302 29 c 1
 300 -1 263 -32 242 -32 c 0
 233 -32 228 -27 228 -18 c 0
 228 -17 l 2
 228 -17 228 -6 229 14 c 1
 108 -15 60 -46 44 -46 c 0
 38 -46 36 -42 36 -34 c 0
 36 7 100 44 232 80 c 1
 240 273 244 438 244 554 c 0
 244 656 241 714 237 746 c 1
 111 717 61 684 44 684 c 0
 38 684 36 687 36 696 c 0
 36 733 90 771 234 810 c 1
 242 825 266 851 285 851 c 0
 294 851 302 845 306 828 c 1
 381 843 462 853 544 853 c 0
 552 853 555 849 555 842 c 0
 555 817 513 776 489 776 c 0
EndSplineSet
Validated: 1
EndChar

StartChar: J
Encoding: 74 74 43
Width: 719
Flags: W
HStem: -51 75<216.982 370.456> 368 74<173.856 248.249> 777 76<408.53 688.101>
VStem: 83 75<85.0885 344.248> 421 75<102.916 538.566>
AnchorPoint: "bottom" 261 -16 basechar 0
AnchorPoint: "top" 308 958 basechar 0
LayerCount: 2
Fore
SplineSet
560 777 m 0
 512 777 460 776 406 772 c 1
 467 594 496 437 496 310 c 0
 496 19 341 -51 261 -51 c 0
 88 -51 83 146 83 168 c 0
 83 405 217 442 242 442 c 0
 254 442 258 437 258 429 c 0
 258 408 223 368 197 368 c 0
 174 368 158 282 158 216 c 0
 158 99 223 24 308 24 c 0
 334 24 356 31 368 43 c 0
 420 95 421 243 421 261 c 0
 421 390 390 561 316 761 c 1
 129 733 55 678 33 678 c 0
 27 678 25 682 25 691 c 0
 25 708 46 737 70 749 c 0
 237 834 436 853 611 853 c 0
 697 853 697 852 697 839 c 0
 697 814 658 776 634 776 c 0
 633 776 623 777 560 777 c 0
EndSplineSet
Validated: 1
EndChar

StartChar: K
Encoding: 75 75 44
Width: 966
Flags: W
HStem: -21 74<624.383 853.253> 779 74<592.969 743.656>
VStem: 86 73<-21.8342 141.897 607.574 843.948> 102 73<249 793.905>
LayerCount: 2
Fore
SplineSet
86 794 m 0xe0
 86 817 124 853 146 853 c 0
 150 853 153 852 156 849 c 0
 170 835 175 742 175 601 c 0xd0
 175 503 172 383 168 249 c 1
 334 685 550 853 738 853 c 0
 747 853 752 847 752 839 c 0
 752 815 716 779 692 779 c 0
 583 779 489 717 399 590 c 1
 399 579 l 2
 399 395 522 53 738 53 c 0
 780 53 823 57 849 68 c 1
 863 87 884 101 898 101 c 0
 910 101 912 91 912 87 c 0
 912 85 904 -21 692 -21 c 0
 468 -21 349 284 329 475 c 1
 232 294 174 86 159 23 c 0
 153 -1 122 -30 100 -30 c 0
 91 -30 86 -25 86 -15 c 0xe0
 86 -9 102 315 102 556 c 0xd0
 102 789 86 792 86 794 c 0xe0
EndSplineSet
Validated: 1
EndChar

StartChar: L
Encoding: 76 76 45
Width: 651
VWidth: 1748
Flags: W
HStem: 59 78<297.642 590.554> 833 20G<133 147.5>
VStem: 83 77<53 387.037 611.618 843.918> 101 73<99.7945 819.488>
LayerCount: 2
Fore
SplineSet
536 59 m 0xe0
 286 59 104 -32 94 -32 c 0
 84 -32 83 -24 83 -21 c 0xe0
 83 -15 101 243 101 556 c 0
 101 797 85 781 85 793 c 0
 85 817 121 853 145 853 c 0
 150 853 154 851 157 847 c 0
 163 837 174 810 174 602 c 0xd0
 174 400 163 133 160 53 c 1
 271 99 429 137 591 137 c 0
 599 137 602 132 602 125 c 0
 602 101 560 59 536 59 c 0xe0
EndSplineSet
Validated: 1
EndChar

StartChar: M
Encoding: 77 77 46
Width: 1125
VWidth: 1748
Flags: W
HStem: -23 76<873.5 1010.81> 494 74<383.221 593.042> 832 20G<133.5 146 930.5 941>
VStem: 83 74<-22.3818 388.126> 99 73<187.332 657.592> 838 77<57.7537 714.751>
LayerCount: 2
Fore
SplineSet
838 274 m 0xf4
 838 439 856 628 866 729 c 1
 772 631 608 494 438 494 c 0
 330 494 214 615 172 662 c 1
 172 643 172 622 172 601 c 0xec
 172 363 157 36 157 27 c 0
 155 3 121 -31 97 -31 c 0
 88 -31 83 -27 83 -18 c 0
 83 -17 83 -17 83 -17 c 0xf4
 83 -11 99 313 99 554 c 0xec
 99 710 92 762 87 779 c 1
 84 783 83 788 83 793 c 0
 83 821 123 852 144 852 c 0
 148 852 151 851 154 849 c 0
 156 846 195 772 276 691 c 0
 387 580 460 568 487 568 c 0
 697 568 884 816 886 820 c 0
 902 840 924 853 937 853 c 0
 945 853 949 849 949 841 c 0
 949 840 949 839 949 838 c 0
 927 651 915 470 915 329 c 0
 915 75 953 53 961 53 c 0
 975 53 993 53 1002 56 c 1
 1020 79 1041 91 1054 91 c 0
 1062 91 1066 86 1066 79 c 0
 1066 71 1061 60 1053 49 c 0
 998 -23 947 -23 909 -23 c 0
 838 -23 838 204 838 274 c 0xf4
EndSplineSet
Validated: 1
EndChar

StartChar: N
Encoding: 78 78 47
Width: 1020
VWidth: 1748
Flags: W
HStem: -31 74<621.631 780.463> 774 75<690.478 797.824> 833 20G<134 354>
VStem: 85 74<-22.9494 388.202> 101 74<187.917 765.629> 875 75<194.9 654.424>
AnchorPoint: "bottom" 688 1 basechar 0
AnchorPoint: "top" 498 960 basechar 0
LayerCount: 2
Fore
SplineSet
101 555 m 0xcc
 101 800 85 780 85 792 c 0
 85 817 122 853 146 853 c 0xb4
 562 853 391 43 719 43 c 0
 768 43 793 66 814 102 c 0
 872 198 875 341 875 375 c 0
 875 529 841 774 740 774 c 0
 686 774 656 708 621 708 c 0
 609 708 608 717 608 721 c 0
 608 756 714 849 788 849 c 0
 945 849 950 472 950 424 c 0
 950 143 812 -31 670 -31 c 0
 336 -31 465 671 171 767 c 1
 174 724 175 666 175 602 c 0xcc
 175 364 159 36 159 28 c 0
 158 4 123 -31 99 -31 c 0
 91 -31 85 -26 85 -17 c 0xd4
 85 -11 101 312 101 555 c 0xcc
EndSplineSet
Validated: 1
EndChar

StartChar: O
Encoding: 79 79 48
Width: 787
VWidth: 1748
Flags: W
HStem: -14 74<297.291 514.737> 779 74<317.974 486.602>
VStem: 56 74<237 533.74> 648 74<226.581 567.33>
AnchorPoint: "bottom" 393 20 basechar 0
AnchorPoint: "top" 405 959 basechar 0
LayerCount: 2
Fore
SplineSet
648 410 m 0
 648 543 537 779 387 779 c 0
 265 779 130 604 130 380 c 0
 130 225 262 60 426 60 c 0
 614 60 648 263 648 410 c 0
56 334 m 0
 56 636 280 853 434 853 c 0
 605 853 722 606 722 456 c 0
 722 84 503 -14 378 -14 c 0
 199 -14 56 159 56 334 c 0
EndSplineSet
Validated: 1
EndChar

StartChar: P
Encoding: 80 80 49
Width: 597
VWidth: 1748
Flags: W
HStem: 367 72<174 308.543> 777 75<173.638 419.417>
VStem: 86 86<-17.6602 364.391 730.052 763.671> 102 73<149.739 372.507 439 728.392> 484 75<568.8 718.27>
LayerCount: 2
Fore
SplineSet
102 556 m 0xd8
 102 642 100 696 97 730 c 1
 87 731 86 739 86 743 c 0
 86 749 89 757 93 764 c 1
 89 790 86 784 86 793 c 0
 86 817 122 853 146 853 c 0
 155 853 161 850 166 818 c 1
 221 843 275 852 324 852 c 0
 450 852 559 789 559 693 c 0
 559 531 374 389 172 367 c 1
 167 192 160 34 160 29 c 0
 159 5 124 -30 100 -30 c 0
 92 -30 86 -26 86 -16 c 0xe8
 86 -11 102 312 102 556 c 0xd8
273 777 m 0
 240 777 205 772 172 761 c 1xe8
 174 718 175 663 175 602 c 0xd8
 175 551 175 495 174 439 c 1
 242 439 484 475 484 643 c 0
 484 722 383 777 273 777 c 0
EndSplineSet
Validated: 1
EndChar

StartChar: Q
Encoding: 81 81 50
Width: 930
VWidth: 1748
Flags: W
HStem: -14 73<297.291 491.346 605.361 821.271> 249 70<344.853 405.548> 779 74<317.974 486.602>
VStem: 56 74<236.884 533.74> 648 74<226.277 567.33>
LayerCount: 2
Fore
SplineSet
882 94 m 0
 882 92 874 -13 662 -13 c 0
 601 -13 559 3 529 28 c 1
 476 -3 421 -14 378 -14 c 0
 199 -14 56 159 56 334 c 0
 56 636 280 853 434 853 c 0
 605 853 722 606 722 456 c 0
 722 276 671 160 604 88 c 1
 629 71 662 61 708 61 c 0
 750 61 793 64 819 75 c 1
 833 94 854 108 868 108 c 0
 880 108 882 98 882 94 c 0
570 120 m 1
 634 191 648 313 648 410 c 0
 648 543 537 779 387 779 c 0
 265 779 130 604 130 380 c 0
 130 225 262 59 426 59 c 0
 450 59 473 63 492 69 c 1
 455 122 441 187 407 221 c 0
 376 252 347 240 338 249 c 0
 335 252 334 255 334 259 c 0
 334 281 370 319 395 319 c 0
 509 319 508 196 570 120 c 1
EndSplineSet
Validated: 1
EndChar

StartChar: R
Encoding: 82 82 51
Width: 750
VWidth: 1748
Flags: W
HStem: -30 73<441.422 643.253> 777 75<172.473 413.417>
VStem: 85 74<-21.1499 257.562 730 768.562> 101 73<149.739 269 439 728.392> 478 75<571.404 718.27>
AnchorPoint: "bottom" 118 7 basechar 0
AnchorPoint: "top" 337 959 basechar 0
LayerCount: 2
Fore
SplineSet
101 556 m 0xd8
 101 642 99 696 96 730 c 1
 95 730 94 730 93 730 c 0
 81 730 80 739 80 743 c 0
 80 750 84 760 91 770 c 1
 88 789 85 785 85 793 c 0
 85 817 121 853 145 853 c 0
 153 853 160 850 165 820 c 1
 218 843 270 852 318 852 c 0
 444 852 553 789 553 693 c 0
 553 549 404 413 210 374 c 1
 308 220 421 43 528 43 c 0
 571 43 613 48 639 58 c 1
 653 78 674 91 688 91 c 0
 701 91 702 81 702 77 c 0
 702 75 694 -30 482 -30 c 0
 371 -30 274 104 168 269 c 1
 164 137 159 33 159 29 c 0
 157 5 123 -30 99 -30 c 0
 90 -30 85 -26 85 -16 c 0xe8
 85 -11 101 312 101 556 c 0xd8
267 777 m 0
 235 777 203 772 171 762 c 1
 173 720 174 664 174 602 c 0xd8
 174 551 174 495 173 439 c 1
 234 440 478 475 478 643 c 0
 478 722 377 777 267 777 c 0
EndSplineSet
Validated: 1
EndChar

StartChar: S
Encoding: 83 83 52
Width: 646
Flags: W
HStem: -39 74<81.9891 300.762> 779 74<393.345 590.99>
VStem: 103 74<449.672 603.179> 484 74<160.655 283.439> 523 87<734.083 778.755>
AnchorPoint: "bottom" 161 2 basechar 0
AnchorPoint: "top" 317 957 basechar 0
LayerCount: 2
Fore
SplineSet
186 35 m 0xf0
 278 35 484 109 484 215 c 0xf0
 484 390 103 264 103 471 c 0
 103 666 348 853 572 853 c 0
 583 853 610 846 610 816 c 0
 610 778 570 721 537 721 c 0
 528 721 523 725 523 734 c 0
 523 754 551 774 523 779 c 1xe8
 377 779 177 679 177 518 c 0
 177 343 558 465 558 263 c 0
 558 104 300 -39 141 -39 c 0
 53 -39 40 4 40 30 c 0
 40 56 79 91 101 91 c 0
 127 91 92 35 186 35 c 0xf0
EndSplineSet
Validated: 1
EndChar

StartChar: T
Encoding: 84 84 53
Width: 712
VWidth: 1748
Flags: W
HStem: 810 76<398.671 686.222>
VStem: 312 74<-8.94944 402.09> 328 74<182.293 793.763>
AnchorPoint: "bottom" 349 27 basechar 0
AnchorPoint: "top" 356 960 basechar 0
LayerCount: 2
Fore
SplineSet
312 -3 m 0xc0
 312 2 328 326 328 569 c 0
 328 730 321 780 316 795 c 1
 128 767 55 712 33 712 c 0
 27 712 24 716 24 725 c 0
 24 742 45 770 70 782 c 0
 237 867 435 886 610 886 c 0
 696 886 696 885 696 872 c 0
 696 848 657 810 633 810 c 0
 610 810 586 811 560 811 c 0
 509 811 453 809 396 804 c 1
 400 760 402 692 402 615 c 0xa0
 402 377 386 50 386 42 c 0
 385 18 350 -17 326 -17 c 0
 318 -17 312 -12 312 -3 c 0xc0
EndSplineSet
Validated: 1
EndChar

StartChar: U
Encoding: 85 85 54
Width: 910
VWidth: 1748
Flags: W
HStem: -23 74<193.267 346.209 695.578 787.279> 833 20G<670.5 684.5>
VStem: 64 75<112.858 521.614> 619 74<78.5493 402 556.731 843.624> 783 76<52.4182 112.646>
AnchorPoint: "bottom" 825.562 72 basechar 0
AnchorPoint: "top" 440.562 959 basechar 0
LayerCount: 2
Fore
SplineSet
64 263 m 0
 64 478 147 703 216 703 c 0
 225 703 231 698 231 689 c 0
 231 682 227 673 218 661 c 0
 174 602 139 447 139 308 c 0
 139 173 172 54 261 53 c 0
 262 53 263 53 264 53 c 0
 341 53 384 93 401 110 c 0
 577 287 619 787 619 794 c 0
 621 823 660 853 681 853 c 0
 688 853 693 849 693 840 c 0
 693 839 693 839 693 838 c 0
 693 833 683 669 683 490 c 0
 683 293 695 51 757 51 c 0
 766 51 775 55 783 59 c 0
 783 60 l 0
 783 85 821 121 843 121 c 0
 859 121 859 102 859 100 c 0
 859 57 786 -23 703 -23 c 0
 670 -23 613 -1 609 402 c 1
 490 26 303 -21 217 -21 c 0
 79 -21 64 178 64 263 c 0
EndSplineSet
Validated: 1
EndChar

StartChar: V
Encoding: 86 86 55
Width: 731
VWidth: 1748
Flags: W
HStem: -21 74<195.518 343.69> 833 20G<668 684.5>
VStem: 65 74<115.469 520.931> 620 74<596.086 844.351>
LayerCount: 2
Fore
SplineSet
65 263 m 0
 65 491 150 703 217 703 c 0
 235 703 235 683 218 661 c 0
 144 562 139 314 139 310 c 0
 139 173 174 54 261 53 c 0
 262 53 263 53 264 53 c 0
 341 53 384 93 401 110 c 0
 577 287 619 787 620 794 c 0
 622 819 656 853 680 853 c 0
 689 853 694 848 694 838 c 0
 671 535 541 -21 219 -21 c 0
 87 -21 65 149 65 263 c 0
EndSplineSet
Validated: 1
EndChar

StartChar: W
Encoding: 87 87 56
Width: 1338
VWidth: 1748
Flags: W
HStem: -30 73<193.616 301.171 892.902 1078.31> 217 74<490.696 632.588> 779 74<839.836 1052.84>
VStem: 66 74<106.066 512.358> 1197 74<205.476 590.394>
AnchorPoint: "bottom" 952 0 basechar 0
AnchorPoint: "top" 610 955 basechar 0
LayerCount: 2
Fore
SplineSet
218 694 m 0
 222 694 232 693 232 681 c 0
 232 658 209 652 182 572 c 0
 156 494 140 394 140 301 c 0
 140 194 159 50 263 43 c 1
 324 45 434 291 597 291 c 0
 731 291 838 43 995 43 c 0
 1185 43 1197 308 1197 376 c 0
 1197 574 1110 779 947 779 c 0
 834 779 742 711 726 662 c 0
 718 638 688 612 667 612 c 0
 659 612 654 616 654 625 c 0
 654 675 790 853 994 853 c 0
 1177 853 1271 637 1271 424 c 0
 1271 147 1120 -30 949 -30 c 0
 774 -30 668 217 548 217 c 0
 432 217 344 -30 215 -30 c 0
 171 -30 66 -3 66 254 c 0
 66 482 151 694 218 694 c 0
EndSplineSet
Validated: 1
EndChar

StartChar: X
Encoding: 88 88 57
Width: 935
Flags: W
HStem: -22 74<580.29 837.432> 832 20G<93.5 107 687 703>
VStem: 44 72<764.863 842.068>
LayerCount: 2
Fore
SplineSet
44 792 m 0
 44 816 83 852 104 852 c 0
 110 852 114 849 116 844 c 0
 174 708 244 544 324 400 c 1
 640 846 675 853 699 853 c 0
 707 853 711 848 711 841 c 0
 711 825 711 825 672 786 c 0
 609 723 399 427 349 357 c 1
 459 172 576 52 696 52 c 0
 861 52 838 89 870 89 c 0
 879 89 884 84 884 75 c 0
 884 72 880 -22 650 -22 c 4
 560 -21 395 104 291 274 c 1
 202 146 129 38 111 9 c 0
 98 -12 72 -34 54 -34 c 0
 47 -34 42 -30 42 -22 c 0
 42 -2 179 193 266 317 c 1
 156 509 44 787 44 792 c 0
EndSplineSet
Validated: 1
EndChar

StartChar: Y
Encoding: 89 89 58
Width: 740
Flags: W
HStem: 833 20G<104.5 119.5>
VStem: 44 82<668.499 837.449>
AnchorPoint: "bottom" 80 -2 basechar 0
AnchorPoint: "top" 407 958 basechar 0
LayerCount: 2
Fore
SplineSet
704 850 m 0
 712 850 716 846 716 839 c 0
 716 823 716 823 676 783 c 0
 585 692 171 97 115 6 c 0
 102 -15 77 -37 59 -37 c 0
 52 -37 46 -33 46 -25 c 0
 46 0 300 357 352 430 c 1
 69 448 44 693 44 780 c 0
 44 804 92 853 117 853 c 0
 122 853 126 851 126 845 c 0
 136 615 251 525 412 513 c 1
 632 817 677 850 704 850 c 0
EndSplineSet
Validated: 1
EndChar

StartChar: Z
Encoding: 90 90 59
Width: 844
VWidth: 1748
Flags: W
HStem: -26 74<506.538 737.253> -26 43<42.0576 53> 80 74<173.838 386.791> 708 73<41.5938 383.224> 833 20G<608.5 673.5>
AnchorPoint: "bottom" 599 11 basechar 0
AnchorPoint: "top" 385 958 basechar 0
LayerCount: 2
Fore
SplineSet
576 -26 m 0xb8
 456 -26 377 80 266 80 c 0
 155 80 92 -26 54 -26 c 0
 42 -26 41 -16 41 -12 c 0
 41 -4 45 7 53 17 c 2x78
 53 17 197 207 340 402 c 0
 453 557 567 717 603 779 c 1
 473 771 263 708 132 708 c 0
 126 708 40 708 40 736 c 0
 40 760 76 795 100 795 c 0
 111 795 118 781 178 781 c 0
 306 781 548 853 669 853 c 0
 678 853 685 847 685 837 c 0
 685 782 356 343 189 121 c 1
 235 145 275 154 312 154 c 0
 436 154 516 48 623 48 c 0
 665 48 707 52 733 63 c 1
 747 82 768 95 782 95 c 0
 795 95 796 86 796 82 c 0
 796 79 788 -26 576 -26 c 0xb8
EndSplineSet
Validated: 1
EndChar

StartChar: bracketleft
Encoding: 91 91 60
Width: 409
Flags: W
HStem: -32 80<173 353.339> 778 74<174 347.249>
VStem: 99 263<-25.4062 43.987 786.206 847.212> 99 74<44 778>
LayerCount: 2
Fore
SplineSet
362 30 m 0xe0
 362 8 324 -32 301 -32 c 0
 300 -32 291 -26 241 -26 c 0
 192 -26 129 -30 114 -31 c 0
 104 -32 99 -27 99 -18 c 2xe0
 100 791 l 2
 100 815 136 852 160 852 c 2
 343 853 l 2
 352 853 357 847 357 840 c 0
 357 818 322 779 296 779 c 2
 174 778 l 1
 173 44 l 1xd0
 203 46 248 48 286 48 c 0
 349 48 362 44 362 30 c 0xe0
EndSplineSet
Validated: 1
EndChar

StartChar: backslash
Encoding: 92 92 61
Width: 684
Flags: W
HStem: -32 75<551.014 629.855> 834 20G<94 107.5>
VStem: 41 75<783.001 842.095>
LayerCount: 2
Fore
SplineSet
576 -32 m 0
 536 -32 501 -10 464 27 c 0
 355 136 277 296 43 783 c 0
 42 785 41 787 41 790 c 0
 41 814 83 854 105 854 c 0
 110 854 114 852 116 847 c 0
 133 812 150 776 167 741 c 0
 326 408 500 43 627 43 c 0
 635 43 640 38 640 31 c 0
 640 6 600 -32 576 -32 c 0
EndSplineSet
Validated: 1
EndChar

StartChar: bracketright
Encoding: 93 93 62
Width: 406
Flags: W
HStem: -32 75<59.6784 234> 773 80<54.0814 235>
VStem: 51 258<-26.2119 38.2119 777.205 846.562> 234 75<43 777>
LayerCount: 2
Fore
SplineSet
46 792 m 0xd0
 46 814 84 853 107 853 c 0
 108 853 117 847 167 847 c 0
 216 847 279 852 294 853 c 0
 304 854 309 848 309 839 c 2
 309 30 l 2
 309 6 272 -31 248 -31 c 2
 65 -32 l 2
 56 -32 51 -26 51 -18 c 0xe0
 51 6 88 43 112 43 c 2
 234 43 l 1
 235 777 l 1
 205 775 160 773 122 773 c 0
 49 773 46 782 46 792 c 0xd0
EndSplineSet
Validated: 1
EndChar

StartChar: asciicircum
Encoding: 94 94 63
Width: 551
Flags: W
HStem: 594 82<105.272 169.859> 833 20G<280.5 300>
VStem: 95 361<610 667>
AnchorPoint: "top" 258 640 mark 0
LayerCount: 2
Fore
SplineSet
170 674 m 1
 194 713 216 771 224 795 c 0
 233 822 271 853 290 853 c 0
 310 853 330 759 382 707 c 0
 425 664 456 688 456 667 c 0
 456 645 416 600 387 600 c 0
 323 600 284 655 252 722 c 1
 202 625 150 594 119 594 c 0
 102 594 95 600 95 610 c 0
 95 634 136 676 161 676 c 0
 164 676 167 676 170 674 c 1
EndSplineSet
Validated: 1
EndChar

StartChar: underscore
Encoding: 95 95 64
Width: 748
Flags: W
HStem: -29 86<77.0535 545.912> -18 81<243.193 656.805>
VStem: 69 598<-11.671 45.6597>
LayerCount: 2
Fore
SplineSet
69 -6 m 0xa0
 69 15 108 57 132 57 c 0xa0
 145 57 140 46 238 46 c 0
 348 46 509 63 599 63 c 0
 667 63 667 53 667 46 c 0
 667 25 628 -18 603 -18 c 0x60
 602 -18 590 -13 550 -13 c 0
 464 -13 300 -29 187 -29 c 0
 69 -29 69 -12 69 -6 c 0xa0
EndSplineSet
Validated: 1
EndChar

StartChar: grave
Encoding: 96 96 65
Width: 360
Flags: W
HStem: 634 219<131.441 202.953>
VStem: 104 157<655.125 732.314> 104 131<716.501 831.613>
AnchorPoint: "top" 185 697 mark 0
LayerCount: 2
Fore
SplineSet
175 634 m 0xc0
 127 634 104 769 104 771 c 0
 104 794 162 853 186 853 c 0
 201 853 203 765 235 733 c 0xa0
 250 718 261 727 261 716 c 0
 261 696 210 634 175 634 c 0xc0
EndSplineSet
Validated: 1
EndChar

StartChar: a
Encoding: 97 97 66
Width: 783
VWidth: 1368
Flags: W
HStem: -22 74<191.501 373.792 565 663.368> 389 74<210.864 387.067 494.819 533.208>
VStem: 60 74<108.766 309.642> 486 125<398.364 457.063>
AnchorPoint: "bottom" 694 72 basechar 0
AnchorPoint: "top" 330 643 basechar 0
LayerCount: 2
Fore
SplineSet
134 227 m 0
 134 145 178 52 294 52 c 0
 369 52 426 88 478 194 c 1
 455 266 408 389 288 389 c 0
 212 389 134 340 134 227 c 0
499 389 m 0
 490 389 486 394 486 402 c 0
 486 439 546 473 583 473 c 0
 593 473 611 467 611 443 c 0
 611 411 594 323 556 237 c 1
 562 218 567 199 572 182 c 0
 597 92 612 53 638 53 c 0
 643 53 648 54 653 56 c 1
 667 93 700 108 713 108 c 0
 721 108 726 104 726 95 c 0
 726 61 659 -22 590 -22 c 0
 540 -22 525 30 497 130 c 1
 403 -3 299 -22 248 -22 c 0
 106 -22 60 85 60 181 c 0
 60 334 203 463 335 463 c 0
 455 463 505 365 524 323 c 1
 539 382 535 392 539 393 c 1
 536 396 536 396 534 398 c 0
 517 394 507 389 499 389 c 0
EndSplineSet
Validated: 1
EndChar

StartChar: b
Encoding: 98 98 67
Width: 672
Flags: W
HStem: -31 74<237.276 461.666> 388 74<210.957 485.974> 833 20G<166 184.5>
VStem: 81 74<128.107 352.981> 118 75<405.761 781 784.141 844.551> 526 74<103.512 348.933>
LayerCount: 2
Fore
SplineSet
323 388 m 0xf4
 183 388 155 333 155 235 c 0
 155 130 254 43 331 43 c 0
 354 43 454 45 493 84 c 0
 515 106 526 152 526 222 c 0
 526 330 509 388 323 388 c 0xf4
193 817 m 0xec
 193 765 187 689 165 392 c 1
 232 453 311 462 370 462 c 0
 574 462 600 393 600 265 c 0
 600 13 415 -31 283 -31 c 0
 238 -31 192 -10 155 24 c 1
 152 0 117 -34 94 -34 c 0
 86 -34 81 -29 81 -20 c 2
 81 187 l 2xf4
 81 242 118 674 118 771 c 2
 118 781 l 1
 119 784 l 1
 117 787 116 790 116 793 c 0
 116 816 155 853 177 853 c 0
 192 853 193 838 193 817 c 0xec
EndSplineSet
Validated: 1
EndChar

StartChar: c
Encoding: 99 99 68
Width: 650
Flags: W
HStem: -30 74<220.757 448.976> 388 75<245.885 497>
VStem: 55 74<131.501 311.717>
AnchorPoint: "top" 328 643 basechar 0
AnchorPoint: "bottom" 297 -1 basechar 0
LayerCount: 2
Fore
SplineSet
562 137 m 0
 571 137 576 131 576 123 c 0
 576 112 568 96 550 80 c 0
 486 23 417 -30 297 -30 c 0
 163 -30 55 64 55 187 c 0
 55 245 73 302 125 354 c 0
 216 445 359 463 564 463 c 0
 572 463 576 457 576 448 c 0
 576 415 517 317 476 317 c 0
 457 317 459 340 479 363 c 0
 488 374 493 382 497 388 c 1
 158 386 129 320 129 238 c 0
 129 126 231 44 345 44 c 0
 496 44 520 137 562 137 c 0
EndSplineSet
Validated: 1
EndChar

StartChar: d
Encoding: 100 100 69
Width: 660
Flags: W
HStem: -31 74<204.744 439.048> 388 73<272.075 496> 833 20G<545 561>
VStem: 49 74<127.546 299.662> 496 74<95.5194 388 461 843.686>
AnchorPoint: "bottom" 302 -0 basechar 0
AnchorPoint: "top" 282 642 basechar 0
LayerCount: 2
Fore
SplineSet
49 186 m 0
 49 237 69 290 117 338 c 0
 158 379 250 451 496 461 c 1
 496 792 l 2
 496 816 533 853 557 853 c 0
 565 853 570 849 570 840 c 2
 570 235 l 2
 570 200 567 118 498 49 c 0
 420 -29 319 -31 258 -31 c 0
 138 -31 49 81 49 186 c 0
298 43 m 0
 441 43 496 65 496 187 c 2
 496 388 l 1
 294 386 185 344 148 307 c 0
 132 291 123 264 123 235 c 0
 123 130 221 43 298 43 c 0
EndSplineSet
Validated: 1
EndChar

StartChar: e
Encoding: 101 101 70
Width: 658
Flags: W
HStem: -30 74<219.795 449.043> 197 75<225.355 480.322> 388 75<270.134 513.999>
VStem: 54 74<129.824 302.564> 514 75<306.176 440>
AnchorPoint: "bottom" 303 2 basechar 0
AnchorPoint: "top" 338 644 basechar 0
LayerCount: 2
Fore
SplineSet
344 44 m 0
 439 44 479 78 526 117 c 0
 542 130 555 135 563 135 c 0
 572 135 576 129 576 122 c 0
 576 109 564 90 547 76 c 0
 485 24 418 -30 296 -30 c 0
 154 -30 54 73 54 187 c 0
 54 239 74 293 122 341 c 0
 182 401 294 463 559 463 c 0
 568 463 589 463 589 417 c 0
 589 333 508 197 352 197 c 0
 297 197 243 213 196 232 c 0
 191 234 189 239 189 244 c 0
 189 265 220 304 251 304 c 0
 283 304 318 272 402 272 c 0
 493 272 514 322 514 369 c 0
 514 377 513 383 511 388 c 1
 291 388 187 343 154 310 c 0
 138 294 128 267 128 236 c 0
 128 133 224 44 344 44 c 0
EndSplineSet
Validated: 1
EndChar

StartChar: f
Encoding: 102 102 71
Width: 491
Flags: W
HStem: -846 73<34.0641 153.681> -21 104<283.1 437.717> 8 75<78.8721 187 281 383.859> 779 74<318.625 434.719>
VStem: 163 74<87.6693 642.171> 244 73<-625.049 -42.4812>
LayerCount: 2
Fore
SplineSet
77 52 m 0xbc
 117 62 153 70 187 75 c 1
 174 159 163 264 163 369 c 0
 163 532 190 695 282 787 c 0
 330 834 382 853 430 853 c 0
 440 853 444 848 444 840 c 0
 444 819 411 779 384 779 c 0
 351 779 267 779 242 534 c 0
 239 497 237 457 237 415 c 0
 237 312 248 198 268 83 c 1xbc
 276 83 284 83 292 83 c 0
 361 83 412 70 439 51 c 0
 442 48 444 44 444 39 c 0
 444 17 407 -21 384 -21 c 0xdc
 381 -21 378 -20 375 -18 c 0
 358 -6 326 5 281 8 c 1
 302 -110 317 -238 317 -358 c 0
 317 -530 286 -686 195 -777 c 0
 144 -827 89 -846 39 -846 c 0
 29 -846 25 -841 25 -834 c 0
 25 -813 57 -773 85 -773 c 0
 120 -773 207 -773 236 -541 c 0
 241 -496 244 -450 244 -403 c 0
 244 -281 227 -149 199 8 c 1
 107 0 59 -20 38 -20 c 0
 34 -20 31 -19 29 -17 c 0
 26 -14 25 -11 25 -7 c 0
 25 13 52 45 77 52 c 0xbc
EndSplineSet
Validated: 1
EndChar

StartChar: g
Encoding: 103 103 72
Width: 681
Flags: W
HStem: -846 73<222.959 379.176> -194 82<206.512 402.695> -30 73<202.918 390.246> 389 73<181.019 358.433 483.481 578>
VStem: 55 74<-648.865 -302.18 119.763 331.223> 505 73<-544.961 96.0796> 529 74<298.615 391>
AnchorPoint: "top" 303 643 basechar 0
AnchorPoint: "bottom" 320 -148 basechar 0
LayerCount: 2
Fore
SplineSet
410 -132 m 0xfc
 410 -153 375 -194 350 -194 c 0
 349 -194 317 -186 289 -186 c 0
 257 -186 223 -193 198 -218 c 0
 131 -285 129 -434 129 -452 c 0
 129 -610 194 -773 305 -773 c 0
 354 -773 380 -755 396 -739 c 0
 496 -639 505 -340 505 -240 c 0xfc
 505 -214 505 -215 504 -17 c 2
 504 -16 l 2
 504 18 500 57 492 98 c 1
 408 -13 311 -30 259 -30 c 0
 117 -30 57 93 57 188 c 0
 57 352 171 462 305 462 c 0
 415 462 482 372 518 296 c 1
 526 334 529 367 529 385 c 0
 529 387 529 389 529 391 c 2
 530 394 l 1
 525 398 521 399 520 399 c 0
 519 399 470 362 470 396 c 0
 470 427 529 473 568 473 c 0
 588 473 603 462 603 430 c 0xfa
 603 385 589 292 552 205 c 1
 575 124 578 112 578 -189 c 0
 578 -382 558 -530 511 -642 c 0
 450 -786 350 -846 259 -846 c 0
 126 -846 55 -673 55 -500 c 0
 55 -255 192 -112 334 -112 c 0
 360 -112 410 -114 410 -132 c 0xfc
131 234 m 0
 131 158 180 43 305 43 c 0
 381 43 433 78 475 164 c 1
 433 298 356 389 259 389 c 0
 204 389 131 375 131 234 c 0
EndSplineSet
Validated: 1
EndChar

StartChar: h
Encoding: 104 104 73
Width: 683
Flags: W
HStem: 388 74<323.607 451.231> 833 20G<143 159>
VStem: 94 74<186 843.686> 509 106<-26.6419 42.9473>
AnchorPoint: "bottom" 570 7 basechar 0
AnchorPoint: "top" 432 644 basechar 0
LayerCount: 2
Fore
SplineSet
155 853 m 0
 163 853 168 849 168 840 c 2
 168 186 l 1
 241 380 332 462 433 462 c 0
 620 462 561 85 603 43 c 1
 615 42 615 33 615 30 c 0
 615 8 580 -31 554 -31 c 0
 519 -31 516 18 509 110 c 0
 500 226 488 388 386 388 c 0
 345 388 326 369 319 362 c 0
 253 296 208 109 164 12 c 0
 154 -11 126 -34 107 -34 c 0
 99 -34 94 -30 94 -21 c 2
 94 792 l 2
 94 816 131 853 155 853 c 0
EndSplineSet
Validated: 1
EndChar

StartChar: j
Encoding: 106 106 75
Width: 629
VWidth: 1013
Flags: W
HStem: -849 74<189.177 345.873> -196 82<172.368 368.656> 548 125<115.386 206.908>
VStem: 21 74<-651.178 -302.376> 101 120<560.497 660.503> 471 73<-547.785 192.296>
LayerCount: 2
Fore
SplineSet
101 589 m 0
 101 624 144 673 181 673 c 0
 202 673 221 657 221 632 c 0
 221 597 179 548 142 548 c 0
 120 548 101 564 101 589 c 0
376 -135 m 0
 376 -157 341 -196 316 -196 c 0
 310 -196 288 -188 255 -188 c 0
 222 -188 188 -196 164 -221 c 0
 97 -288 95 -437 95 -454 c 0
 95 -613 161 -775 271 -775 c 0
 320 -775 346 -758 362 -742 c 0
 462 -641 471 -343 471 -242 c 0
 471 -217 471 -217 470 -19 c 0
 470 133 438 240 305 390 c 0
 302 393 301 396 301 400 c 0
 301 423 338 460 361 460 c 0
 365 460 369 459 372 456 c 0
 508 303 544 187 544 27 c 0
 544 -116 544 -189 544 -191 c 0
 544 -384 524 -533 477 -645 c 0
 417 -789 316 -849 225 -849 c 0
 92 -849 21 -675 21 -502 c 0
 21 -257 158 -114 300 -114 c 0
 308 -114 376 -115 376 -135 c 0
EndSplineSet
Validated: 1
EndChar

StartChar: k
Encoding: 107 107 76
Width: 661
Flags: W
HStem: -31 74<482.086 605.249> 442 20G<458 471> 833 20G<143 159>
VStem: 94 74<95 843.686> 322 74<129.059 294.072>
LayerCount: 2
Fore
SplineSet
477 450 m 0
 477 420 396 350 396 238 c 0
 396 120 496 43 602 43 c 0
 611 43 615 37 615 30 c 0
 615 8 580 -31 554 -31 c 0
 432 -31 322 53 322 190 c 0
 322 202 322 216 324 229 c 1
 156 2 l 2
 141 -18 120 -31 107 -31 c 0
 99 -31 94 -26 94 -17 c 2
 94 792 l 2
 94 816 131 853 155 853 c 0
 163 853 168 849 168 840 c 2
 168 95 l 1
 416 430 l 2
 430 449 451 462 465 462 c 0
 477 462 477 453 477 450 c 0
EndSplineSet
Validated: 1
EndChar

StartChar: l
Encoding: 108 108 77
Width: 353
Flags: W
HStem: -23 76<173.525 238.572> 833 20G<162.5 178>
VStem: 75 76<61.4873 714.945>
LayerCount: 2
Fore
SplineSet
303 79 m 0
 303 69 262 -23 157 -23 c 0
 153 -23 150 -23 146 -23 c 0
 75 -23 75 204 75 274 c 0
 75 485 104 736 110 792 c 0
 113 816 151 853 174 853 c 0
 182 853 186 849 186 841 c 0
 186 836 151 570 151 329 c 0
 151 75 190 53 198 53 c 0
 212 53 230 53 239 56 c 1
 256 79 278 91 291 91 c 0
 301 91 303 83 303 79 c 0
EndSplineSet
Validated: 1
EndChar

StartChar: m
Encoding: 109 109 78
Width: 1085
Flags: W
HStem: -28 165<63.4424 126.996> 389 74<688.993 820.606>
LayerCount: 2
Fore
SplineSet
797 463 m 0
 982 463 958 92 1002 48 c 0
 1005 45 1008 48 1013 43 c 0
 1016 40 1017 37 1017 33 c 0
 1017 11 982 -28 956 -28 c 0
 872 -28 920 389 749 389 c 0
 710 389 693 372 688 367 c 0
 599 278 577 -33 483 -33 c 0
 477 -33 471 -31 466 -26 c 0
 427 13 335 322 268 362 c 1
 234 278 223 103 195 37 c 0
 176 -8 138 -28 120 -28 c 0
 54 -28 53 66 53 76 c 0
 53 100 90 137 114 137 c 0
 122 137 127 133 127 124 c 1
 127 124 128 90 140 67 c 1
 184 308 184 308 206 355 c 0
 247 439 305 440 306 440 c 0
 362 440 412 322 472 173 c 0
 486 139 498 108 509 84 c 1
 563 258 632 463 797 463 c 0
EndSplineSet
Validated: 1
EndChar

StartChar: n
Encoding: 110 110 79
Width: 709
Flags: W
HStem: -30 165<63.4424 126.996>
VStem: 53 596<31 74>
AnchorPoint: "bottom" 600 8 basechar 0
AnchorPoint: "top" 376 645 basechar 0
LayerCount: 2
Fore
SplineSet
581 -33 m 0
 568 -33 559 -25 556 -22 c 0
 499 35 431 372 348 388 c 1
 273 287 222 -30 120 -30 c 0
 54 -30 53 64 53 74 c 0
 53 98 90 135 114 135 c 0
 122 135 127 131 127 122 c 2
 127 122 128 73 149 52 c 1
 160 76 175 119 188 155 c 0
 237 290 299 463 393 463 c 0
 506 463 574 80 627 43 c 1
 631 44 633 44 636 44 c 0
 645 44 649 39 649 31 c 0
 649 5 610 -33 581 -33 c 0
EndSplineSet
Validated: 1
EndChar

StartChar: o
Encoding: 111 111 80
Width: 652
Flags: W
HStem: -31 74<213.478 436.231> 389 74<188.21 461.974>
VStem: 57 74<127.714 335.528> 502 74<103.925 349.695>
AnchorPoint: "bottom" 313 -1 basechar 0
AnchorPoint: "top" 332 645 basechar 0
LayerCount: 2
Fore
SplineSet
576 266 m 0
 576 14 391 -31 259 -31 c 0
 163 -31 57 65 57 188 c 0
 57 227 60 312 132 384 c 0
 200 452 284 463 346 463 c 0
 550 463 576 394 576 266 c 0
299 389 m 0
 159 389 131 333 131 235 c 0
 131 130 229 43 306 43 c 0
 329 43 430 45 469 84 c 0
 491 106 502 152 502 222 c 0
 502 330 485 389 299 389 c 0
EndSplineSet
Validated: 1
EndChar

StartChar: p
Encoding: 112 112 81
Width: 661
Flags: W
HStem: -31 74<224.399 447.231> 389 74<198.989 472.974>
VStem: 68 74<126.496 335.325> 103 74<-786.562 -167.355> 513 74<103.925 349.695>
LayerCount: 2
Fore
SplineSet
142 232 m 1xe8
 144 128 241 43 317 43 c 0
 340 43 441 45 480 84 c 0
 502 106 513 152 513 222 c 0
 513 330 496 389 310 389 c 0
 169 389 142 332 142 236 c 2
 142 232 l 1xe8
587 266 m 0
 587 14 402 -31 270 -31 c 0
 229 -31 186 -13 151 16 c 1
 177 -432 177 -438 177 -552 c 0
 177 -659 170 -732 153 -775 c 0
 135 -820 100 -846 81 -846 c 0
 62 -846 64 -821 84 -798 c 1
 97 -764 103 -692 103 -600 c 0xd8
 103 -354 68 31 68 188 c 0
 68 228 71 312 143 384 c 0
 211 452 295 463 357 463 c 0
 561 463 587 394 587 266 c 0
EndSplineSet
Validated: 1
EndChar

StartChar: q
Encoding: 113 113 82
Width: 682
Flags: W
HStem: -846 21G<513 529> -30 73<201.918 389.246> 389 73<180.019 357.433 482.481 577>
VStem: 56 74<117.906 335.738> 504 74<-836.918 96.0796> 528 74<298.615 391>
LayerCount: 2
Fore
SplineSet
304 462 m 0xf8
 414 462 481 372 517 296 c 1
 525 334 528 367 528 385 c 0
 528 387 528 389 528 391 c 2
 529 394 l 1
 524 398 520 399 519 399 c 0
 518 399 469 362 469 396 c 0
 469 427 528 473 567 473 c 0
 587 473 602 462 602 430 c 0xf4
 602 385 588 292 551 205 c 1
 568 144 577 82 577 30 c 0
 577 -189 578 -378 578 -547 c 0
 578 -631 578 -711 577 -786 c 0
 577 -810 541 -846 517 -846 c 0
 509 -846 503 -841 503 -832 c 0
 503 -829 504 -777 504 -542 c 0
 504 -302 503 -21 503 -16 c 0
 503 18 499 57 491 98 c 1
 407 -13 310 -30 258 -30 c 0
 116 -30 56 93 56 188 c 0
 56 352 170 462 304 462 c 0xf8
130 234 m 0
 130 158 179 43 304 43 c 0
 380 43 432 78 474 164 c 1
 432 298 355 389 258 389 c 0
 203 389 130 375 130 234 c 0
EndSplineSet
Validated: 1
EndChar

StartChar: r
Encoding: 114 114 83
Width: 617
Flags: W
HStem: -30 165<63.4424 126.996> 320 74<454.69 557.072> 388 75<297.273 403.522>
VStem: 53 521
AnchorPoint: "bottom" 120 9 basechar 0
AnchorPoint: "top" 306 643 basechar 0
LayerCount: 2
Fore
SplineSet
483 320 m 0xd0
 428 320 389 380 311 388 c 1
 250 258 223 -30 120 -30 c 0
 54 -30 53 64 53 74 c 0
 53 98 90 135 114 135 c 0
 122 135 127 131 127 122 c 1
 127 122 128 78 146 56 c 1
 156 86 168 129 180 173 c 0
 219 315 241 389 285 433 c 0
 313 461 337 463 343 463 c 0xb0
 439 463 490 394 530 394 c 0
 532 394 533 395 535 395 c 0
 556 409 574 407 574 391 c 0
 574 363 528 320 483 320 c 0xd0
EndSplineSet
Validated: 1
EndChar

StartChar: s
Encoding: 115 115 84
Width: 661
Flags: W
HStem: -30 74<187.31 463.127> 388 75<227.668 498>
VStem: 56 75<94.7554 160.203> 102 75<235.5 353.11> 503 75<68.8785 160.449>
AnchorPoint: "bottom" 300 0 basechar 0
AnchorPoint: "top" 337 643 basechar 0
LayerCount: 2
Fore
SplineSet
346 44 m 0xe8
 406 44 467 62 503 85 c 1
 503 90 l 2
 503 116 502 132 486 148 c 0
 413 221 102 183 102 288 c 0
 102 329 132 363 145 376 c 0
 203 434 300 463 565 463 c 0
 574 463 577 457 577 448 c 0
 577 415 518 317 477 317 c 0
 459 317 460 340 480 363 c 0
 489 374 495 382 498 388 c 1
 391 387 234 381 178 346 c 1
 177 343 177 341 177 339 c 0xd8
 177 267 478 291 554 215 c 0
 575 194 578 175 578 122 c 0
 578 60 448 -30 298 -30 c 0
 166 -30 56 18 56 107 c 0
 56 131 93 169 117 169 c 0
 125 169 131 165 131 156 c 0
 131 91 225 44 346 44 c 0xe8
EndSplineSet
Validated: 1
EndChar

StartChar: t
Encoding: 116 116 85
Width: 617
Flags: W
HStem: -32 76<191.606 361.263> 344 123<56.5089 129.969 323.02 449.073> 344 77<213 435.153> 553 20G<231.5 245.5>
VStem: 95 76<60.3576 343.358>
AnchorPoint: "bottom" 226 -0 basechar 0
AnchorPoint: "top" 245 644 basechar 0
LayerCount: 2
Fore
SplineSet
47 399 m 0xb8
 47 421 89 464 112 464 c 0
 122 464 123 455 155 442 c 1
 165 475 174 502 180 519 c 0
 188 544 221 573 242 573 c 0
 249 573 254 569 254 561 c 0
 254 560 219 449 213 427 c 1
 236 423 262 421 287 421 c 0xb8
 422 421 482 467 502 467 c 0xd8
 507 467 510 463 510 455 c 0
 510 399 380 344 233 344 c 0
 220 344 206 344 193 345 c 1
 179 282 171 226 171 180 c 0
 171 96 197 44 255 44 c 0
 372 44 477 121 483 145 c 0
 490 172 526 202 546 202 c 0
 556 202 558 196 558 190 c 0
 558 126 387 -32 203 -32 c 0
 122 -32 95 37 95 127 c 0
 95 198 111 282 130 355 c 1
 96 363 47 383 47 399 c 0xb8
EndSplineSet
Validated: 1
EndChar

StartChar: u
Encoding: 117 117 86
Width: 725
Flags: W
HStem: -30 74<177.696 371.5 578.869 621.133> 443 20G<568 584.5>
VStem: 72 75<68.4519 405.45> 518 75<179.525 453.754>
AnchorPoint: "bottom" 632 53 basechar 0
AnchorPoint: "top" 359 643 basechar 0
LayerCount: 2
Fore
SplineSet
593 430 m 0
 593 427 577 245 577 139 c 0
 577 99 579 58 585 44 c 0
 588 44 590 45 592 45 c 0
 603 70 632 91 649 91 c 0
 659 91 663 84 663 76 c 0
 663 38 607 -30 532 -30 c 0
 515 -30 502 -20 502 92 c 0
 502 100 502 108 502 116 c 1
 395 -29 248 -30 189 -30 c 0
 188 -30 188 -30 187 -30 c 0
 85 -30 72 96 72 162 c 0
 72 228 83 311 108 406 c 0
 114 430 147 460 169 460 c 0
 177 460 182 456 182 447 c 0
 182 445 147 316 147 211 c 0
 147 104 180 44 235 44 c 0
 379 44 479 83 510 282 c 1
 514 347 518 399 518 404 c 0
 521 430 557 463 579 463 c 0
 590 463 593 459 593 430 c 0
EndSplineSet
Validated: 1
EndChar

StartChar: v
Encoding: 118 118 87
Width: 662
Flags: W
HStem: -30 74<176.252 369.727> 443 20G<568 584>
VStem: 72 75<68.4519 405.45> 518 75<218.313 453.686>
LayerCount: 2
Fore
SplineSet
518 402 m 0
 518 426 556 463 580 463 c 0
 588 463 593 459 593 450 c 0
 593 331 573 181 466 74 c 0
 362 -30 241 -30 187 -30 c 0
 85 -30 72 96 72 162 c 0
 72 228 83 311 108 406 c 0
 114 430 147 460 169 460 c 0
 177 460 182 456 182 447 c 0
 182 445 147 316 147 211 c 0
 147 104 180 44 235 44 c 0
 348 44 518 53 518 402 c 0
EndSplineSet
Validated: 1
EndChar

StartChar: w
Encoding: 119 119 88
Width: 1060
Flags: W
HStem: -37 75<179.919 304.252 673.057 838.916> 443 20G<156 171 952 967.5>
VStem: 71 75<70.2484 408.685> 414 75<287.083 427.686> 908 74<138.331 456.703>
AnchorPoint: "bottom" 734 0 basechar 0
AnchorPoint: "top" 449 644 basechar 0
LayerCount: 2
Fore
SplineSet
964 463 m 0
 971 463 976 460 977 452 c 0
 980 417 982 383 982 352 c 0
 982 50 819 -37 729 -37 c 0
 567 -37 477 166 461 204 c 1
 393 -15 228 -30 186 -30 c 0
 83 -30 71 101 71 165 c 0
 71 232 82 314 107 409 c 0
 113 433 145 463 167 463 c 0
 175 463 181 459 181 450 c 0
 181 448 146 321 146 215 c 0
 146 106 179 44 234 44 c 0
 317 44 355 80 382 152 c 0
 401 201 414 274 414 376 c 0
 414 400 452 437 476 437 c 0
 483 437 488 434 489 427 c 0
 529 173 666 38 777 38 c 0
 805 38 830 47 845 62 c 0
 905 122 908 272 908 306 c 0
 908 351 903 398 903 402 c 0
 903 425 940 463 964 463 c 0
EndSplineSet
Validated: 1
EndChar

StartChar: x
Encoding: 120 120 89
Width: 635
Flags: W
HStem: -30 74<63.314 181.281 405.118 540.454> 389 74<63.314 218.085 460.501 577.686>
VStem: 280 76<124.387 302.68>
LayerCount: 2
Fore
SplineSet
488 -30 m 0
 359 -30 298 26 284 101 c 1
 190 -25 86 -30 67 -30 c 0
 58 -30 54 -25 54 -17 c 0
 54 7 91 44 115 44 c 0
 211 44 280 154 280 239 c 0
 280 317 225 389 67 389 c 0
 58 389 54 394 54 402 c 0
 54 426 91 463 115 463 c 0
 265 463 335 403 351 325 c 1
 412 409 498 463 574 463 c 0
 583 463 587 458 587 450 c 0
 587 426 550 389 526 389 c 0
 424 389 356 269 356 184 c 0
 356 110 404 44 537 44 c 0
 546 44 550 39 550 31 c 0
 550 7 512 -30 488 -30 c 0
EndSplineSet
Validated: 1
EndChar

StartChar: y
Encoding: 121 121 90
Width: 696
Flags: W
HStem: -845 73<237.959 394.176> -193 82<221.775 417.695> -29 74<172.842 370.957> 443 20G<567 583>
VStem: 70 74<-647.865 -301.18 71.008 400.842> 519 74<-544.281 139 188.043 454.874>
AnchorPoint: "bottom" 343 -152 basechar 0
AnchorPoint: "top" 345 643 basechar 0
LayerCount: 2
Fore
SplineSet
425 -131 m 0
 425 -152 390 -193 365 -193 c 0
 364 -193 332 -185 303 -185 c 0
 271 -185 237 -192 212 -217 c 0
 145 -284 144 -433 144 -451 c 0
 144 -609 209 -772 320 -772 c 0
 369 -772 395 -754 411 -738 c 0
 511 -638 520 -339 520 -239 c 0
 520 -213 520 -214 519 -16 c 1
 519 139 l 1
 413 -29 248 -29 188 -29 c 0
 81 -29 69 105 69 163 c 0
 69 230 81 313 109 409 c 0
 116 433 147 460 168 460 c 0
 176 460 182 455 182 446 c 0
 182 444 143 315 143 210 c 0
 143 104 178 45 234 45 c 0
 339 45 519 47 519 404 c 0
 519 428 555 463 579 463 c 0
 587 463 593 459 593 450 c 2
 593 -188 l 2
 593 -381 573 -529 526 -641 c 0
 465 -785 365 -845 274 -845 c 0
 141 -845 70 -672 70 -499 c 0
 70 -254 207 -111 349 -111 c 0
 375 -111 425 -113 425 -131 c 0
EndSplineSet
Validated: 1
EndChar

StartChar: z
Encoding: 122 122 91
Width: 649
Flags: W
HStem: -845 74<204.959 361.712> -193 83<188.512 384.36> 7 73<219.409 485.978> 389 74<85.3966 462.384>
VStem: 37 74<-647.661 -301.064> 486 74<-544.281 3.21136 231.718 361.317>
LayerCount: 2
Fore
SplineSet
392 -131 m 0
 392 -152 357 -193 332 -193 c 0
 331 -193 299 -185 271 -185 c 0
 239 -185 205 -192 180 -217 c 0
 113 -284 111 -433 111 -451 c 0
 111 -609 176 -771 287 -771 c 0
 336 -771 362 -754 378 -738 c 0
 478 -638 487 -339 487 -239 c 0
 487 -215 486 -154 486 -15 c 0
 482 5 421 7 392 7 c 0
 305 7 174 -11 57 -29 c 0
 56 -29 54 -29 53 -29 c 0
 44 -29 39 -23 39 -15 c 0
 39 5 66 38 92 44 c 0
 486 142 486 266 486 306 c 0
 486 377 383 389 252 389 c 0
 169 389 104 387 103 387 c 0
 75 387 75 390 75 400 c 0
 75 422 109 460 135 460 c 0
 137 460 259 463 300 463 c 0
 448 463 560 448 560 352 c 0
 560 209 415 113 347 76 c 1
 381 79 410 80 436 80 c 0
 478 80 560 78 560 34 c 0
 560 33 560 33 560 32 c 1
 560 -187 l 2
 560 -380 540 -529 493 -641 c 0
 432 -785 332 -845 241 -845 c 0
 108 -845 37 -672 37 -499 c 0
 37 -254 174 -110 316 -110 c 0
 321 -110 392 -110 392 -131 c 0
EndSplineSet
Validated: 1
EndChar

StartChar: braceleft
Encoding: 123 123 92
Width: 324
Flags: W
HStem: -83 74<150.091 240.686> 336 102<100.764 161.775> 779 74<155.331 240.686>
VStem: 69 74<0.763607 133.812 646.335 776.284> 74 182<-70.3829 -7.76172 336.051 371.313>
LayerCount: 2
Fore
SplineSet
79 705 m 0xe8
 79 785 144 853 234 853 c 0
 240 853 250 853 250 840 c 0
 250 815 213 779 189 779 c 0
 173 779 162 777 155 775 c 1
 153 768 153 761 153 753 c 0
 153 650 256 515 256 484 c 0
 256 447 220 408 189 386 c 1
 240 357 256 331 256 308 c 0xe8
 256 262 143 150 143 58 c 0
 143 18 168 -9 237 -9 c 0
 246 -9 250 -14 250 -22 c 0
 250 -46 213 -83 189 -83 c 0
 96 -83 69 -40 69 10 c 0xf0
 69 95 143 205 182 262 c 1
 179 298 84 336 83 336 c 0
 76 337 74 343 74 349 c 0
 74 367 97 398 125 408 c 0
 160 421 181 438 182 438 c 1
 181 448 79 597 79 705 c 0xe8
EndSplineSet
Validated: 1
EndChar

StartChar: bar
Encoding: 124 124 93
Width: 269
Flags: W
HStem: 833 20G<147 162>
VStem: 96 81<-82.3442 845.517>
LayerCount: 2
Fore
SplineSet
103 46 m 0
 103 214 91 494 91 664 c 0
 91 729 92 778 97 798 c 0
 103 822 136 853 158 853 c 0
 166 853 171 849 171 840 c 0
 171 839 165 828 165 722 c 0
 165 707 177 89 177 83 c 0
 177 -43 170 -51 149 -72 c 0
 135 -86 120 -94 110 -94 c 0
 102 -94 96 -90 96 -81 c 0
 96 -80 103 -25 103 46 c 0
EndSplineSet
Validated: 1
EndChar

StartChar: braceright
Encoding: 125 125 94
Width: 332
Flags: W
HStem: -83 74<88.314 184.574> 779 74<88.3871 166.407>
VStem: 73 74<443.025 516.032> 186 74<-4.55023 121.644 636.789 764.817>
LayerCount: 2
Fore
SplineSet
260 58 m 0
 260 0 213 -83 92 -83 c 0
 83 -83 79 -78 79 -70 c 0
 79 -46 116 -9 140 -9 c 0
 161 -9 176 -6 185 -3 c 1
 186 1 186 5 186 10 c 0
 186 104 73 225 73 261 c 0
 73 308 130 351 140 359 c 1
 90 386 73 412 73 437 c 0
 73 476 176 602 176 706 c 0
 176 768 132 779 94 779 c 2
 92 779 l 2
 83 779 79 784 79 792 c 0
 79 814 112 853 142 853 c 0
 236 853 251 795 251 754 c 0
 251 655 165 513 147 484 c 1
 149 442 256 416 256 397 c 0
 256 378 231 347 205 338 c 0
 197 335 169 323 148 307 c 1
 151 290 260 159 260 58 c 0
EndSplineSet
Validated: 1
EndChar

StartChar: asciitilde
Encoding: 126 126 95
Width: 560
Flags: W
HStem: 705 78<313.921 410.162> 775 78<152.249 253.859>
VStem: 103 357<776.34 782.553>
AnchorPoint: "top" 270 774 mark 0
LayerCount: 2
Fore
SplineSet
460 807 m 0xa0
 460 777 378 705 322 705 c 0xa0
 264 705 232 775 186 775 c 0
 174 775 163 770 151 759 c 0
 127 738 103 733 103 750 c 0
 103 784 188 853 243 853 c 0x60
 305 853 335 783 379 783 c 0
 405 783 430 819 448 819 c 0
 453 819 460 815 460 807 c 0xa0
EndSplineSet
Validated: 1
EndChar

StartChar: exclamdown
Encoding: 161 161 97
Width: 270
Flags: W
HStem: 724 125<86.0915 176.908>
VStem: 72 119<736.665 836.567> 103 75<-40.375 637.598>
LayerCount: 2
Fore
SplineSet
103 175 m 0xa0
 103 345 94 547 94 578 c 0
 94 605 133 642 156 642 c 0
 169 642 169 632 169 628 c 0
 169 624 178 360 178 221 c 0
 178 120 175 42 166 -2 c 0
 161 -27 126 -60 104 -60 c 0
 96 -60 91 -55 91 -47 c 0
 91 -45 103 -8 103 175 c 0xa0
151 849 m 0
 173 849 191 833 191 809 c 0
 191 774 149 724 112 724 c 0
 91 724 72 740 72 765 c 0xc0
 72 800 114 849 151 849 c 0
EndSplineSet
Validated: 1
EndChar

StartChar: cent
Encoding: 162 162 98
Width: 469
Flags: W
HStem: 105 118<294.765 342.336> 553 20G<280 294.5>
VStem: 70 76<204.459 358.124>
LayerCount: 2
Fore
SplineSet
416 354 m 0
 416 331 375 290 352 290 c 0
 348 290 345 292 343 294 c 2
 343 294 332 313 317 328 c 0
 288 357 249 372 214 372 c 0
 179 372 162 358 162 358 c 2
 162 357 146 340 146 294 c 0
 146 207 211 175 266 175 c 0
 338 175 336 223 374 223 c 0
 382 223 386 219 386 212 c 0
 386 186 334 125 262 105 c 1
 256 67 248 29 248 29 c 2
 243 4 208 -29 185 -29 c 0
 178 -29 173 -25 173 -17 c 0
 173 -15 174 -14 174 -12 c 2
 174 -12 188 61 193 100 c 1
 76 114 70 221 70 242 c 0
 70 353 153 419 208 438 c 1
 217 477 228 517 228 517 c 2
 235 542 269 573 291 573 c 0
 298 573 303 569 303 561 c 0
 303 559 303 557 302 554 c 2
 302 554 285 489 276 447 c 1
 372 441 416 364 416 354 c 0
EndSplineSet
Validated: 1
EndChar

StartChar: sterling
Encoding: 163 163 99
Width: 605
Flags: W
HStem: -27 74<87 178.183> 232 87<150.574 242> 241 81<332 461.499> 389 75<403 477.994> 409 109<232.858 311.955> 498 75<404.311 502.5>
VStem: 63 75<5.04497 127.002>
LayerCount: 2
Fore
SplineSet
470 303 m 0xb6
 470 282 433 241 408 241 c 0xb6
 400 241 395 247 365 247 c 0
 347 247 327 244 305 240 c 1
 294 211 284 183 272 156 c 1
 298 127 322 90 345 67 c 0
 369 43 381 49 386 44 c 0
 388 42 389 39 389 35 c 0
 389 13 354 -28 326 -28 c 0
 298 -28 270 6 224 64 c 1
 182 -1 134 -27 103 -27 c 0
 71 -27 63 4 63 37 c 0
 63 129 134 203 192 203 c 0
 205 203 217 199 227 194 c 1
 232 207 237 220 242 233 c 1
 237 233 231 232 226 232 c 0
 225 232 143 232 143 255 c 0
 143 277 181 319 205 319 c 0
 212 319 236 307 270 307 c 1
 283 342 297 377 312 409 c 1
 273 423 233 444 231 446 c 0
 229 448 227 452 227 456 c 0
 227 478 267 518 290 518 c 0xca
 300 518 304 509 357 488 c 1
 390 535 436 573 484 573 c 0
 521 573 555 549 555 510 c 0
 555 465 502 389 408 389 c 0
 393 389 378 391 364 394 c 1
 353 369 343 341 332 312 c 1
 369 318 395 322 417 322 c 0
 430 322 470 320 470 303 c 0xb6
151 47 m 0
 163 47 182 88 189 103 c 1
 173 118 157 127 145 128 c 1
 140 115 138 100 138 87 c 0
 138 67 144 47 151 47 c 0
403 472 m 1
 423 467 440 464 456 464 c 0
 464 464 472 466 479 467 c 1
 474 490 450 498 433 498 c 0
 423 498 419 498 403 472 c 1
EndSplineSet
Validated: 1
EndChar

StartChar: currency
Encoding: 164 164 100
Width: 601
Flags: W
HStem: 142 74<243.762 384.111> 411 75<225.302 371.975> 553 20G<513.5 526>
VStem: 134 75<249.298 403.172> 402 75<232.692 381.078>
LayerCount: 2
Fore
SplineSet
376 172 m 1
 338 148 301 142 274 142 c 0
 241 142 214 152 193 168 c 1
 139 121 123 61 83 61 c 0
 75 61 69 65 69 74 c 0
 69 98 127 167 163 200 c 1
 145 226 134 261 134 297 c 0
 134 331 144 367 167 400 c 1
 132 437 98 498 98 498 c 2
 97 500 96 503 96 506 c 0
 96 529 136 568 158 568 c 0
 162 568 166 566 168 564 c 0
 169 563 205 497 238 464 c 1
 266 479 297 486 326 486 c 0
 361 486 393 477 416 462 c 1
 443 493 470 535 470 535 c 1
 482 554 505 573 522 573 c 0
 530 573 536 569 536 560 c 0
 536 533 450 432 449 431 c 0
 468 406 477 377 477 345 c 0
 477 310 465 273 444 240 c 1
 490 189 518 139 518 139 c 2
 519 137 520 135 520 132 c 0
 520 109 480 70 458 70 c 0
 442 70 436 106 376 172 c 1
209 346 m 0
 209 285 249 216 324 216 c 0
 390 216 402 257 402 294 c 0
 402 360 356 411 279 411 c 0
 220 411 209 393 209 346 c 0
EndSplineSet
Validated: 1
EndChar

StartChar: yen
Encoding: 165 165 101
Width: 547
Flags: W
HStem: 49 99<126.736 235.597 317.162 429.625> 185 99<126.736 234.75 315.254 429.625> 206 74<169.618 237> 553 20G<468 492>
VStem: 238 76<-17.9754 69 148 205 284 324.781>
LayerCount: 2
Fore
SplineSet
51 509 m 0xb8
 51 533 93 570 114 570 c 0
 119 570 123 567 125 562 c 0
 141 516 267 395 285 378 c 1
 314 408 348 433 381 466 c 0
 436 521 448 573 488 573 c 0
 496 573 501 568 501 560 c 0
 501 506 315 346 314 345 c 0
 313 341 312 317 312 284 c 1
 317 284 322 284 327 284 c 0
 437 284 437 260 437 251 c 0
 437 224 394 185 372 185 c 0xd8
 352 185 383 200 312 205 c 1
 312 186 313 167 313 148 c 1
 327 148 l 2
 437 148 437 124 437 115 c 0
 437 88 394 49 372 49 c 0
 352 49 383 64 314 69 c 1
 314 35 l 2
 314 11 277 -27 252 -27 c 0
 239 -27 239 -27 238 70 c 1
 190 68 141 62 126 58 c 0
 114 55 109 61 109 69 c 0
 109 89 142 127 169 134 c 0
 182 137 207 141 237 144 c 1
 237 206 l 1
 189 204 141 198 126 194 c 0
 114 191 109 197 109 205 c 0
 109 225 142 263 169 270 c 0
 182 273 207 277 238 280 c 0
 238 284 239 286 239 289 c 0
 220 307 51 465 51 509 c 0xb8
EndSplineSet
Validated: 1
EndChar

StartChar: brokenbar
Encoding: 166 166 102
Width: 268
Flags: W
HStem: 833 20G<147 162>
VStem: 102 74<-10.0617 291.387 494.938 796.387>
LayerCount: 2
Fore
SplineSet
102 540 m 0
 102 602 93 685 93 745 c 0
 93 766 94 784 97 797 c 0
 102 821 136 853 158 853 c 0
 166 853 171 849 171 840 c 0
 171 838 170 836 170 834 c 0
 168 826 168 812 168 796 c 0
 168 739 176 644 176 587 c 0
 176 535 169 514 149 494 c 0
 135 480 119 473 109 473 c 0
 101 473 96 478 96 486 c 0
 96 491 102 501 102 540 c 0
102 35 m 0
 102 97 93 180 93 240 c 0
 93 261 94 279 97 292 c 0
 102 316 136 348 158 348 c 0
 166 348 171 344 171 335 c 0
 171 333 170 331 170 329 c 0
 168 321 168 307 168 291 c 0
 168 234 176 139 176 82 c 0
 176 30 169 9 149 -11 c 0
 135 -25 119 -32 109 -32 c 0
 101 -32 96 -27 96 -19 c 0
 96 -14 102 -4 102 35 c 0
EndSplineSet
Validated: 1
EndChar

StartChar: section
Encoding: 167 167 103
Width: 427
Flags: W
HStem: 276 74<171.919 286.289> 472 74<141.543 257.797> 833 20G<321 360>
VStem: 57 75<389.883 471.999> 298 74<353.121 431.639>
LayerCount: 2
Fore
SplineSet
298 352 m 1
 296 421 234 472 158 472 c 0
 149 472 141 471 132 470 c 1
 134 401 195 350 271 350 c 0
 280 350 289 351 298 352 c 1
62 -18 m 0
 62 1 89 34 115 42 c 1
 147 62 253 173 287 285 c 1
 265 279 244 276 223 276 c 0
 128 276 57 338 57 425 c 0
 57 610 288 853 354 853 c 0
 366 853 367 844 367 840 c 0
 367 820 339 787 313 780 c 1
 286 767 175 655 141 537 c 1
 164 543 186 546 207 546 c 0
 302 546 372 484 372 397 c 0
 372 214 136 -31 75 -31 c 0
 63 -31 62 -21 62 -18 c 0
EndSplineSet
Validated: 1
EndChar

StartChar: dieresis
Encoding: 168 168 104
Width: 483
Flags: W
HStem: 728 125<121.386 212.614 276.959 368.875>
VStem: 107 120<740.894 840.425> 261 120<737.665 837.789>
AnchorPoint: "top" 240 766 mark 0
LayerCount: 2
Fore
SplineSet
261 766 m 0
 261 801 304 851 341 851 c 0
 362 851 381 835 381 810 c 0
 381 775 339 725 302 725 c 0
 280 725 261 741 261 766 c 0
187 853 m 0
 210 853 227 835 227 812 c 0
 227 777 184 728 147 728 c 0
 124 728 107 745 107 769 c 0
 107 805 150 853 187 853 c 0
EndSplineSet
Validated: 1
EndChar

StartChar: copyright
Encoding: 169 169 105
Width: 662
Flags: W
HStem: -35 58<238.096 436.82> 75 59<301.284 417.975> 288 60<260.427 358.722> 405 58<236.179 428.48>
VStem: 80 58<123.735 306.553> 197 60<177.189 285.688> 527 58<113.574 304.859>
LayerCount: 2
Fore
SplineSet
460 268 m 0
 460 251 427 216 409 216 c 0
 400 216 351 288 281 288 c 0
 274 288 268 287 262 285 c 1
 258 273 257 259 257 253 c 0
 257 170 333 134 386 134 c 0
 396 134 405 136 412 138 c 1
 433 161 457 168 457 154 c 0
 457 134 418 75 342 75 c 0
 276 75 197 118 197 210 c 0
 197 292 266 348 325 348 c 0
 398 348 460 277 460 268 c 0
318 -35 m 0
 162 -35 80 73 80 190 c 0
 80 322 187 463 359 463 c 0
 505 463 585 353 585 235 c 0
 585 102 482 -35 318 -35 c 0
527 195 m 0
 527 303 456 405 321 405 c 0
 187 405 138 320 138 231 c 0
 138 132 204 23 356 23 c 0
 510 23 527 142 527 195 c 0
EndSplineSet
Validated: 1
EndChar

StartChar: ordfeminine
Encoding: 170 170 106
Width: 465
Flags: W
HStem: 476 59<68.125 414.448> 564 59<195.899 256.015 340.284 365.637> 796 57<275.492 299.298>
VStem: 89 60<670.445 779.551> 320 60<679.86 784.632>
LayerCount: 2
Fore
SplineSet
328 463 m 0
 276 463 201 476 132 476 c 0
 84 476 70 469 62 469 c 0
 57 469 54 473 54 478 c 0
 54 493 77 521 98 527 c 0
 119 533 146 535 175 535 c 0
 246 535 328 522 373 522 c 0
 384 522 393 523 399 525 c 0
 403 527 405 527 408 527 c 0
 414 527 418 524 418 518 c 0
 418 517 414 463 328 463 c 0
315 679 m 1
 319 692 320 706 320 719 c 0
 320 745 313 769 300 782 c 0
 285 797 272 792 268 796 c 0
 267 797 266 799 266 802 c 0
 266 818 291 853 321 853 c 0
 353 853 380 815 380 762 c 0
 380 724 367 681 340 644 c 1
 346 637 356 626 365 623 c 0
 366 623 l 0
 372 623 375 620 375 615 c 0
 375 599 347 564 323 564 c 0
 309 564 297 576 284 591 c 1
 258 575 232 568 207 568 c 0
 126 568 89 668 89 711 c 0
 89 768 150 840 196 840 c 0
 213 840 213 840 315 679 c 1
257 628 m 1
 165 774 165 774 155 780 c 1
 151 772 149 763 149 752 c 0
 149 701 191 627 251 627 c 0
 253 627 255 628 257 628 c 1
EndSplineSet
Validated: 1
EndChar

StartChar: guillemotleft
Encoding: 171 171 107
Width: 491
Flags: W
HStem: 38 375
VStem: 68 362
LayerCount: 2
Fore
SplineSet
407 360 m 0
 386 339 342 287 312 253 c 1
 375 209 408 173 408 146 c 0
 408 118 364 81 343 81 c 0
 324 81 350 113 228 192 c 0
 218 198 225 217 241 236 c 0
 269 264 378 413 417 413 c 0
 425 413 430 408 430 400 c 0
 430 390 423 376 407 360 c 0
247 318 m 0
 226 297 181 245 151 211 c 1
 214 167 247 131 247 104 c 0
 247 76 203 38 182 38 c 0
 163 38 190 70 68 149 c 0
 58 155 64 175 80 194 c 0
 81 195 169 300 216 347 c 0
 232 363 246 370 256 370 c 0
 264 370 270 365 270 357 c 0
 270 348 263 334 247 318 c 0
EndSplineSet
Validated: 1
EndChar

StartChar: logicalnot
Encoding: 172 172 108
Width: 480
VWidth: 1988
Flags: W
HStem: 272 78<88.7248 312>
VStem: 307 84<140.907 275>
LayerCount: 2
Fore
SplineSet
391 197 m 0
 391 174 347 130 324 130 c 0
 316 130 307 131 307 187 c 0
 307 221 311 260 312 275 c 1
 87 272 l 2
 80 272 76 275 76 282 c 0
 76 306 119 350 143 350 c 2
 380 353 l 2
 391 353 391 344 391 340 c 2
 391 340 386 289 386 250 c 0
 386 200 391 205 391 197 c 0
EndSplineSet
Validated: 1
EndChar

StartChar: registered
Encoding: 174 174 110
Width: 662
Flags: W
HStem: -35 58<238.096 436.82> 79 59<383.131 432.226> 405 58<236.179 428.48>
VStem: 80 58<123.735 306.553> 221 68<88.7162 142.098> 239 202<219.883 347.215> 239 58<244 300> 527 58<113.574 304.859>
LayerCount: 2
Fore
SplineSet
527 195 m 0xf1
 527 303 456 405 321 405 c 0
 187 405 138 320 138 231 c 0
 138 132 204 23 356 23 c 0
 510 23 527 142 527 195 c 0xf1
318 -35 m 0
 162 -35 80 73 80 190 c 0
 80 322 187 463 359 463 c 0
 505 463 585 353 585 235 c 0
 585 102 482 -35 318 -35 c 0
316 361 m 0
 367 361 439 348 439 290 c 0
 439 262 414 216 347 197 c 1
 363 183 410 142 429 138 c 0
 430 138 431 138 432 138 c 0
 438 138 441 135 441 130 c 0xf5
 441 114 415 79 391 79 c 0
 371 79 344 97 289 145 c 1
 278 93 240 77 230 77 c 0
 224 77 221 80 221 86 c 0xf9
 221 107 239 77 239 238 c 0xf5
 239 277 238 307 238 308 c 0
 238 311 240 361 316 361 c 0
380 255 m 1
 374 287 333 297 298 300 c 1
 298 283 297 264 297 244 c 1xf3
 327 244 360 249 380 255 c 1
EndSplineSet
Validated: 1
EndChar

StartChar: macron
Encoding: 175 175 111
Width: 501
Flags: W
HStem: 793 60<158.516 394.496>
VStem: 108 295<793 847.641>
AnchorPoint: "top" 254 821 mark 0
LayerCount: 2
Fore
SplineSet
150 793 m 0
 136 793 118 791 117 791 c 0
 109 791 108 798 108 800 c 0
 108 816 138 848 158 851 c 0
 169 852 181 853 194 853 c 0
 237 853 289 848 337 848 c 0
 372 848 394 851 395 851 c 0
 402 851 403 845 403 843 c 0
 403 827 375 794 354 791 c 0
 335 788 313 788 292 788 c 0
 242 788 190 793 150 793 c 0
EndSplineSet
Validated: 1
EndChar

StartChar: degree
Encoding: 176 176 112
Width: 431
Flags: W
HStem: 629 81<151.5 244.966> 772 81<184.477 243.608>
VStem: 102 81<711.476 771.209> 246 81<710.981 800>
AnchorPoint: "top" 187 678 mark 0
LayerCount: 2
Fore
SplineSet
246 718 m 0
 244 769 190 772 184 772 c 1
 184 769 183 767 183 764 c 0
 183 736 202 710 237 710 c 0
 247 710 246 710 246 718 c 0
175 629 m 0
 128 629 102 661 102 702 c 0
 102 772 178 853 243 853 c 0
 295 853 327 822 327 778 c 0
 327 714 251 629 175 629 c 0
EndSplineSet
Validated: 1
EndChar

StartChar: plusminus
Encoding: 177 177 113
Width: 483
VWidth: 2078
Flags: W
HStem: 75 77<98.2295 200 276 337.235> 212 99<283.3 398.625> 221 76<88.8828 202>
VStem: 203 79<152.618 232 311 430.899>
LayerCount: 2
Fore
SplineSet
238 75 m 0xd0
 153 75 108 63 88 63 c 0
 79 63 75 65 75 73 c 0
 75 93 108 131 135 138 c 0
 148 141 171 144 200 147 c 1
 201 174 201 195 202 233 c 1
 155 231 110 225 95 221 c 0
 83 218 77 224 77 232 c 0
 77 252 110 290 137 297 c 0xb0
 150 300 174 303 203 306 c 1
 203 360 l 2
 203 430 270 443 271 443 c 0
 282 443 282 439 282 416 c 0
 282 389 281 351 281 311 c 1
 286 311 291 311 296 311 c 0
 406 311 406 287 406 278 c 0
 406 251 363 212 341 212 c 0
 321 212 352 227 280 232 c 1
 279 190 278 165 276 152 c 1
 293 152 l 2
 403 152 404 129 404 119 c 0
 404 92 360 53 338 53 c 0
 321 53 349 75 238 75 c 0xd0
EndSplineSet
Validated: 1
EndChar

StartChar: uni00B2
Encoding: 178 178 114
Width: 405
Flags: W
HStem: 542 75<175 215.354 218.901 327.04> 558 59<144.042 306.646> 795 58<159.813 247.948>
VStem: 250 59<731.098 811.5>
LayerCount: 2
Fore
SplineSet
285 542 m 0xb0
 271 542 258 558 217 558 c 0x70
 182 558 140 547 98 535 c 0
 76 529 77 553 99 575 c 0
 101 577 250 727 250 755 c 0
 250 779 226 795 193 795 c 0
 183 795 174 793 166 790 c 1
 147 770 122 763 122 779 c 0
 122 801 168 853 234 853 c 0
 278 853 309 829 309 794 c 0
 309 775 294 731 175 605 c 1
 203 612 230 617 256 617 c 0
 257 617 329 617 329 587 c 0
 329 571 300 542 285 542 c 0xb0
EndSplineSet
Validated: 1
EndChar

StartChar: uni00B3
Encoding: 179 179 115
Width: 355
Flags: W
HStem: 533 59<114.608 204.682> 794 59<130.062 247.333>
VStem: 216 59<604.88 681.5 747.967 824>
LayerCount: 2
Fore
SplineSet
89 777 m 0
 89 802 156 853 221 853 c 0
 253 853 276 839 276 809 c 0
 276 774 232 732 215 717 c 1
 263 707 275 691 275 672 c 0
 275 622 198 533 136 533 c 0
 99 533 90 568 90 574 c 0
 90 593 123 623 140 623 c 0
 152 623 145 613 158 600 c 0
 164 594 171 592 177 592 c 0
 196 592 216 613 216 628 c 0
 216 656 154 662 133 664 c 0
 128 664 125 668 125 673 c 0
 125 681 131 693 143 705 c 0
 155 717 218 755 218 769 c 0
 218 786 202 794 181 794 c 0
 138 794 114 766 99 766 c 0
 93 766 89 771 89 777 c 0
EndSplineSet
Validated: 1
EndChar

StartChar: acute
Encoding: 180 180 116
Width: 432
Flags: W
HStem: 644 84<112.481 228.419>
VStem: 95 240
AnchorPoint: "top" 164 690 mark 0
LayerCount: 2
Fore
SplineSet
173 728 m 0
 198 728 220 733 233 740 c 1
 241 752 247 768 253 786 c 0
 262 813 306 853 327 853 c 0
 332 853 335 851 335 845 c 0
 335 821 261 644 109 644 c 0
 100 644 95 645 95 653 c 0
 95 674 141 728 173 728 c 0
EndSplineSet
Validated: 1
EndChar

StartChar: mu
Encoding: 181 181 117
Width: 806
Flags: W
HStem: -29 74<194.732 415.748 664.037 704.774> 443 20G<650 668.5>
VStem: 93 76<-834.828 -622.485 -250.798 411.181> 132 75<-788.759 -118.343> 587 75<46.4085 140>
LayerCount: 2
Fore
SplineSet
617 -30 m 0xe8
 601 -30 587 -24 587 102 c 0
 587 114 588 126 588 140 c 1
 463 -29 271 -29 208 -29 c 0
 199 -29 190 -29 181 -26 c 1
 207 -405 207 -404 207 -507 c 0
 207 -625 197 -725 168 -794 c 0
 158 -817 130 -842 110 -842 c 0
 102 -842 97 -838 97 -829 c 0
 97 -809 132 -779 132 -556 c 0xd8
 132 -348 93 60 93 163 c 0
 93 434 163 461 190 461 c 0
 198 461 203 457 203 448 c 0
 203 439 169 325 169 232 c 0
 169 174 169 45 256 45 c 0
 347 45 567 53 594 304 c 0
 600 363 601 404 601 404 c 0
 603 428 638 463 662 463 c 0
 675 463 675 453 675 446 c 0
 675 443 662 244 662 149 c 0
 662 108 662 75 671 45 c 1
 672 45 673 45 674 45 c 0
 685 70 715 92 732 92 c 0
 745 92 745 79 745 76 c 0
 745 39 692 -30 617 -30 c 0xe8
EndSplineSet
Validated: 1
EndChar

StartChar: paragraph
Encoding: 182 182 118
Width: 601
Flags: W
HStem: 419 78<194.198 300> 779 74<191.795 299 373 429>
VStem: 43 73<570.314 717.794> 300 74<7.20999 419 497 779> 431 74<205.76 776.139>
LayerCount: 2
Fore
SplineSet
358 853 m 1
 488 853 l 2
 504 853 505 853 505 646 c 0
 505 466 502 194 498 -55 c 0
 488 -655 482 -661 456 -687 c 0
 442 -701 428 -708 418 -708 c 0
 409 -708 403 -703 403 -694 c 0
 403 -689 406 -682 410 -674 c 1
 410 -637 l 1
 422 -436 431 262 431 606 c 0
 431 687 430 749 429 779 c 1
 373 779 l 1
 373 745 374 699 374 646 c 0
 374 466 372 194 368 -55 c 0
 358 -655 352 -661 326 -687 c 0
 312 -701 297 -708 287 -708 c 0
 278 -708 273 -703 273 -694 c 0
 273 -689 275 -682 279 -674 c 1
 279 -637 l 1
 289 -468 298 53 300 419 c 1
 130 426 43 515 43 611 c 0
 43 712 146 851 358 853 c 1
300 497 m 1
 300 536 300 573 300 606 c 0
 300 687 300 748 299 779 c 1
 134 772 116 692 116 658 c 0
 116 594 170 517 300 497 c 1
EndSplineSet
Validated: 1
EndChar

StartChar: periodcentered
Encoding: 183 183 119
Width: 284
Flags: W
HStem: 178 125<97.0915 187.908>
VStem: 83 119<190.433 290.769>
LayerCount: 2
Fore
SplineSet
162 303 m 4
 185 303 202 285 202 262 c 4
 202 227 160 178 123 178 c 4
 100 178 83 195 83 219 c 4
 83 255 125 303 162 303 c 4
EndSplineSet
Validated: 1
EndChar

StartChar: cedilla
Encoding: 184 184 120
Width: 470
Flags: W
HStem: -550 75<65.5459 262.573> -207 41<57.418 68>
VStem: 142 75<-78.4894 24.3108> 342 75<-423.03 -296.188>
AnchorPoint: "bottom" 180 0 mark 0
LayerCount: 2
Fore
SplineSet
205 35 m 4
 216 35 217 26 217 22 c 4
 217 -27 163 -109 147 -133 c 5
 315 -143 417 -233 417 -327 c 4
 417 -422 307 -550 69 -550 c 4
 61 -550 56 -545 56 -537 c 4
 56 -513 94 -475 118 -475 c 4
 244 -473 308 -440 327 -421 c 4
 336 -412 342 -397 342 -378 c 4
 342 -298 239 -208 68 -207 c 4
 60 -207 56 -203 56 -195 c 4
 56 -187 60 -177 68 -166 c 5
 68 -166 91 -134 113 -97 c 4
 130 -67 142 -40 142 -28 c 4
 142 -4 181 35 205 35 c 4
EndSplineSet
Validated: 1
EndChar

StartChar: uni00B9
Encoding: 185 185 121
Width: 339
Flags: W
HStem: 552 57<204 261.43> 748 59<97.7368 152.741> 834 20G<199 210.5>
VStem: 146 122<568.971 603.906> 146 58<609 775>
LayerCount: 2
Fore
SplineSet
190 552 m 0xf0
 141 552 103 533 98 533 c 0
 92 533 89 537 89 543 c 0
 89 544 92 579 146 597 c 1xf0
 154 775 l 1
 127 755 109 748 99 748 c 0
 92 748 89 751 89 757 c 0
 89 774 118 806 138 807 c 0
 145 807 190 854 208 854 c 0
 213 854 215 851 215 843 c 2
 204 609 l 1xe8
 253 615 266 604 266 604 c 2
 268 602 268 600 268 597 c 0
 268 580 236 547 218 547 c 0
 211 547 213 552 190 552 c 0xf0
EndSplineSet
Validated: 1
EndChar

StartChar: ordmasculine
Encoding: 186 186 122
Width: 463
Flags: W
HStem: 480 58<63.9178 409.413> 577 59<185.304 309.958> 794 59<196.611 316.801>
VStem: 108 59<655.347 763.858> 335 60<663.567 775.468>
LayerCount: 2
Fore
SplineSet
395 752 m 0
 395 672 316 577 219 577 c 0
 143 577 108 621 108 675 c 0
 108 757 190 853 285 853 c 0
 343 853 395 818 395 752 c 0
167 716 m 0
 167 639 247 636 258 636 c 0
 317 636 335 670 335 711 c 0
 335 766 294 794 245 794 c 0
 177 794 167 744 167 716 c 0
323 467 m 0
 271 467 196 480 127 480 c 0
 79 480 65 472 57 472 c 0
 52 472 49 476 49 481 c 0
 49 496 72 524 93 530 c 0
 114 536 141 538 170 538 c 0
 241 538 323 526 368 526 c 0
 379 526 388 526 394 528 c 0
 406 533 413 530 413 522 c 0
 413 521 409 467 323 467 c 0
EndSplineSet
Validated: 1
EndChar

StartChar: guillemotright
Encoding: 187 187 123
Width: 523
Flags: W
HStem: 50 363
VStem: 76 376
LayerCount: 2
Fore
SplineSet
99 102 m 0
 120 123 164 175 194 209 c 1
 131 253 99 289 99 316 c 0
 99 344 142 382 163 382 c 0
 182 382 156 350 278 271 c 0
 288 265 282 245 266 226 c 0
 265 225 177 120 130 73 c 0
 114 57 99 50 89 50 c 0
 81 50 76 55 76 63 c 0
 76 72 83 86 99 102 c 0
274 134 m 0
 295 155 339 207 369 241 c 1
 306 285 273 321 273 348 c 0
 273 376 317 413 338 413 c 0
 357 413 330 381 452 302 c 0
 462 296 456 277 440 258 c 0
 439 257 351 152 304 105 c 0
 288 89 273 82 263 82 c 0
 255 82 251 86 251 94 c 0
 251 103 258 118 274 134 c 0
EndSplineSet
Validated: 1
EndChar

StartChar: onequarter
Encoding: 188 188 124
Width: 562
Flags: W
HStem: 60 59<326 367 427.382 508.766> 272 57<184 241.43> 468 59<77.7368 132.741> 554 20G<179 190.5>
VStem: 73 59<-46.4812 18.4929> 126 122<288.971 323.906> 126 58<329 495> 367 59<-3.89196 56 119 180>
LayerCount: 2
Fore
SplineSet
511 98 m 0xf1
 511 80 478 47 460 47 c 0
 453 47 456 53 426 56 c 1
 426 38 l 2
 426 17 391 -14 375 -14 c 0
 370 -14 367 -11 367 -5 c 2
 367 60 l 1
 364 60 l 2
 351 60 291 59 269 52 c 0
 253 46 248 59 260 77 c 2
 373 258 l 2
 385 278 406 291 418 291 c 0
 423 291 427 289 427 283 c 2
 426 119 l 1
 450 118 511 117 511 98 c 0xf1
367 119 m 1
 367 180 l 1
 326 115 l 1
 338 117 355 118 367 119 c 1
73 -47 m 0xf9
 73 17 386 425 433 478 c 0
 446 493 459 499 467 499 c 0
 473 499 477 496 477 490 c 0
 477 484 473 474 462 462 c 0
 458 458 182 111 132 -6 c 1
 132 -27 97 -56 81 -56 c 0
 76 -56 73 -54 73 -47 c 0xf9
170 272 m 0
 121 272 83 253 78 253 c 0
 72 253 69 257 69 263 c 0
 69 264 72 299 126 317 c 1xf5
 134 495 l 1
 107 475 89 468 79 468 c 0
 72 468 69 471 69 477 c 0
 69 494 98 526 118 527 c 0
 125 527 170 574 188 574 c 0
 193 574 195 571 195 563 c 2
 184 329 l 1xf3
 233 335 246 324 246 324 c 2
 248 322 248 320 248 317 c 0xf5
 248 300 216 267 198 267 c 0
 191 267 193 272 170 272 c 0
EndSplineSet
Validated: 1
EndChar

StartChar: onehalf
Encoding: 189 189 125
Width: 596
Flags: W
HStem: -6 75<378 418.354 421.901 529.244> 10 59<347.546 508.647> 247 59<362.313 451.107> 272 57<184 241.43> 468 59<77.7368 132.741> 554 20G<179 190.5>
VStem: 73 59<-46.4812 18.4929> 126 122<288.971 323.906> 126 58<329 495> 453 58<183.098 263.5>
LayerCount: 2
Fore
SplineSet
487 -6 m 0xac40
 473 -6 461 10 420 10 c 0x4c40
 385 10 342 -1 300 -13 c 0
 278 -19 280 5 302 27 c 0
 304 29 453 179 453 207 c 0
 453 231 429 247 396 247 c 0
 386 247 376 245 368 242 c 1
 348 221 325 216 325 232 c 0
 325 254 371 306 437 306 c 0
 481 306 511 281 511 246 c 0
 511 227 497 183 378 57 c 1
 406 64 433 69 459 69 c 0
 460 69 531 68 531 39 c 0
 531 22 502 -6 487 -6 c 0xac40
170 272 m 0x1d40
 121 272 83 253 78 253 c 0
 72 253 69 257 69 263 c 0
 69 264 72 299 126 317 c 1x1d40
 134 495 l 1
 107 475 89 468 79 468 c 0
 72 468 69 471 69 477 c 0
 69 494 98 526 118 527 c 0
 125 527 170 574 188 574 c 0
 193 574 195 571 195 563 c 2
 184 329 l 1x1cc0
 233 335 246 324 246 324 c 2
 248 322 248 320 248 317 c 0
 248 300 216 267 198 267 c 0
 191 267 193 272 170 272 c 0x1d40
73 -47 m 0x8e40
 73 17 386 425 433 478 c 0
 446 493 459 499 467 499 c 0
 473 499 477 496 477 490 c 0
 477 484 473 474 462 462 c 0
 458 458 182 111 132 -6 c 1
 132 -27 97 -56 81 -56 c 0
 76 -56 73 -54 73 -47 c 0x8e40
EndSplineSet
Validated: 1
EndChar

StartChar: threequarters
Encoding: 190 190 126
Width: 559
Flags: W
HStem: 65 59<322 362 423.428 504.319> 253 59<99.6083 190.278> 514 59<115.996 232.787>
VStem: 69 59<-42.2226 23.4929> 202 59<325.023 401.5 469.289 544> 362 60<1.81341 62 125 185>
LayerCount: 2
Fore
SplineSet
75 497 m 0
 75 522 141 573 206 573 c 0
 238 573 262 559 262 529 c 0
 262 494 217 452 200 437 c 1
 248 427 261 411 261 392 c 0
 261 342 183 253 121 253 c 0
 84 253 75 288 75 294 c 0
 75 313 108 343 125 343 c 0
 137 343 130 333 143 320 c 0
 149 314 155 312 162 312 c 0
 182 312 202 332 202 348 c 0
 202 376 139 382 118 384 c 0
 113 384 110 388 110 393 c 0
 110 401 116 413 128 425 c 0
 140 437 203 475 203 489 c 0
 203 506 187 514 166 514 c 0
 123 514 99 486 85 486 c 0
 79 486 75 491 75 497 c 0
507 104 m 0
 507 86 474 52 456 52 c 0
 449 52 453 58 422 62 c 1
 422 43 l 2
 422 22 386 -8 370 -8 c 0
 365 -8 362 -5 362 1 c 2
 362 65 l 1
 360 65 l 2
 347 65 287 64 265 57 c 0
 262 56 260 56 258 56 c 0
 253 56 249 58 249 64 c 0
 249 69 251 75 256 82 c 2
 369 263 l 2
 381 283 402 297 414 297 c 0
 419 297 422 294 422 288 c 2
 422 125 l 1
 446 124 507 123 507 104 c 0
362 124 m 1
 362 185 l 1
 322 121 l 1
 334 123 350 123 362 124 c 1
69 -41 m 0
 69 23 381 431 428 484 c 0
 441 498 453 505 462 505 c 0
 469 505 473 500 473 494 c 0
 473 487 468 478 458 467 c 0
 454 463 178 116 128 -1 c 1
 128 -22 94 -51 78 -51 c 0
 73 -51 69 -48 69 -41 c 0
EndSplineSet
Validated: 1
EndChar

StartChar: questiondown
Encoding: 191 191 127
Width: 515
Flags: W
HStem: -46 75<187.5 380.368> 324 71<197.457 294> 557 90<220.943 249.439> 725 125<258.092 348.908>
VStem: 63 75<76.4209 263.781> 244 119<737.433 837.567> 297 75<388.385 568.185> 395 75<53.6922 128.454>
LayerCount: 2
Fore
SplineSet
250 571 m 1xfb
 238 561 228 557 220 557 c 0
 212 557 206 563 206 571 c 0
 206 594 249 647 298 647 c 0
 323 647 344 633 355 622 c 0
 367 610 372 604 372 540 c 0
 372 475 365 387 365 383 c 0
 363 358 326 323 303 323 c 2
 301 323 l 1
 301 323 297 324 290 324 c 0
 244 324 194 309 172 287 c 0
 140 255 138 183 138 169 c 0
 138 71 223 29 300 29 c 0
 350 29 383 47 389 53 c 1
 394 68 395 68 395 76 c 0
 395 100 433 138 457 138 c 0
 465 138 470 134 470 125 c 0
 470 44 375 -46 249 -46 c 0
 153 -46 63 9 63 120 c 0
 63 292 186 378 294 395 c 1
 295 411 297 456 297 494 c 0
 297 530 297 568 250 571 c 1xfb
363 809 m 0xfd
 363 774 321 725 284 725 c 0
 262 725 244 742 244 766 c 0
 244 801 286 850 323 850 c 0
 345 850 363 833 363 809 c 0xfd
EndSplineSet
Validated: 1
EndChar

StartChar: AE
Encoding: 198 198 134
Width: 937
Flags: W
HStem: -35 55<638.262 814.117> -17 57<505.315 790.761> 386 57<315.767 439 514 784.576> 756 57<718.648 903.333> 772 57<554.249 883.037> 779 74<288.32 427.995>
VStem: 429 74<21 384> 459 74<444.691 745.745>
AnchorPoint: "bottom" 464 -3 basechar 0
AnchorPoint: "top" 482 959 basechar 0
LayerCount: 2
Fore
SplineSet
516 386 m 2x29
 511 386 l 1
 508 303 503 139 503 50 c 2
 503 21 l 1
 545 37 597 40 634 40 c 0x6a
 725 40 811 20 813 20 c 0
 818 19 820 15 820 10 c 0
 820 -6 799 -35 770 -35 c 0xa2
 742 -35 700 -17 598 -17 c 0
 453 -17 482 -58 443 -58 c 0
 429 -58 429 -55 429 6 c 0
 429 168 439 380 439 384 c 1
 337 377 250 356 168 313 c 1
 148 82 119 -32 59 -32 c 0
 50 -32 45 -28 45 -19 c 0
 45 -13 47 -6 52 3 c 1
 78 86 97 271 99 347 c 0
 111 772 323 853 390 853 c 0x66
 458 853 494 823 513 782 c 1
 565 810 630 829 715 829 c 0x2a
 793 829 860 813 894 813 c 0
 903 813 910 812 910 802 c 0
 910 793 894 756 858 756 c 0x32
 820 756 756 772 679 772 c 0
 630 772 576 765 525 743 c 1
 530 722 533 696 533 662 c 0
 533 589 519 507 514 442 c 1
 526 442 539 443 552 443 c 0
 633 443 722 435 822 424 c 0
 828 423 831 419 831 414 c 0
 831 398 805 368 785 368 c 0
 778 368 640 386 516 386 c 2x29
171 359 m 1
 257 404 346 429 444 438 c 1
 459 575 459 575 459 616 c 0
 459 708 435 779 343 779 c 0x25
 306 779 282 754 275 747 c 0
 189 661 179 503 171 359 c 1
EndSplineSet
Validated: 1
EndChar

StartChar: Ccedilla
Encoding: 199 199 135
Width: 778
Flags: W
HStem: -551 75<229.546 426.573> -208 41<221.418 232> 779 74<427 713.321>
VStem: 57 74<173.508 531.009> 506 75<-424.03 -296.966>
LayerCount: 2
Fore
SplineSet
57 309 m 0
 57 814 494 849 708 853 c 0
 721 853 722 842 722 839 c 0
 722 817 688 779 662 779 c 0
 519 777 324 756 225 657 c 0
 150 582 131 460 131 355 c 0
 131 195 198 38 388 38 c 0
 543 38 673 133 711 133 c 0
 718 133 722 129 722 121 c 0
 722 105 703 78 680 66 c 0
 556 1 452 -29 367 -34 c 1
 350 -75 322 -118 311 -134 c 1
 479 -144 581 -234 581 -328 c 0
 581 -423 471 -551 233 -551 c 0
 224 -551 220 -546 220 -538 c 0
 220 -514 258 -476 282 -476 c 0
 408 -474 472 -441 491 -422 c 0
 500 -413 506 -397 506 -379 c 0
 506 -298 404 -209 232 -208 c 0
 224 -208 220 -203 220 -196 c 0
 220 -188 224 -178 232 -167 c 2
 232 -167 255 -135 277 -98 c 0
 292 -72 303 -47 306 -33 c 1
 78 -11 57 222 57 309 c 0
EndSplineSet
Validated: 1
EndChar

StartChar: Eth
Encoding: 208 208 144
Width: 791
VWidth: 1748
Flags: W
HStem: -37 74<268.548 467.966> 392 72<178 318.235> 779 74<231.249 473.577>
VStem: 57 122<385.201 391 654 719.145> 90 73<-33.1499 -27 -26.8492 40 140 385 592.434 741.335 783 831.89> 653 74<245.666 576.672>
LayerCount: 2
Fore
SplineSet
219 392 m 0xf4
 202 392 183 391 176 391 c 1
 174 298 171 208 168 140 c 1
 179 147 189 151 197 151 c 0
 214 151 206 132 245 92 c 0
 294 44 353 37 382 37 c 0
 464 37 653 105 653 396 c 0
 653 642 494 779 335 779 c 0
 280 779 225 762 177 728 c 1
 178 689 179 642 179 590 c 0
 179 550 179 508 178 464 c 1
 207 467 242 469 274 469 c 0
 384 469 385 446 385 436 c 0
 385 409 341 370 319 370 c 0
 302 370 330 392 219 392 c 0xf4
173 783 m 1
 241 830 314 853 383 853 c 0
 566 853 727 700 727 443 c 0
 727 99 462 -37 335 -37 c 0
 241 -37 188 12 164 40 c 1
 164 26 163 18 163 17 c 0
 162 -7 127 -42 103 -42 c 0
 95 -42 90 -38 90 -28 c 0
 90 -28 90 -28 90 -27 c 0xec
 90 -27 100 180 104 385 c 1
 73 381 73 379 67 379 c 0
 57 379 56 387 56 390 c 0
 56 408 81 439 105 451 c 1
 105 486 105 516 105 544 c 0
 105 591 105 629 104 660 c 1
 92 650 80 644 71 644 c 0
 58 644 57 654 57 657 c 0xf4
 57 668 61 681 101 721 c 1
 96 781 90 770 90 781 c 0xec
 90 805 126 841 150 841 c 0
 160 841 167 838 173 783 c 1
EndSplineSet
Validated: 1
EndChar

StartChar: multiply
Encoding: 215 215 151
Width: 489
Flags: W
VStem: 80 350<350 398>
LayerCount: 2
Fore
SplineSet
399 128 m 0
 399 104 357 65 335 65 c 0
 331 65 328 66 326 68 c 0
 325 69 311 92 236 179 c 1
 156 90 142 70 134 62 c 0
 108 36 80 32 80 51 c 0
 80 67 107 102 207 212 c 1
 94 342 80 337 80 350 c 0
 80 373 120 414 143 414 c 0
 159 414 239 323 273 284 c 1
 369 387 396 412 417 412 c 0
 425 412 430 406 430 398 c 0
 430 388 423 373 408 358 c 0
 399 349 400 353 376 329 c 0
 357 310 331 282 302 251 c 1
 398 136 399 137 399 128 c 0
EndSplineSet
Validated: 1
EndChar

StartChar: Oslash
Encoding: 216 216 152
Width: 799
VWidth: 1748
Flags: W
HStem: -22 71<314.026 524.409> 769 75<322.422 497.882> 833 20G<707.5 724>
VStem: 65 75<-20.0939 71.9075 224.323 530.594> 657 74<219.067 560.37>
LayerCount: 2
Fore
SplineSet
443 844 m 0xd8
 516 844 574 800 614 753 c 1
 686 840 696 853 719 853 c 0xb8
 729 853 734 844 734 841 c 0
 734 830 715 807 641 717 c 1
 698 635 731 528 731 448 c 0
 731 129 561 -22 391 -22 c 0
 309 -22 227 13 163 81 c 1
 141 43 140 33 140 32 c 0
 140 4 96 -32 75 -32 c 0
 68 -32 64 -29 64 -20 c 0
 64 0 77 36 132 121 c 1
 85 186 65 264 65 343 c 0
 65 606 278 844 443 844 c 0xd8
657 401 m 0
 657 469 628 564 580 641 c 1
 456 487 306 296 216 164 c 1
 270 98 357 49 439 49 c 0
 552 49 657 141 657 401 c 0
188 204 m 1
 293 352 444 543 553 678 c 1
 503 742 449 769 397 769 c 0xd8
 260 769 140 578 140 391 c 0
 140 325 154 260 188 204 c 1
EndSplineSet
Validated: 1
EndChar

StartChar: Thorn
Encoding: 222 222 158
Width: 647
Flags: W
HStem: 122 74<161 348.566> 609 75<169.318 411.956>
VStem: 87 74<5.55285 122 196.222 604.293> 523 75<342.415 518.368>
LayerCount: 2
Fore
SplineSet
162 122 m 2
 161 122 l 1
 161 96 162 79 161 75 c 0
 154 26 99 -31 65 -31 c 0
 53 -31 52 -23 52 -18 c 0
 52 -4 66 18 87 33 c 1
 87 43 l 2
 87 46 84 236 84 312 c 0
 84 762 120 808 143 831 c 0
 158 846 172 853 182 853 c 0
 190 853 195 849 195 840 c 0
 195 824 179 821 168 677 c 1
 205 681 239 684 271 684 c 0
 501 684 598 581 598 467 c 0
 598 317 427 122 162 122 c 2
523 419 m 0
 523 515 438 609 224 609 c 0
 205 609 185 609 164 607 c 1
 160 528 159 440 159 359 c 0
 159 300 159 245 160 199 c 1
 176 198 192 196 207 196 c 0
 392 196 523 296 523 419 c 0
EndSplineSet
Validated: 1
EndChar

StartChar: germandbls
Encoding: 223 223 159
Width: 734
Flags: W
HStem: -33 74<240.281 328.625> 779 74<446.341 599.826>
VStem: 38 74<-107.614 115.085> 474 74<203.651 376.707> 622 74<594.258 755.608>
LayerCount: 2
Fore
SplineSet
247 -33 m 0
 231 -33 231 -23 231 -20 c 0
 231 1 264 41 291 41 c 0
 326 41 474 169 474 283 c 0
 474 386 358 438 356 439 c 0
 351 441 349 446 349 451 c 0
 349 472 381 510 408 512 c 0
 410 512 491 519 557 556 c 0
 593 576 622 602 622 667 c 0
 622 768 547 779 517 779 c 0
 465 779 419 747 384 712 c 0
 208 536 137 140 112 -59 c 0
 109 -83 75 -116 52 -116 c 0
 44 -116 38 -112 38 -103 c 0
 38 -94 93 484 352 743 c 0
 451 842 532 853 564 853 c 0
 683 853 696 754 696 713 c 0
 696 548 520 478 484 465 c 1
 526 426 548 381 548 330 c 0
 548 168 329 -33 247 -33 c 0
EndSplineSet
Validated: 1
EndChar

StartChar: ae
Encoding: 230 230 166
Width: 1048
Flags: W
HStem: -54 74<190.164 369.049 613.919 837.649> 145 74<556.043 789.502> 365 74<168.776 320.707> 384 89<688.366 907.95>
VStem: 63 75<79.312 327.432> 908 74<321.59 419.5>
LayerCount: 2
Fore
SplineSet
959 117 m 0xdc
 968 117 972 111 972 102 c 0
 972 91 964 75 946 59 c 4
 862 -14 786 -54 684 -54 c 4
 556 -54 505 20 485 74 c 5
 390 -37 277 -54 219 -54 c 4
 87 -54 63 109 63 185 c 4
 63 334 161 439 289 439 c 4xec
 343 439 377 409 412 374 c 4
 479 307 479 307 491 297 c 5
 495 335 499 371 500 391 c 5
 491 385 480 378 478 376 c 4
 465 364 450 357 440 357 c 0
 428 357 427 367 427 371 c 0
 427 405 523 473 558 473 c 4
 575 473 575 459 575 449 c 4
 575 435 573 410 567 359 c 5
 650 431 760 459 850 459 c 4
 891 459 930 453 965 442 c 4
 977 438 982 427 982 412 c 4
 982 337 842 145 648 145 c 4
 606 145 571 154 549 161 c 5
 577 35 683 20 732 20 c 4
 879 20 921 117 959 117 c 0xdc
802 384 m 4xdc
 750 384 568 364 555 256 c 5
 588 239 640 219 698 219 c 4
 837 219 908 335 908 365 c 4xec
 908 374 850 384 802 384 c 4xdc
267 20 m 4
 389 20 451 90 470 139 c 5
 469 146 469 154 469 161 c 0
 469 174 470 185 472 197 c 5
 353 267 325 365 241 365 c 4
 192 365 170 347 167 344 c 4
 138 315 138 235 138 234 c 4
 138 181 155 20 267 20 c 4
EndSplineSet
Validated: 1
EndChar

StartChar: ccedilla
Encoding: 231 231 167
Width: 645
Flags: W
HStem: -551 75<179.546 376.573> -208 41<171.418 182> 388 75<242.885 494>
VStem: 52 74<131.672 311.717> 456 75<-424.03 -296.966>
LayerCount: 2
Fore
SplineSet
559 137 m 0
 568 137 573 131 573 123 c 0
 573 112 565 96 547 80 c 0
 488 27 424 -22 319 -29 c 1
 302 -72 272 -117 261 -134 c 1
 429 -144 531 -234 531 -328 c 0
 531 -423 421 -551 183 -551 c 0
 174 -551 170 -546 170 -538 c 0
 170 -514 208 -476 232 -476 c 0
 358 -474 422 -441 441 -422 c 0
 450 -413 456 -397 456 -379 c 0
 456 -298 354 -209 182 -208 c 0
 174 -208 170 -203 170 -196 c 0
 170 -188 174 -178 182 -167 c 2
 182 -167 205 -135 227 -98 c 0
 244 -69 256 -41 256 -29 c 0
 256 -28 256 -28 256 -27 c 0
 140 -12 52 76 52 187 c 0
 52 245 70 302 122 354 c 0
 213 445 356 463 561 463 c 0
 569 463 573 457 573 448 c 0
 573 415 514 317 473 317 c 0
 454 317 456 340 476 363 c 0
 485 374 490 382 494 388 c 1
 155 386 126 320 126 238 c 0
 126 126 228 44 342 44 c 0
 493 44 517 137 559 137 c 0
EndSplineSet
Validated: 1
EndChar

StartChar: eth
Encoding: 240 240 176
Width: 610
Flags: W
HStem: -30 73<158.02 325.233> 779 73<451.877 578.502>
VStem: 73 74<56.1207 204.248 397.051 509.155> 403 73<136.311 422.277>
LayerCount: 2
Fore
SplineSet
149 448 m 0
 149 424 111 389 88 389 c 0
 77 389 69 396 69 416 c 0
 69 474 164 599 278 699 c 1
 236 770 217 781 217 793 c 0
 217 816 256 853 278 853 c 0
 294 853 342 772 351 756 c 1
 441 820 526 852 566 852 c 0
 580 852 588 848 588 839 c 0
 588 818 554 780 528 779 c 0
 511 779 457 770 374 715 c 1
 466 534 476 378 476 318 c 0
 476 89 342 -30 190 -30 c 0
 108 -30 73 14 73 77 c 0
 73 196 197 383 373 475 c 1
 355 538 331 600 301 658 c 1
 201 572 143 484 143 463 c 0
 143 458 149 458 149 448 c 0
403 272 m 0
 403 332 393 388 385 424 c 1
 243 360 147 214 147 124 c 0
 147 77 174 43 237 43 c 0
 299 43 333 64 348 79 c 0
 399 130 403 242 403 272 c 0
EndSplineSet
Validated: 1
EndChar

StartChar: divide
Encoding: 247 247 183
Width: 458
VWidth: 2088
Flags: W
HStem: 68 126<173.594 264.614> 222 77<87.2295 326.235> 328 125<187.386 278.614>
VStem: 159 120<81.2106 180.789 333.138 428.679>
LayerCount: 2
Fore
SplineSet
173 369 m 0
 173 404 216 453 253 453 c 0
 274 453 293 437 293 412 c 0
 293 377 250 328 213 328 c 0
 191 328 173 345 173 369 c 0
199 68 m 0
 177 68 159 84 159 109 c 0
 159 144 202 194 239 194 c 0
 260 194 279 178 279 153 c 0
 279 118 236 68 199 68 c 0
227 222 m 0
 142 222 97 210 77 210 c 0
 68 210 64 212 64 220 c 0
 64 240 97 278 124 285 c 0
 149 291 220 299 282 299 c 0
 392 299 393 275 393 266 c 0
 393 239 349 200 327 200 c 0
 310 200 338 222 227 222 c 0
EndSplineSet
Validated: 1
EndChar

StartChar: oslash
Encoding: 248 248 184
Width: 665
Flags: W
HStem: -32 74<218.861 442.601> 387 75<194.857 443.472>
VStem: 63 75<123.942 332.37> 508 74<102.925 338.311>
LayerCount: 2
Fore
SplineSet
62 -11 m 0
 62 7 91 36 109 54 c 1
 64 114 63 173 63 187 c 0
 63 226 67 311 139 383 c 0
 207 451 291 462 353 462 c 0
 421 462 478 455 519 430 c 1
 544 450 562 463 574 463 c 0
 580 463 586 461 586 452 c 0
 586 438 571 416 552 401 c 1
 582 362 582 312 582 265 c 0
 582 13 398 -32 266 -32 c 0
 221 -32 174 -11 137 23 c 1
 111 -3 90 -24 75 -24 c 0
 69 -24 62 -19 62 -11 c 0
480 340 m 1
 405 274 288 167 206 89 c 1
 238 60 278 42 313 42 c 0
 336 42 436 44 475 83 c 0
 497 105 508 151 508 221 c 0
 508 263 508 307 480 340 c 1
445 366 m 1
 412 382 365 387 305 387 c 0
 165 387 138 331 138 234 c 0
 138 177 166 136 178 120 c 1
 271 208 384 311 445 366 c 1
EndSplineSet
Validated: 1
EndChar

StartChar: thorn
Encoding: 254 254 190
Width: 718
Flags: W
HStem: -13 73<180 408.864> 407 75<219 428.217> 795 70<62.3467 112.111>
VStem: 51 73<-749.197 -179.829> 148 73<482 757.028> 600 75<166.416 294.197>
LayerCount: 2
Fore
SplineSet
51 -613 m 0
 51 -316 148 223 148 540 c 0
 148 655 135 741 100 776 c 0
 80 797 64 787 56 795 c 0
 53 797 52 801 52 805 c 0
 52 827 86 865 112 865 c 0
 192 865 221 763 221 584 c 0
 221 552 220 518 219 482 c 1
 521 481 675 378 675 266 c 0
 675 183 577 3 172 -13 c 1
 148 -222 124 -426 124 -569 c 0
 124 -660 134 -726 160 -751 c 0
 174 -766 184 -758 192 -765 c 0
 194 -768 195 -771 195 -775 c 0
 195 -797 161 -835 135 -835 c 0
 75 -835 51 -759 51 -613 c 0
214 407 m 1
 207 299 194 180 180 60 c 1
 390 63 600 117 600 216 c 0
 600 255 573 286 560 299 c 0
 505 354 389 400 214 407 c 1
EndSplineSet
Validated: 1
EndChar

StartChar: dotlessi
Encoding: 305 305 192
Width: 381
Flags: W
HStem: -32 76<179.888 249.525>
VStem: 83 76<52.141 437.605>
AnchorPoint: "bottom" 176 0 basechar 0
AnchorPoint: "top" 153 642 basechar 0
LayerCount: 2
Fore
SplineSet
313 70 m 0
 313 60 273 -32 168 -32 c 0
 164 -32 161 -32 157 -32 c 0
 126 -32 83 -8 83 228 c 0
 83 288 86 347 89 390 c 0
 91 415 129 453 153 453 c 0
 160 453 165 449 165 441 c 0
 165 439 159 363 159 283 c 0
 159 124 181 44 209 44 c 0
 222 44 240 44 250 47 c 1
 267 70 288 82 301 82 c 0
 312 82 313 74 313 70 c 0
EndSplineSet
Validated: 1
EndChar

StartChar: Lslash
Encoding: 321 321 193
Width: 724
Flags: W
HStem: 59 78<372.638 667.554> 833 20G<210 223.5>
VStem: 161 72<53 348.943 611.618 843.103> 177 74<55.7887 357 379.877 448.188 473 793.859>
LayerCount: 2
Fore
SplineSet
613 59 m 0xd0
 451 59 291 18 196 -23 c 0
 187 -29 178 -32 171 -32 c 0
 164 -32 159 -29 159 -21 c 0
 159 -18 160 -15 161 -10 c 1xe0
 163 20 170 185 174 357 c 1
 114 306 75 294 53 294 c 0
 47 294 44 297 44 303 c 0
 44 312 53 328 68 344 c 0
 114 390 98 339 175 407 c 1
 176 462 177 512 177 556 c 0xd0
 177 735 168 777 163 785 c 0
 162 788 161 791 161 794 c 0
 161 817 199 853 221 853 c 0
 226 853 230 852 233 847 c 0xe0
 239 837 251 810 251 602 c 0
 251 561 250 517 249 473 c 1
 286 502 327 527 367 527 c 0
 374 527 377 524 377 518 c 0
 377 508 367 491 353 477 c 0
 308 432 311 476 248 423 c 1
 245 265 238 111 236 53 c 1
 347 99 506 137 667 137 c 0
 675 137 679 132 679 125 c 0
 679 101 637 59 613 59 c 0xd0
EndSplineSet
Validated: 1
EndChar

StartChar: lslash
Encoding: 322 322 194
Width: 438
Flags: W
HStem: -23 76<200.5 337.56> 833 20G<252.5 268>
VStem: 165 76<63.6455 324 345.811 417.462 442 789.649>
LayerCount: 2
Fore
SplineSet
288 53 m 0
 302 53 320 53 329 56 c 1
 346 79 367 91 380 91 c 0
 389 91 392 86 392 79 c 0
 392 71 388 60 379 49 c 0
 325 -23 274 -23 236 -23 c 0
 165 -23 165 204 165 274 c 0
 165 290 165 307 165 324 c 1
 107 275 70 266 51 266 c 0
 45 266 42 269 42 275 c 0
 42 285 51 301 66 316 c 0
 110 360 100 316 167 374 c 1
 173 558 195 744 200 792 c 0
 203 816 241 853 264 853 c 0
 272 853 276 849 276 841 c 0
 276 837 251 647 244 442 c 1
 281 472 324 499 365 499 c 0
 372 499 375 496 375 490 c 0
 375 480 365 463 351 449 c 0
 304 403 311 451 242 392 c 1
 242 370 241 349 241 329 c 0
 241 75 280 53 288 53 c 0
EndSplineSet
Validated: 1
EndChar

StartChar: Eng
Encoding: 330 330 195
Width: 1046
Flags: W
HStem: -837 74<598.177 754.873> -184 82<581.368 778.435> -31 74<626.129 784.101> 774 75<694.732 801.595> 833 20G<137.5 358.5>
VStem: 90 73<-22.1499 389.126> 105 74<187.917 766.839> 430 74<-639.441 -292.843> 879 74<-536.281 110 154.8 655.022>
LayerCount: 2
Fore
SplineSet
953 424 m 0xf380
 953 414 953 405 953 395 c 2
 953 41 l 2
 953 40 953 40 953 39 c 0
 953 -104 954 -177 954 -179 c 0
 954 -373 933 -521 886 -633 c 0
 826 -777 725 -837 634 -837 c 0
 501 -837 430 -663 430 -491 c 0
 430 -245 567 -102 709 -102 c 0
 730 -102 752 -105 775 -111 c 0
 782 -113 785 -117 785 -124 c 0
 785 -145 750 -184 725 -184 c 0
 723 -184 722 -184 720 -184 c 0
 704 -180 684 -177 664 -177 c 0
 632 -177 597 -184 573 -209 c 0
 506 -276 504 -425 504 -443 c 0
 504 -601 570 -763 680 -763 c 0
 729 -763 755 -746 771 -730 c 0
 871 -630 880 -331 880 -231 c 0
 880 -229 879 -92 879 -32 c 0
 879 -17 879 -7 879 -5 c 2
 879 110 l 1
 828 21 751 -31 675 -31 c 0
 341 -31 469 671 175 767 c 1
 178 724 179 666 179 602 c 0xf380
 179 364 164 36 163 28 c 0
 162 4 127 -31 103 -31 c 0
 95 -31 89 -26 90 -16 c 0xf580
 90 -10 105 314 105 555 c 0
 105 718 98 768 93 782 c 1
 90 784 89 788 89 792 c 0
 89 814 124 853 151 853 c 0xeb80
 566 853 395 43 723 43 c 0
 772 43 797 66 818 102 c 0
 875 198 879 340 879 375 c 0
 879 531 844 774 744 774 c 0
 694 774 653 707 626 707 c 0
 623 707 619 708 616 711 c 0
 613 714 612 717 612 721 c 0
 612 757 719 849 792 849 c 0
 948 849 953 477 953 424 c 0xf380
EndSplineSet
Validated: 1
EndChar

StartChar: eng
Encoding: 331 331 196
Width: 751
Flags: W
HStem: -846 73<310.177 467.081> -193 81<293.512 489.695> -40 165<80.0853 142.996> 379 74<343.477 473.55>
VStem: 142 74<-648.645 -301.959> 592 74<-545.281 225.134>
LayerCount: 2
Fore
SplineSet
665 30 m 0
 665 29 665 28 665 27 c 0
 665 -175 666 -186 666 -189 c 0
 666 -382 645 -531 598 -642 c 0
 538 -786 438 -846 346 -846 c 0
 213 -846 142 -672 142 -500 c 0
 142 -254 279 -112 421 -112 c 0
 443 -112 464 -115 487 -120 c 0
 494 -122 497 -127 497 -133 c 0
 497 -154 462 -193 437 -193 c 0
 435 -193 434 -193 432 -193 c 0
 416 -189 396 -186 376 -186 c 0
 344 -186 310 -193 285 -218 c 0
 218 -285 216 -434 216 -452 c 0
 216 -610 282 -773 392 -773 c 0
 441 -773 467 -755 483 -739 c 0
 583 -639 592 -340 592 -240 c 0
 592 -238 591 -43 591 -17 c 0
 591 304 471 377 364 379 c 1
 289 278 238 -40 136 -40 c 0
 71 -40 69 54 69 64 c 0
 69 88 106 125 130 125 c 0
 138 125 143 121 143 112 c 0
 143 112 143 64 165 42 c 1
 198 118 244 279 299 367 c 0
 350 449 398 453 408 453 c 0
 610 453 665 250 665 30 c 0
EndSplineSet
Validated: 1
EndChar

StartChar: OE
Encoding: 338 338 197
Width: 1182
Flags: W
HStem: -42 74<292.291 514.161> 55 77<745.351 1034.55> 411 75<739.543 1048.58> 751 73<312.131 480.904> 777 76<747.573 1130.95>
VStem: 51 74<209.569 510.961> 527 71<45.2048 319.198> 539 74<47.6094 349.843 384 697.899>
LayerCount: 2
Fore
SplineSet
608 766 m 1xf6
 771 839 915 853 1018 853 c 0
 1052 853 1081 851 1105 850 c 0
 1138 848 1139 848 1139 837 c 0
 1139 812 1100 773 1076 773 c 0
 1075 773 991 777 967 777 c 0
 751 777 612 709 611 706 c 0
 612 673 613 637 613 597 c 0xed
 613 530 611 456 610 384 c 1
 718 461 854 486 953 486 c 0
 979 486 1080 482 1080 456 c 0
 1080 434 1043 395 1019 395 c 0
 1018 395 983 411 906 411 c 0
 729 411 628 340 608 325 c 1
 604 201 600 91 598 45 c 1
 709 93 870 132 1035 132 c 0
 1043 132 1046 128 1046 121 c 0
 1046 96 1004 55 980 55 c 0
 812 55 646 10 553 -33 c 0
 529 -44 523 -28 523 -20 c 0
 523 -20 523 -13 524 0 c 1
 455 -42 390 -42 373 -42 c 0
 194 -42 51 132 51 306 c 0
 51 604 272 824 428 824 c 0
 465 824 497 814 525 798 c 1
 533 824 565 848 583 848 c 0
 595 848 603 839 608 766 c 1xf6
125 353 m 0
 125 198 257 32 421 32 c 0
 461 32 497 42 527 59 c 1xf6
 535 260 539 432 539 551 c 0
 539 596 538 632 537 661 c 1
 475 738 416 751 382 751 c 0xf5
 260 751 125 576 125 353 c 0
EndSplineSet
Validated: 1
EndChar

StartChar: oe
Encoding: 339 339 198
Width: 1124
Flags: W
HStem: -3 74<230.695 451.451 687.011 907.352> 227 75<689.832 944.322> 417 74<205.425 479.158 731.846 977.999>
VStem: 74 74<155.891 360.348> 519 73<215.02 347.927> 978 75<335.483 470>
LayerCount: 2
Fore
SplineSet
1053 447 m 0
 1053 363 972 227 816 227 c 0
 761 227 707 243 661 262 c 0
 656 264 654 268 654 274 c 0
 654 295 684 334 715 334 c 0
 747 334 782 302 866 302 c 0
 957 302 978 353 978 399 c 0
 978 407 977 414 975 418 c 1
 755 418 651 373 618 340 c 0
 595 317 592 281 592 266 c 0
 592 163 688 74 808 74 c 0
 903 74 944 108 991 147 c 0
 1024 175 1040 166 1040 152 c 0
 1040 140 1029 120 1011 106 c 0
 949 54 882 -0 760 -0 c 0
 663 -0 585 48 546 115 c 1
 467 1 331 -3 276 -3 c 0
 180 -3 74 94 74 216 c 0
 74 255 78 340 149 412 c 0
 218 480 301 491 363 491 c 0
 480 491 567 472 588 372 c 1
 648 431 760 493 1023 493 c 0
 1032 493 1053 493 1053 447 c 0
519 254 m 0
 519 364 493 417 316 417 c 0
 176 417 148 361 148 263 c 0
 148 158 247 71 323 71 c 0
 346 71 447 73 486 112 c 0
 510 136 516 186 518 215 c 0
 518 215 519 243 519 254 c 0
EndSplineSet
Validated: 1
EndChar

StartChar: caron
Encoding: 711 711 199
Width: 411
Flags: W
HStem: 901 214
VStem: 88 133<1007.01 1074.43>
AnchorPoint: "top" 210 958 mark 0
LayerCount: 2
Fore
SplineSet
324 1094 m 0
 324 1081 309 1061 291 1050 c 1
 274 1022 252 964 245 942 c 0
 238 922 212 901 198 901 c 0
 195 901 192 902 190 904 c 0
 189 905 137 1013 98 1053 c 0
 88 1062 88 1062 88 1066 c 0
 88 1085 118 1115 136 1115 c 0
 160 1115 221 1003 221 1001 c 1
 262 1091 296 1104 313 1104 c 0
 322 1104 324 1098 324 1094 c 0
EndSplineSet
Validated: 1
EndChar

StartChar: breve
Encoding: 728 728 200
Width: 540
Flags: W
HStem: 915 77<201.71 362.131>
VStem: 87 77<1029.41 1081.04>
AnchorPoint: "top" 253.422 962 mark 0
LayerCount: 2
Fore
SplineSet
308 992 m 0
 337 992 359 1001 366 1008 c 0
 371 1013 406 1094 447 1094 c 0
 454 1094 457 1090 457 1084 c 0
 457 1063 384 915 251 915 c 0
 170 915 87 971 87 1027 c 0
 87 1050 130 1094 154 1094 c 0
 160 1094 164 1091 164 1084 c 0
 164 1047 235 992 308 992 c 0
EndSplineSet
Validated: 1
EndChar

StartChar: ogonek
Encoding: 731 731 201
Width: 383
Flags: W
HStem: -373 75<171.598 269.205> -126 180<180.604 246.238>
VStem: 87 74<-286.885 -148.915> 168 100<-87.0098 47.8897>
AnchorPoint: "bottom" 208 12 mark 0
LayerCount: 2
Fore
SplineSet
233 -298 m 0
 261 -298 267 -267 295 -267 c 0
 305 -267 306 -275 306 -278 c 0
 306 -302 254 -373 181 -373 c 0
 130 -373 87 -337 87 -267 c 0
 87 -172 147 -114 182 -88 c 1
 175 -67 168 -38 168 -9 c 0
 168 15 207 54 231 54 c 0
 251 54 234 17 267 -58 c 0
 268 -60 268 -62 268 -64 c 0
 268 -84 237 -120 212 -126 c 0
 161 -140 161 -196 161 -213 c 0
 161 -277 203 -298 233 -298 c 0
EndSplineSet
Validated: 1
EndChar

StartChar: hungarumlaut
Encoding: 733 733 202
Width: 511
Flags: W
HStem: 910 83<66.4023 177.856 240.666 352.204>
VStem: 49 414
AnchorPoint: "top" 225.104 960 mark 0
LayerCount: 2
Fore
SplineSet
124 993 m 0
 124 993 126 993 127 993 c 0
 152 993 173 998 187 1006 c 1
 194 1017 201 1034 207 1051 c 0
 216 1078 260 1118 281 1118 c 0
 286 1118 289 1116 289 1110 c 0
 289 1086 215 910 63 910 c 0
 54 910 49 910 49 918 c 0
 49 942 100 993 124 993 c 0
298 993 m 0
 299 993 300 993 301 993 c 0
 326 993 348 998 361 1006 c 1
 369 1017 375 1034 381 1051 c 0
 391 1078 434 1118 455 1118 c 0
 460 1118 463 1116 463 1110 c 0
 463 1086 389 910 238 910 c 0
 228 910 223 910 223 918 c 0
 223 942 275 993 298 993 c 0
EndSplineSet
Validated: 1
EndChar

StartChar: uni1E9E
Encoding: 7838 7838 203
Width: 1109
Flags: W
HStem: -39 74<88.1361 306.762 569.197 753.984> 779 74<399.777 596.991 846.963 1043.99>
VStem: 109 74<449.9 598.866> 490 74<160.655 283.484> 529 87<734.083 778.755> 556 74<449.9 598.866> 937 74<160.655 283.484> 976 87<734.083 778.755>
LayerCount: 2
Fore
SplineSet
639 35 m 0xe6
 732 35 937 109 937 215 c 0xe6
 937 390 556 264 556 471 c 0
 556 666 802 853 1025 853 c 0
 1037 853 1063 846 1063 816 c 0
 1063 778 1023 721 990 721 c 0
 981 721 976 725 976 734 c 0xe5
 976 754 1005 774 977 779 c 1
 831 778 630 679 630 518 c 0
 630 344 1011 466 1011 263 c 0
 1011 104 753 -39 594 -39 c 0
 534 -39 493 -18 493 30 c 0
 493 56 532 91 554 91 c 0
 580 91 546 35 639 35 c 0xe6
192 35 m 0
 284 35 490 109 490 215 c 0xf0
 490 390 109 264 109 471 c 0
 109 666 355 853 578 853 c 0
 590 853 616 846 616 816 c 0
 616 778 576 721 543 721 c 0
 534 721 529 725 529 734 c 0
 529 754 557 774 529 779 c 1xe8
 384 778 183 679 183 518 c 0
 183 344 564 466 564 263 c 0xf0
 564 104 306 -39 147 -39 c 0
 59 -39 46 4 46 30 c 0
 46 56 85 91 107 91 c 0
 133 91 99 35 192 35 c 0
EndSplineSet
Validated: 1
EndChar

StartChar: endash
Encoding: 8211 8211 204
Width: 847
Flags: W
HStem: 198 82<98.8947 744.027>
VStem: 92 665<211.778 270.686>
LayerCount: 2
Fore
SplineSet
153 280 m 0
 155 280 213 271 364 271 c 0
 521 271 690 280 745 280 c 0
 753 280 757 275 757 267 c 0
 757 244 720 207 696 207 c 0
 692 207 419 198 315 198 c 0
 237 198 160 200 102 207 c 0
 95 208 92 212 92 219 c 0
 92 243 129 280 153 280 c 0
EndSplineSet
Validated: 1
EndChar

StartChar: emdash
Encoding: 8212 8212 205
Width: 1122
Flags: W
HStem: 189 73<124.105 804.457> 209 72<97.314 365.851 607.547 1018.76>
LayerCount: 2
Fore
SplineSet
149 281 m 0x40
 151 281 212 262 418 262 c 0
 663 262 964 287 1020 287 c 0
 1029 287 1033 282 1033 275 c 0
 1033 251 995 214 972 214 c 0
 905 214 613 189 371 189 c 0x80
 261 189 161 194 96 209 c 0
 91 210 88 215 88 221 c 0
 88 244 125 281 149 281 c 0x40
EndSplineSet
Validated: 1
EndChar

StartChar: Aogonek
Encoding: 260 260 210
Width: 733
HStem: -373 75<574.598 672.205> 779 74<253.352 405.758>
VStem: 99 74<230.323 611.465> 490 74<-286.885 -148.915> 571 100<-87.0098 -5.0476>
LayerCount: 2
Fore
SplineSet
636 -298 m 0
 664 -298 670 -267 698 -267 c 0
 708 -267 709 -275 709 -278 c 0
 709 -302 657 -373 584 -373 c 0
 533 -373 490 -337 490 -267 c 0
 490 -172 550 -114 585 -88 c 1
 578 -67 571 -38 571 -9 c 0
 571 -8 571 -6 572 -5 c 0
 568 69 551 292 543 382 c 1
 285 362 173 219 122 22 c 0
 114 -11 76 -35 56 -35 c 0
 49 -35 44 -31 44 -23 c 0
 44 -18 46 -11 52 -1 c 0
 92 142 99 341 99 344 c 0
 113 833 315 853 347 853 c 0
 566 853 606 565 615 459 c 1
 632 460 647 460 652 460 c 0
 660 460 664 455 664 448 c 0
 664 430 643 403 620 390 c 0
 621 387 645 68 646 37 c 0
 649 19 650 -12 670 -58 c 0
 671 -60 671 -62 671 -64 c 0
 671 -84 640 -120 615 -126 c 0
 564 -140 564 -196 564 -213 c 0
 564 -277 606 -298 636 -298 c 0
537 451 m 1
 518 591 461 779 300 779 c 0
 186 779 174 415 173 390 c 0
 172 346 167 285 160 225 c 1
 274 380 423 434 537 451 c 1
EndSplineSet
Validated: 1
EndChar

StartChar: aogonek
Encoding: 261 261 211
Width: 783
HStem: -313 75<657.598 755.205> -22 74<191.501 373.792 565 655.39> 389 74<210.864 387.067 494.819 533.208>
VStem: 60 74<108.766 309.642> 486 125<398.364 457.063> 573 74<-226.885 -88.9153>
LayerCount: 2
Fore
SplineSet
719 -238 m 0xf4
 747 -238 753 -207 781 -207 c 0
 791 -207 792 -215 792 -218 c 0
 792 -242 740 -313 667 -313 c 0
 616 -313 573 -277 573 -207 c 0xf4
 573 -112 633 -54 668 -28 c 1
 665 -19 662 -8 659 3 c 1
 638 -12 614 -22 590 -22 c 0
 540 -22 525 30 497 130 c 1
 403 -3 299 -22 248 -22 c 0
 106 -22 60 85 60 181 c 0
 60 334 203 463 335 463 c 0
 455 463 505 365 524 323 c 1
 539 382 535 392 539 393 c 1
 536 396 536 396 534 398 c 0
 517 394 507 389 499 389 c 0
 490 389 486 394 486 402 c 0
 486 439 546 473 583 473 c 0
 593 473 611 467 611 443 c 0xf8
 611 411 594 323 556 237 c 1
 562 218 567 199 572 182 c 0
 597 92 612 53 638 53 c 0
 643 53 648 54 653 56 c 0
 656 63 659 70 663 75 c 0
 676 95 700 114 717 114 c 0
 737 114 720 77 753 2 c 0
 754 0 754 -2 754 -4 c 0
 754 -24 723 -60 698 -66 c 0
 647 -80 647 -136 647 -153 c 0
 647 -217 689 -238 719 -238 c 0xf4
134 227 m 0
 134 145 178 52 294 52 c 0
 369 52 426 88 478 194 c 1
 455 266 408 389 288 389 c 0
 212 389 134 340 134 227 c 0
EndSplineSet
Validated: 1
EndChar

StartChar: Eogonek
Encoding: 280 280 228
Width: 728
HStem: -384 75<84.5983 182.205> 55 77<304.298 597.372> 395 73<518.523 631.815> 411 75<301.569 607.429> 773 80<302.555 692.889>
VStem: 0 74<-297.885 -159.915> 81 100<-98.0098 -14.7053> 85 72<45 319.198 766.907 838.851> 101 74<139.07 349.843 384 722.529>
LayerCount: 2
Fore
SplineSet
146 -309 m 0xde
 174 -309 180 -278 208 -278 c 0
 218 -278 219 -286 219 -289 c 0
 219 -313 167 -384 94 -384 c 0
 43 -384 0 -348 0 -278 c 0
 0 -183 60 -125 95 -99 c 1
 88 -78 81 -49 81 -20 c 0xde
 81 -15 83 -9 86 -3 c 0
 89 67 101 341 101 551 c 0xdc80
 101 730 92 772 87 780 c 0
 86 783 85 786 85 789 c 0
 85 812 123 849 145 849 c 0
 150 849 154 847 157 842 c 0xdd
 166 827 169 785 170 766 c 1
 333 839 477 853 581 853 c 0
 614 853 643 851 667 850 c 0
 700 848 702 848 702 837 c 0
 702 812 662 773 638 773 c 2
 638 773 638 773 637 773 c 0
 545 777 545 777 530 777 c 0
 403 777 287 755 173 708 c 1
 174 675 175 638 175 597 c 0
 175 530 173 456 172 384 c 1
 280 461 416 486 516 486 c 0xdc80
 570 486 613 479 635 468 c 0
 640 465 642 461 642 456 c 0
 642 434 605 395 581 395 c 0xec80
 579 395 576 395 574 397 c 0
 557 405 517 411 468 411 c 0
 291 411 190 340 170 325 c 1
 167 201 162 91 160 45 c 1
 271 93 432 132 597 132 c 0
 605 132 609 128 609 121 c 0
 609 96 567 55 542 55 c 0
 399 55 258 23 162 -14 c 1
 165 -29 170 -47 180 -69 c 0
 181 -71 181 -73 181 -75 c 0
 181 -95 150 -131 125 -137 c 0
 74 -151 74 -207 74 -224 c 0
 74 -288 116 -309 146 -309 c 0xde
EndSplineSet
Validated: 8388609
EndChar

StartChar: eogonek
Encoding: 281 281 229
Width: 658
HStem: -378 75<262.598 360.205> 197 75<225.355 480.322> 388 75<270.134 513.999>
VStem: 54 74<130.884 302.564> 178 74<-291.885 -153.915> 259 100<-92.1526 -27.5164> 514 75<306.176 440>
LayerCount: 2
Fore
SplineSet
324 -303 m 0
 352 -303 358 -272 386 -272 c 0
 396 -272 397 -280 397 -283 c 0
 397 -307 345 -378 272 -378 c 0
 221 -378 178 -342 178 -272 c 0
 178 -177 238 -119 273 -93 c 1
 267 -75 261 -52 259 -28 c 1
 137 -12 54 83 54 187 c 0
 54 239 74 293 122 341 c 0
 182 401 294 463 559 463 c 0
 568 463 589 463 589 417 c 0
 589 333 508 197 352 197 c 0
 297 197 243 213 196 232 c 0
 191 234 189 239 189 244 c 0
 189 265 220 304 251 304 c 0
 283 304 318 272 402 272 c 0
 493 272 514 322 514 369 c 0
 514 377 513 383 511 388 c 1
 291 388 187 343 154 310 c 0
 138 294 128 267 128 236 c 0
 128 143 206 61 310 46 c 0
 314 48 318 49 322 49 c 0
 326 49 329 47 330 44 c 0
 335 44 339 44 344 44 c 0
 439 44 479 78 526 117 c 0
 542 130 555 135 563 135 c 0
 572 135 576 129 576 122 c 0
 576 109 564 90 547 76 c 0
 494 31 437 -15 345 -27 c 1
 348 -38 352 -50 358 -63 c 0
 359 -65 359 -67 359 -69 c 0
 359 -89 328 -125 303 -131 c 0
 252 -145 252 -201 252 -218 c 0
 252 -282 294 -303 324 -303 c 0
EndSplineSet
Validated: 1
EndChar

StartChar: Iogonek
Encoding: 302 302 247
Width: 609
HStem: -387 75<219.598 317.205> -46 21G<41 52> 46 77<308.52 543.554> 776 77<316.627 543.554>
VStem: 135 74<-300.885 -162.915> 216 100<-101.01 3.15112> 244 73<98 744.481>
LayerCount: 2
Fore
SplineSet
281 -312 m 0xfc
 309 -312 315 -281 343 -281 c 0
 353 -281 354 -289 354 -292 c 0
 354 -316 302 -387 229 -387 c 0
 178 -387 135 -351 135 -281 c 0
 135 -186 195 -128 230 -102 c 1
 223 -81 216 -52 216 -23 c 0xfc
 216 -14 221 -4 229 6 c 0
 229 9 229 11 229 14 c 1
 108 -15 60 -46 44 -46 c 0
 38 -46 36 -42 36 -34 c 0
 36 7 100 44 232 80 c 1
 240 273 244 438 244 554 c 0
 244 656 241 714 237 746 c 1
 111 717 61 684 44 684 c 0
 38 684 36 687 36 696 c 0
 36 733 90 771 234 810 c 1
 242 825 266 851 285 851 c 0
 294 851 302 845 306 828 c 1
 381 843 462 853 544 853 c 0
 552 853 555 849 555 842 c 0
 555 817 513 776 489 776 c 0
 429 776 370 770 314 761 c 1
 316 718 317 662 317 601 c 0xfa
 317 428 309 209 305 98 c 1
 380 113 461 123 544 123 c 0
 552 123 555 119 555 112 c 0
 555 87 513 46 489 46 c 0
 425 46 361 39 302 29 c 1
 301 21 298 12 293 4 c 1
 296 -14 301 -39 315 -72 c 0
 316 -74 316 -76 316 -78 c 0
 316 -98 285 -134 260 -140 c 0
 209 -154 209 -210 209 -227 c 0
 209 -291 251 -312 281 -312 c 0xfc
EndSplineSet
Validated: 8388609
EndChar

StartChar: iogonek
Encoding: 303 303 248
Width: 381
HStem: -445 75<95.5983 193.205> -32 76<179.888 249.525> 585 125<79.3861 169.908>
VStem: 11 74<-358.885 -220.915> 65 119<597.497 697.425> 83 76<52.1908 437.605> 92 100<-159.01 -32.8086>
LayerCount: 2
Fore
SplineSet
157 -370 m 0xf2
 185 -370 191 -339 219 -339 c 0
 229 -339 230 -347 230 -350 c 0
 230 -374 178 -445 105 -445 c 0
 54 -445 11 -409 11 -339 c 0
 11 -244 71 -186 106 -160 c 1
 99 -139 92 -110 92 -81 c 0xf2
 92 -63 113 -38 133 -25 c 1
 108 -8 83 49 83 228 c 0
 83 288 86 347 89 390 c 0
 91 415 129 453 153 453 c 0
 160 453 165 449 165 441 c 0
 165 439 159 363 159 283 c 0xe4
 159 124 181 44 209 44 c 0
 222 44 240 44 250 47 c 1
 267 70 288 82 301 82 c 0
 312 82 313 74 313 70 c 0
 313 60 273 -32 168 -32 c 2
 166 -32 l 1
 169 -49 170 -82 191 -130 c 0
 192 -132 192 -134 192 -136 c 0
 192 -156 161 -192 136 -198 c 0
 85 -212 85 -268 85 -285 c 0
 85 -349 127 -370 157 -370 c 0xf2
145 710 m 0
 168 710 184 692 184 669 c 0
 184 634 142 585 105 585 c 0
 83 585 65 601 65 626 c 0xe8
 65 662 108 710 145 710 c 0
EndSplineSet
Validated: 8388609
EndChar

StartChar: dotaccent
Encoding: 729 729 252
Width: 304
Flags: W
HStem: 902 125<107.386 197.908>
VStem: 93 119<914.497 1014.43>
AnchorPoint: "top" 147.115 956 mark 0
LayerCount: 2
Fore
SplineSet
173 1027 m 0
 196 1027 212 1009 212 986 c 0
 212 951 170 902 133 902 c 0
 111 902 93 918 93 943 c 0
 93 979 136 1027 173 1027 c 0
EndSplineSet
Validated: 1
EndChar

StartChar: uni0237
Encoding: 567 567 265
Width: 675
Flags: W
HStem: -786 74<242.177 398.873> -133 82<225.368 421.695>
VStem: 74 74<-588.178 -239.376> 524 73<-484.785 255.296>
AnchorPoint: "bottom" 379 -89 basechar 0
AnchorPoint: "top" 252 647 basechar 0
LayerCount: 2
Fore
SplineSet
353 -51 m 0
 374 -51 396 -54 419 -60 c 0
 426 -61 429 -66 429 -72 c 0
 429 -93 394 -133 369 -133 c 0
 367 -133 366 -133 364 -132 c 0
 348 -128 328 -125 308 -125 c 0
 275 -125 241 -133 217 -158 c 0
 150 -225 148 -374 148 -391 c 0
 148 -550 214 -712 324 -712 c 0
 373 -712 399 -695 415 -679 c 0
 515 -578 524 -280 524 -179 c 0
 524 -153 524 -153 523 44 c 0
 523 196 491 303 358 453 c 0
 355 456 354 460 354 463 c 0
 354 486 391 523 414 523 c 0
 418 523 422 522 425 519 c 0
 561 366 597 250 597 90 c 0
 597 -53 597 -126 597 -128 c 0
 597 -321 577 -470 530 -582 c 0
 470 -726 369 -786 278 -786 c 0
 145 -786 74 -612 74 -439 c 0
 74 -194 211 -51 353 -51 c 0
EndSplineSet
Validated: 1
EndChar

StartChar: Scedilla
Encoding: 350 350 288
Width: 646
HStem: -548 75<46.5459 243.573> -205 242<94 220> -205 41<38.418 49> -38 129<44.3581 120.248> 779 74<393.345 590.99>
VStem: 103 74<449.672 603.179> 323 75<-421.03 -294.188> 484 74<159.062 283.439> 523 87<734.083 778.755>
LayerCount: 2
Fore
SplineSet
176 35 m 0xbf
 180 36 183 37 186 37 c 0
 189 37 191 36 193 35 c 0
 288 39 484 112 484 215 c 0xcf
 484 390 103 264 103 471 c 0
 103 666 348 853 572 853 c 0
 583 853 610 846 610 816 c 0
 610 778 570 721 537 721 c 0
 528 721 523 725 523 734 c 0
 523 754 551 774 523 779 c 1xce80
 377 779 177 679 177 518 c 0
 177 343 558 465 558 263 c 0
 558 117 341 -15 182 -36 c 1
 165 -76 138 -115 128 -131 c 1
 296 -141 398 -231 398 -325 c 0
 398 -420 288 -548 50 -548 c 0
 42 -548 37 -543 37 -535 c 0
 37 -511 75 -473 99 -473 c 0
 225 -471 289 -438 308 -419 c 0
 317 -410 323 -395 323 -376 c 0
 323 -296 220 -206 49 -205 c 0
 41 -205 37 -201 37 -193 c 0
 37 -185 41 -175 49 -164 c 2
 49 -164 72 -132 94 -95 c 0
 107 -73 116 -52 121 -38 c 1
 51 -32 40 6 40 30 c 0
 40 56 79 91 101 91 c 0
 126 91 94 39 176 35 c 0xbf
EndSplineSet
Validated: 8388609
EndChar

StartChar: scedilla
Encoding: 351 351 289
Width: 661
HStem: -550 75<185.546 382.573> -207 41<177.418 188> 388 75<227.668 498>
VStem: 56 75<92.2122 160.203> 102 75<235.5 353.11> 462 75<-423.03 -296.188> 503 75<69.3101 160.449>
LayerCount: 2
Fore
SplineSet
346 44 m 4xf4
 406 44 467 62 503 85 c 5
 503 90 l 6
 503 116 502 132 486 148 c 4
 413 221 102 183 102 288 c 4
 102 329 132 363 145 376 c 4
 203 434 300 463 565 463 c 4
 574 463 577 457 577 448 c 4
 577 415 518 317 477 317 c 4
 459 317 460 340 480 363 c 4
 489 374 495 382 498 388 c 5
 391 387 234 381 178 346 c 4
 177 343 177 341 177 339 c 4
 177 267 478 291 554 215 c 4
 575 194 578 175 578 122 c 4xea
 578 64 463 -19 325 -29 c 5
 308 -71 278 -116 267 -133 c 5
 435 -143 537 -233 537 -327 c 4
 537 -422 427 -550 189 -550 c 4
 181 -550 176 -545 176 -537 c 4
 176 -513 214 -475 238 -475 c 4
 364 -473 428 -440 447 -421 c 4
 456 -412 462 -397 462 -378 c 4
 462 -298 359 -208 188 -207 c 4
 180 -207 176 -203 176 -195 c 4
 176 -187 180 -177 188 -166 c 6
 188 -166 211 -134 233 -97 c 4
 250 -68 261 -41 262 -29 c 5
 147 -21 56 26 56 107 c 4
 56 131 93 169 117 169 c 4
 125 169 131 165 131 156 c 4
 131 91 225 44 346 44 c 4xf4
EndSplineSet
Validated: 8388609
EndChar

StartChar: uni0162
Encoding: 354 354 292
Width: 712
HStem: -523 75<234.546 431.573> -180 41<226.418 237> 810 76<398.671 686.222>
VStem: 312 73<-0.859375 418.996> 328 74<181.794 793.763> 511 75<-396.03 -269.188>
LayerCount: 2
Fore
SplineSet
385 34 m 0xf4
 376 -15 330 -84 316 -106 c 1
 484 -116 586 -206 586 -300 c 0
 586 -395 476 -523 238 -523 c 0
 230 -523 225 -518 225 -510 c 0
 225 -486 263 -448 287 -448 c 0
 413 -446 477 -413 496 -394 c 0
 505 -385 511 -370 511 -351 c 0
 511 -271 408 -181 237 -180 c 0
 229 -180 225 -176 225 -168 c 0
 225 -160 229 -150 237 -139 c 2
 237 -139 260 -107 282 -70 c 0
 299 -40 311 -13 311 -1 c 0
 311 2 312 5 312 8 c 0xf4
 315 66 328 350 328 569 c 0
 328 730 321 780 316 795 c 1
 128 767 55 712 33 712 c 0
 27 712 24 716 24 725 c 0
 24 742 45 770 70 782 c 0
 237 867 435 886 610 886 c 0
 696 886 696 885 696 872 c 0
 696 848 657 810 633 810 c 0
 610 810 586 811 560 811 c 0
 509 811 453 809 396 804 c 1
 400 760 402 692 402 615 c 0xec
 402 377 386 50 386 42 c 0
 386 39 385 37 385 34 c 0xf4
EndSplineSet
Validated: 1
EndChar

StartChar: uni0163
Encoding: 355 355 293
Width: 617
HStem: -550 75<111.546 308.573> -207 41<103.418 114> 344 123<56.5089 129.969 323.02 449.073> 344 77<213 435.153> 553 20G<231.5 245.5>
VStem: 95 76<60.6879 343.358> 388 75<-423.03 -296.188>
LayerCount: 2
Fore
SplineSet
47 399 m 4xde
 47 421 89 464 112 464 c 4
 122 464 123 455 155 442 c 5
 165 475 174 502 180 519 c 4
 188 544 221 573 242 573 c 4
 249 573 254 569 254 561 c 4
 254 560 219 449 213 427 c 5
 236 423 262 421 287 421 c 4xde
 422 421 482 467 502 467 c 4xee
 507 467 510 463 510 455 c 4
 510 399 380 344 233 344 c 4
 220 344 206 344 193 345 c 5
 179 282 171 226 171 180 c 4
 171 96 197 44 255 44 c 4
 372 44 477 121 483 145 c 4
 490 172 526 202 546 202 c 4
 556 202 558 196 558 190 c 4
 558 132 416 -5 251 -29 c 5
 234 -71 204 -116 193 -133 c 5
 361 -143 463 -233 463 -327 c 4
 463 -422 353 -550 115 -550 c 4
 107 -550 102 -545 102 -537 c 4
 102 -513 140 -475 164 -475 c 4
 290 -473 354 -440 373 -421 c 4
 382 -412 388 -397 388 -378 c 4
 388 -298 285 -208 114 -207 c 4
 106 -207 102 -203 102 -195 c 4
 102 -187 106 -177 114 -166 c 6
 114 -166 137 -134 159 -97 c 4
 175 -69 186 -44 188 -31 c 5
 119 -23 95 43 95 127 c 4
 95 198 111 282 130 355 c 5
 96 363 47 383 47 399 c 4xde
EndSplineSet
Validated: 8388609
EndChar

StartChar: tcaron
Encoding: 357 357 295
Width: 617
Flags: W
HStem: -32 76<191.606 361.263> 344 77<213 327> 355 109<54.7469 129.969> 553 20G<231.5 245.5 438 452.5>
VStem: 95 76<60.3576 343.358> 376 83<445.346 556.23>
LayerCount: 2
Fore
SplineSet
47 399 m 0xbc
 47 421 89 464 112 464 c 0xbc
 122 464 123 455 155 442 c 1
 165 475 174 502 180 519 c 0
 188 544 221 573 242 573 c 0
 249 573 254 569 254 561 c 0
 254 560 219 449 213 427 c 1
 236 423 262 421 287 421 c 0
 316 421 342 423 365 427 c 1
 371 453 376 481 376 500 c 0
 377 524 426 573 450 573 c 0
 455 573 459 570 459 564 c 0
 459 546 452 493 436 443 c 1
 471 455 492 467 502 467 c 0
 507 467 510 463 510 455 c 0
 510 422 466 390 400 369 c 1
 372 330 337 310 320 310 c 0
 313 310 311 314 311 319 c 0
 311 327 317 339 327 352 c 1
 297 347 266 344 233 344 c 0xdc
 220 344 206 344 193 345 c 1
 179 282 171 226 171 180 c 0
 171 96 197 44 255 44 c 0
 372 44 477 121 483 145 c 0
 490 172 526 202 546 202 c 0
 556 202 558 196 558 190 c 0
 558 126 387 -32 203 -32 c 0
 122 -32 95 37 95 127 c 0
 95 198 111 282 130 355 c 1
 96 363 47 383 47 399 c 0xbc
EndSplineSet
Validated: 1
EndChar

StartChar: Uogonek
Encoding: 370 370 306
Width: 910
HStem: -313 75<789.598 887.205> -23 74<193.267 346.209 695.578 786.201> 833 20G<670.5 684.5>
VStem: 64 75<112.858 521.614> 619 74<78.5493 402 556.731 843.624> 705 74<-226.885 -88.9153> 783 103<51.0029 116.324> 783 76<51.0029 112.699>
LayerCount: 2
Fore
SplineSet
851 -238 m 0xfe
 879 -238 885 -207 913 -207 c 0
 923 -207 924 -215 924 -218 c 0
 924 -242 872 -313 799 -313 c 0
 748 -313 705 -277 705 -207 c 0
 705 -112 765 -54 800 -28 c 1
 796 -18 793 -7 791 6 c 1
 765 -11 735 -23 703 -23 c 0
 670 -23 613 -1 609 402 c 1
 490 26 303 -21 217 -21 c 0
 79 -21 64 178 64 263 c 0
 64 478 147 703 216 703 c 0
 225 703 231 698 231 689 c 0
 231 682 227 673 218 661 c 0
 174 602 139 447 139 308 c 0
 139 173 172 54 261 53 c 0
 262 53 263 53 264 53 c 0
 341 53 384 93 401 110 c 0
 577 287 619 787 619 794 c 0
 621 823 660 853 681 853 c 0
 688 853 693 849 693 840 c 0
 693 839 693 839 693 838 c 0
 693 833 683 669 683 490 c 0
 683 293 695 51 757 51 c 0
 766 51 775 55 783 59 c 1
 783 60 l 2xfe
 783 85 821 121 843 121 c 0
 854 121 858 111 859 105 c 0xfd
 863 90 861 56 885 2 c 0
 886 0 886 -2 886 -4 c 0
 886 -24 855 -60 830 -66 c 0
 779 -80 779 -136 779 -153 c 0
 779 -217 821 -238 851 -238 c 0xfe
EndSplineSet
Validated: 8388609
EndChar

StartChar: uogonek
Encoding: 371 371 307
Width: 725
HStem: -332 75<595.598 693.205> -30 74<177.696 371.5> 443 20G<568 584.5>
VStem: 72 75<68.4519 405.45> 511 74<-245.885 -107.915 46.6198 116> 518 75<179.525 453.754>
LayerCount: 2
Fore
SplineSet
657 -257 m 0xf8
 685 -257 691 -226 719 -226 c 0
 729 -226 730 -234 730 -237 c 0
 730 -261 678 -332 605 -332 c 0
 554 -332 511 -296 511 -226 c 0xf8
 511 -131 571 -73 606 -47 c 1
 603 -37 599 -25 597 -12 c 1
 578 -23 556 -30 532 -30 c 0
 515 -30 502 -20 502 92 c 0
 502 100 502 108 502 116 c 1
 395 -29 248 -30 189 -30 c 0
 188 -30 188 -30 187 -30 c 0
 85 -30 72 96 72 162 c 0
 72 228 83 311 108 406 c 0
 114 430 147 460 169 460 c 0
 177 460 182 456 182 447 c 0
 182 445 147 316 147 211 c 0
 147 104 180 44 235 44 c 0
 379 44 479 83 510 282 c 1
 514 347 518 399 518 404 c 0
 521 430 557 463 579 463 c 0
 590 463 593 459 593 430 c 0xf4
 593 427 577 245 577 139 c 0
 577 99 579 58 585 44 c 0
 588 44 590 45 592 45 c 0
 599 61 614 76 628 84 c 0
 637 91 647 95 655 95 c 0
 675 95 658 58 691 -17 c 0
 692 -19 692 -21 692 -23 c 0
 692 -43 661 -79 636 -85 c 0
 585 -99 585 -155 585 -172 c 0
 585 -236 627 -257 657 -257 c 0xf8
EndSplineSet
Validated: 8388609
EndChar

StartChar: longs
Encoding: 383 383 319
Width: 498
Flags: W
HStem: -851 74<48.2779 170.747> 775 73<335.031 449.764>
VStem: 178 74<44.2492 633.192> 258 74<-632.263 -44.6391>
LayerCount: 2
Fore
SplineSet
100 -777 m 0
 142 -777 165 -763 178 -750 c 0
 253 -675 258 -467 258 -410 c 0
 258 -111 178 61 178 363 c 0
 178 817 387 848 445 848 c 0
 454 848 458 843 458 834 c 0
 458 810 422 775 399 775 c 0
 359 775 339 761 329 750 c 0
 256 677 252 459 252 410 c 0
 252 111 332 -62 332 -363 c 0
 332 -824 106 -851 54 -851 c 0
 44 -851 40 -845 40 -837 c 0
 40 -813 76 -777 100 -777 c 0
EndSplineSet
Validated: 1
EndChar

StartChar: uni01EA
Encoding: 490 490 343
Width: 787
HStem: -365 75<356.598 454.205> 779 74<317.974 486.602>
VStem: 56 74<238.464 533.74> 272 74<-278.885 -140.915> 353 100<-79.1519 -7.61011> 648 74<230.13 567.33>
LayerCount: 2
Fore
SplineSet
418 -290 m 0
 446 -290 452 -259 480 -259 c 0
 490 -259 491 -267 491 -270 c 0
 491 -294 439 -365 366 -365 c 0
 315 -365 272 -329 272 -259 c 0
 272 -164 332 -106 367 -80 c 1
 361 -62 355 -38 353 -13 c 1
 186 2 56 167 56 334 c 0
 56 636 280 853 434 853 c 0
 605 853 722 606 722 456 c 0
 722 138 562 20 437 -7 c 1
 440 -20 445 -34 452 -50 c 0
 453 -52 453 -54 453 -56 c 0
 453 -76 422 -112 397 -118 c 0
 346 -132 346 -188 346 -205 c 0
 346 -269 388 -290 418 -290 c 0
648 410 m 0
 648 543 537 779 387 779 c 0
 265 779 130 604 130 380 c 0
 130 231 252 72 408 61 c 0
 411 62 413 62 416 62 c 0
 419 62 421 61 422 60 c 0
 423 60 425 60 426 60 c 0
 614 60 648 263 648 410 c 0
EndSplineSet
Validated: 1
EndChar

StartChar: uni01EB
Encoding: 491 491 344
Width: 652
HStem: -386 75<276.598 374.205> -31 74<213.71 273> 389 74<188.21 461.974>
VStem: 57 74<127.714 335.528> 192 74<-299.885 -161.915> 273 100<-100.105 -31> 502 74<104.959 349.695>
LayerCount: 2
Fore
SplineSet
338 -311 m 0
 366 -311 372 -280 400 -280 c 0
 410 -280 411 -288 411 -291 c 0
 411 -315 359 -386 286 -386 c 0
 235 -386 192 -350 192 -280 c 0
 192 -185 252 -127 287 -101 c 1
 281 -82 274 -57 273 -31 c 1
 268 -31 264 -31 259 -31 c 0
 163 -31 57 65 57 188 c 0
 57 227 60 312 132 384 c 0
 200 452 284 463 346 463 c 0
 550 463 576 394 576 266 c 0
 576 72 466 1 355 -22 c 1
 359 -36 364 -52 372 -71 c 0
 373 -73 373 -75 373 -77 c 0
 373 -97 342 -133 317 -139 c 0
 266 -153 266 -209 266 -226 c 0
 266 -290 308 -311 338 -311 c 0
299 389 m 0
 159 389 131 333 131 235 c 0
 131 130 229 43 306 43 c 0
 329 43 430 45 469 84 c 0
 491 106 502 152 502 222 c 0
 502 330 485 389 299 389 c 0
EndSplineSet
Validated: 1
EndChar

StartChar: uniA768
Encoding: 42856 42856 359
Width: 670
Flags: W
HStem: 79 58<165 219.841> 833 20G<135 161>
VStem: 86 74<-21.9104 77.6018> 102 74<141.481 793.859> 524 68<513.492 737.607>
LayerCount: 2
Fore
SplineSet
86 794 m 0xe8
 86 817 124 853 146 853 c 0
 176 853 176 711 176 602 c 0xd8
 176 448 169 256 165 137 c 1
 364 186 524 464 524 632 c 0
 524 744 459 754 459 771 c 0
 459 792 494 827 515 827 c 0
 522 827 592 796 592 675 c 0
 592 470 394 157 162 79 c 1
 161 49 160 30 160 29 c 0
 159 5 124 -30 100 -30 c 0
 91 -30 86 -25 86 -15 c 0xe8
 86 -10 102 315 102 556 c 0xd8
 102 789 86 791 86 794 c 0xe8
EndSplineSet
Validated: 1
EndChar

StartChar: uniA769
Encoding: 42857 42857 360
Width: 478
Flags: W
HStem: 369 66<269.261 319.644>
VStem: 102 70<14.625 121.031 158.753 471.612> 326 70<259.261 359.605>
LayerCount: 2
Fore
SplineSet
163 151 m 1
 255 195 326 254 326 310 c 0
 326 364 267 365 262 369 c 0
 260 371 259 374 259 377 c 0
 259 397 288 435 325 435 c 0
 362 435 396 400 396 357 c 0
 396 218 175 104 161 97 c 1
 160 82 160 68 160 53 c 0
 160 28 120 -5 100 -5 c 0
 94 -5 90 -2 90 6 c 0
 90 101 102 210 102 294 c 0
 102 373 90 415 90 416 c 0
 90 440 130 475 149 475 c 0
 155 475 158 472 160 466 c 0
 169 428 172 386 172 341 c 0
 172 319 172 319 163 151 c 1
EndSplineSet
Validated: 1
EndChar

StartChar: uni01F7
Encoding: 503 503 361
Width: 670
Flags: W
HStem: 79 58<165 219.841> 779 69<270.402 483.811> 833 20G<135 152.5>
VStem: 86 74<-21.9104 91.4762 137 390.014 773.317 843.948> 102 74<141.481 732.906> 524 68<513.725 737.272>
LayerCount: 2
Fore
SplineSet
86 794 m 0xd4
 86 817 124 853 146 853 c 0xb4
 159 853 166 842 171 772 c 1
 280 825 365 848 429 848 c 0
 544 848 592 776 592 675 c 0
 592 469 394 157 162 79 c 1
 161 49 160 30 160 29 c 0
 159 5 124 -30 100 -30 c 0
 91 -30 86 -25 86 -15 c 0xd4
 86 -10 102 315 102 556 c 0xcc
 102 789 86 791 86 794 c 0xd4
165 137 m 1
 364 186 524 465 524 633 c 0
 524 718 484 779 386 779 c 0
 333 779 264 761 174 719 c 1
 175 685 176 645 176 602 c 0xcc
 176 448 169 256 165 137 c 1
EndSplineSet
Validated: 1
EndChar

StartChar: uni01BF
Encoding: 447 447 362
Width: 479
Flags: W
HStem: 359 70<174.675 321.368>
VStem: 103 70<6.625 112.625 150.753 351.725 393 463.322> 327 70<252.122 352.332>
LayerCount: 2
Fore
SplineSet
170 393 m 1
 222 418 267 429 302 429 c 0
 361 429 397 398 397 350 c 0
 397 210 175 95 162 89 c 1
 161 74 161 60 161 45 c 0
 161 20 121 -13 101 -13 c 0
 95 -13 91 -10 91 -2 c 0
 91 93 103 202 103 286 c 0
 103 365 91 407 91 408 c 0
 91 432 131 467 150 467 c 0
 165 467 168 422 170 393 c 1
164 143 m 1
 213 167 327 230 327 302 c 0
 327 335 301 359 255 359 c 0
 232 359 205 353 173 340 c 1
 173 338 173 335 173 333 c 0
 173 311 173 311 164 143 c 1
EndSplineSet
Validated: 1
EndChar

StartChar: uni021C
Encoding: 540 540 363
Width: 560
Flags: W
HStem: 417 69<217.671 381.586> 785 68<138.809 383.144>
VStem: 404 68<271.756 392.008 642.915 758.939>
LayerCount: 2
Fore
SplineSet
306 853 m 0
 400 853 476 818 476 745 c 0
 476 648 352 539 280 483 c 1
 294 485 307 486 319 486 c 0
 402 486 472 449 472 375 c 0
 472 231 242 67 117 -11 c 0
 98 -23 83 -20 83 -6 c 0
 83 8 98 30 117 42 c 0
 232 114 404 238 404 332 c 0
 404 387 346 417 274 417 c 0
 173 417 112 365 91 365 c 0
 86 365 83 368 83 378 c 0
 83 392 98 414 118 426 c 0
 234 497 408 618 408 702 c 0
 408 756 342 785 261 785 c 0
 167 785 113 750 92 750 c 0
 86 750 83 753 83 762 c 0
 83 820 221 853 306 853 c 0
EndSplineSet
Validated: 1
EndChar

StartChar: uni021D
Encoding: 541 541 364
Width: 554
Flags: W
HStem: 30 68<203.991 370.23> 394 69<120.376 366.142>
VStem: 390 68<259.833 367.598> 423 68<-252.209 -22.1072>
LayerCount: 2
Fore
SplineSet
288 463 m 0xe0
 382 463 458 428 458 354 c 0xe0
 458 259 337 151 266 96 c 1
 280 97 293 98 307 98 c 0
 410 98 491 44 491 -88 c 0
 491 -288 305 -582 122 -823 c 0
 109 -839 90 -851 78 -851 c 0
 66 -851 65 -841 65 -838 c 0
 65 -831 69 -821 77 -811 c 0
 334 -473 423 -258 423 -130 c 0xd0
 423 -14 349 30 263 30 c 0
 161 30 96 -25 78 -25 c 0
 70 -25 65 -20 65 -12 c 0
 65 2 80 24 100 36 c 0
 216 107 390 227 390 312 c 0
 390 366 324 394 244 394 c 0
 149 394 91 359 78 359 c 0
 69 359 65 364 65 371 c 0
 65 429 203 463 288 463 c 0xe0
EndSplineSet
Validated: 1
EndChar

